Untitled.ufo
<glyph name="comma" format="1">
  <advance width="248"/>
  <unicode hex="002C"/>
  <outline>
    <contour>
      <point x="12" y="25" type="curve"/>
      <point x="12" y="17"/>
      <point x="11" y="13"/>
      <point x="19" y="7" type="curve"/>
      <point x="21" y="7"/>
      <point x="30" y="7"/>
      <point x="33" y="7" type="curve"/>
      <point x="78" y="7"/>
      <point x="108" y="14"/>
      <point x="146" y="41" type="curve"/>
      <point x="168" y="58"/>
      <point x="190" y="78"/>
      <point x="204" y="103" type="curve"/>
      <point x="209" y="113"/>
      <point x="224" y="142"/>
      <point x="224" y="144" type="curve"/>
      <point x="225" y="146"/>
      <point x="232" y="189"/>
      <point x="235" y="205" type="curve"/>
      <point x="235" y="206"/>
      <point x="235" y="208"/>
      <point x="235" y="209" type="curve"/>
      <point x="235" y="239"/>
      <point x="228" y="262"/>
      <point x="217" y="291" type="curve"/>
      <point x="209" y="314"/>
      <point x="196" y="326"/>
      <point x="180" y="346" type="curve"/>
      <point x="166" y="363"/>
      <point x="140" y="367"/>
      <point x="120" y="367" type="curve"/>
      <point x="79" y="367"/>
      <point x="59" y="360"/>
      <point x="43" y="322" type="curve"/>
      <point x="43" y="319"/>
      <point x="42" y="304"/>
      <point x="42" y="301" type="curve"/>
      <point x="42" y="277"/>
      <point x="47" y="262"/>
      <point x="67" y="247" type="curve"/>
      <point x="70" y="244"/>
      <point x="80" y="238"/>
      <point x="80" y="238" type="curve"/>
      <point x="132" y="238" type="line"/>
      <point x="133" y="238"/>
      <point x="143" y="232"/>
      <point x="146" y="229" type="curve"/>
      <point x="159" y="217"/>
      <point x="163" y="199"/>
      <point x="163" y="182" type="curve"/>
      <point x="163" y="148"/>
      <point x="156" y="120"/>
      <point x="135" y="92" type="curve"/>
      <point x="133" y="90"/>
      <point x="126" y="83"/>
      <point x="125" y="82" type="curve"/>
      <point x="123" y="81"/>
      <point x="97" y="69"/>
      <point x="87" y="65" type="curve"/>
      <point x="86" y="64"/>
      <point x="79" y="62"/>
      <point x="77" y="62" type="curve"/>
      <point x="58" y="57"/>
      <point x="38" y="58"/>
      <point x="19" y="51" type="curve"/>
      <point x="10" y="49"/>
      <point x="12" y="32"/>
    </contour>
  </outline>
</glyph>
<glyph name="zero" format="1">
  <advance width="557"/>
  <unicode hex="0030"/>
  <outline>
    <contour>
      <point x="199" y="185" type="curve"/>
      <point x="199" y="185"/>
      <point x="202" y="185"/>
      <point x="202" y="185" type="curve"/>
      <point x="205" y="184"/>
      <point x="227" y="179"/>
      <point x="230" y="178" type="curve"/>
      <point x="252" y="174"/>
      <point x="269" y="174"/>
      <point x="291" y="174" type="curve"/>
      <point x="326" y="174"/>
      <point x="361" y="184"/>
      <point x="391" y="202" type="curve"/>
      <point x="462" y="246"/>
      <point x="500" y="320"/>
      <point x="514" y="401" type="curve"/>
      <point x="514" y="409"/>
      <point x="515" y="449"/>
      <point x="515" y="457" type="curve"/>
      <point x="515" y="489"/>
      <point x="517" y="523"/>
      <point x="507" y="555" type="curve"/>
      <point x="506" y="558"/>
      <point x="495" y="579"/>
      <point x="493" y="582" type="curve"/>
      <point x="493" y="584"/>
      <point x="490" y="591"/>
      <point x="490" y="592" type="curve"/>
      <point x="446" y="654" type="line"/>
      <point x="432" y="660"/>
      <point x="426" y="672"/>
      <point x="415" y="682" type="curve"/>
      <point x="411" y="684"/>
      <point x="395" y="696"/>
      <point x="391" y="699" type="curve"/>
      <point x="383" y="703"/>
      <point x="352" y="720"/>
      <point x="346" y="723" type="curve"/>
      <point x="321" y="734"/>
      <point x="292" y="733"/>
      <point x="265" y="733" type="curve"/>
      <point x="236" y="733"/>
      <point x="209" y="723"/>
      <point x="182" y="712" type="curve"/>
      <point x="180" y="712"/>
      <point x="176" y="709"/>
      <point x="175" y="709" type="curve"/>
      <point x="141" y="685"/>
      <point x="103" y="661"/>
      <point x="83" y="623" type="curve"/>
      <point x="79" y="617"/>
      <point x="65" y="589"/>
      <point x="62" y="582" type="curve"/>
      <point x="49" y="536"/>
      <point x="38" y="492"/>
      <point x="38" y="445" type="curve"/>
      <point x="38" y="443"/>
      <point x="38" y="439"/>
      <point x="38" y="438" type="curve"/>
      <point x="41" y="421"/>
      <point x="50" y="363"/>
      <point x="52" y="356" type="curve"/>
      <point x="69" y="281"/>
      <point x="130" y="215"/>
    </contour>
    <contour>
      <point x="116" y="455" type="curve"/>
      <point x="116" y="464"/>
      <point x="117" y="486"/>
      <point x="117" y="486" type="curve"/>
      <point x="118" y="493"/>
      <point x="130" y="536"/>
      <point x="134" y="548" type="curve"/>
      <point x="160" y="621"/>
      <point x="206" y="662"/>
      <point x="285" y="662" type="curve"/>
      <point x="340" y="662"/>
      <point x="377" y="635"/>
      <point x="404" y="589" type="curve"/>
      <point x="408" y="583"/>
      <point x="425" y="551"/>
      <point x="428" y="545" type="curve"/>
      <point x="429" y="544"/>
      <point x="431" y="534"/>
      <point x="432" y="531" type="curve"/>
      <point x="436" y="508"/>
      <point x="439" y="486"/>
      <point x="439" y="463" type="curve"/>
      <point x="439" y="431"/>
      <point x="435" y="401"/>
      <point x="428" y="370" type="curve"/>
      <point x="428" y="368"/>
      <point x="426" y="361"/>
      <point x="425" y="360" type="curve"/>
      <point x="404" y="315"/>
      <point x="381" y="277"/>
      <point x="336" y="253" type="curve"/>
      <point x="331" y="251"/>
      <point x="314" y="243"/>
      <point x="312" y="243" type="curve"/>
      <point x="312" y="243"/>
      <point x="299" y="243"/>
      <point x="294" y="243" type="curve"/>
      <point x="277" y="243"/>
      <point x="257" y="243"/>
      <point x="240" y="247" type="curve"/>
      <point x="238" y="247"/>
      <point x="226" y="252"/>
      <point x="223" y="253" type="curve"/>
      <point x="197" y="268"/>
      <point x="181" y="282"/>
      <point x="161" y="305" type="curve"/>
      <point x="124" y="349"/>
      <point x="116" y="399"/>
    </contour>
    <contour>
      <point x="233" y="289" type="curve"/>
      <point x="231" y="289"/>
      <point x="231" y="286"/>
      <point x="233" y="286" type="curve"/>
      <point x="235" y="286"/>
      <point x="235" y="289"/>
    </contour>
    <contour>
      <point x="192" y="557" type="curve"/>
      <point x="190" y="557"/>
      <point x="190" y="553"/>
      <point x="192" y="553" type="curve"/>
      <point x="194" y="553"/>
      <point x="194" y="557"/>
    </contour>
  </outline>
</glyph>
<glyph name="five" format="1">
  <advance width="486"/>
  <unicode hex="0035"/>
  <outline>
    <contour>
      <point x="36" y="44" type="curve"/>
      <point x="36" y="42"/>
      <point x="36" y="38"/>
      <point x="36" y="38" type="curve"/>
      <point x="49" y="13"/>
      <point x="86" y="16"/>
      <point x="104" y="3" type="curve"/>
      <point x="127" y="6"/>
      <point x="148" y="8"/>
      <point x="170" y="10" type="curve"/>
      <point x="173" y="11"/>
      <point x="187" y="13"/>
      <point x="190" y="14" type="curve"/>
      <point x="220" y="21"/>
      <point x="255" y="40"/>
      <point x="279" y="58" type="curve"/>
      <point x="292" y="68"/>
      <point x="338" y="107"/>
      <point x="344" y="113" type="curve"/>
      <point x="347" y="116"/>
      <point x="369" y="147"/>
      <point x="372" y="151" type="curve"/>
      <point x="389" y="174"/>
      <point x="407" y="213"/>
      <point x="416" y="240" type="curve"/>
      <point x="416" y="241"/>
      <point x="416" y="249"/>
      <point x="416" y="250" type="curve"/>
      <point x="419" y="271"/>
      <point x="423" y="290"/>
      <point x="423" y="311" type="curve"/>
      <point x="423" y="340"/>
      <point x="418" y="366"/>
      <point x="406" y="394" type="curve"/>
      <point x="405" y="397"/>
      <point x="390" y="418"/>
      <point x="389" y="421" type="curve"/>
      <point x="388" y="422"/>
      <point x="386" y="427"/>
      <point x="385" y="428" type="curve"/>
      <point x="380" y="435"/>
      <point x="351" y="466"/>
      <point x="344" y="473" type="curve"/>
      <point x="341" y="475"/>
      <point x="316" y="491"/>
      <point x="313" y="493" type="curve"/>
      <point x="313" y="493"/>
      <point x="310" y="496"/>
      <point x="310" y="497" type="curve"/>
      <point x="235" y="541" type="line"/>
      <point x="232" y="541"/>
      <point x="223" y="544"/>
      <point x="221" y="545" type="curve"/>
      <point x="215" y="547"/>
      <point x="186" y="562"/>
      <point x="180" y="565" type="curve"/>
      <point x="180" y="566"/>
      <point x="179" y="571"/>
      <point x="179" y="572" type="curve"/>
      <point x="179" y="579"/>
      <point x="203" y="639"/>
      <point x="214" y="640" type="curve"/>
      <point x="222" y="639"/>
      <point x="261" y="634"/>
      <point x="269" y="634" type="curve"/>
      <point x="281" y="632"/>
      <point x="286" y="636"/>
      <point x="296" y="630" type="curve"/>
      <point x="309" y="630"/>
      <point x="369" y="633"/>
      <point x="382" y="634" type="curve"/>
      <point x="391" y="634"/>
      <point x="398" y="634"/>
      <point x="402" y="640" type="curve"/>
      <point x="404" y="642"/>
      <point x="415" y="659"/>
      <point x="416" y="661" type="curve"/>
      <point x="417" y="662"/>
      <point x="426" y="670"/>
      <point x="426" y="671" type="curve"/>
      <point x="427" y="673"/>
      <point x="432" y="693"/>
      <point x="433" y="695" type="curve"/>
      <point x="440" y="712"/>
      <point x="447" y="721"/>
      <point x="447" y="739" type="curve"/>
      <point x="447" y="741"/>
      <point x="447" y="746"/>
      <point x="447" y="747" type="curve"/>
      <point x="445" y="750"/>
      <point x="433" y="762"/>
      <point x="430" y="764" type="curve"/>
      <point x="429" y="764"/>
      <point x="421" y="765"/>
      <point x="418" y="765" type="curve"/>
      <point x="388" y="765"/>
      <point x="397" y="741"/>
      <point x="378" y="733" type="curve"/>
      <point x="365" y="727"/>
      <point x="353" y="726"/>
      <point x="339" y="726" type="curve"/>
      <point x="305" y="726"/>
      <point x="271" y="737"/>
      <point x="236" y="737" type="curve"/>
      <point x="222" y="737"/>
      <point x="205" y="738"/>
      <point x="197" y="723" type="curve"/>
      <point x="159" y="651" type="line"/>
      <point x="159" y="647" type="line"/>
      <point x="115" y="568" type="line"/>
      <point x="114" y="567"/>
      <point x="112" y="560"/>
      <point x="111" y="558" type="curve"/>
      <point x="106" y="547"/>
      <point x="79" y="497"/>
      <point x="74" y="486" type="curve"/>
      <point x="84" y="476" type="line"/>
      <point x="180" y="442" type="line"/>
      <point x="181" y="441"/>
      <point x="188" y="436"/>
      <point x="190" y="435" type="curve"/>
      <point x="191" y="434"/>
      <point x="199" y="432"/>
      <point x="200" y="432" type="curve"/>
      <point x="228" y="418"/>
      <point x="250" y="410"/>
      <point x="272" y="390" type="curve"/>
      <point x="279" y="385"/>
      <point x="308" y="359"/>
      <point x="313" y="353" type="curve"/>
      <point x="314" y="352"/>
      <point x="319" y="345"/>
      <point x="320" y="342" type="curve"/>
      <point x="326" y="331"/>
      <point x="343" y="295"/>
      <point x="344" y="291" type="curve"/>
      <point x="348" y="280"/>
      <point x="348" y="260"/>
      <point x="348" y="248" type="curve"/>
      <point x="348" y="232"/>
      <point x="348" y="222"/>
      <point x="344" y="205" type="curve"/>
      <point x="338" y="178"/>
      <point x="306" y="128"/>
      <point x="286" y="113" type="curve"/>
      <point x="280" y="109"/>
      <point x="261" y="97"/>
      <point x="259" y="96" type="curve"/>
      <point x="238" y="89"/>
      <point x="215" y="89"/>
      <point x="193" y="89" type="curve"/>
      <point x="173" y="89"/>
      <point x="162" y="88"/>
      <point x="142" y="92" type="curve"/>
      <point x="141" y="93"/>
      <point x="136" y="96"/>
      <point x="135" y="96" type="curve"/>
      <point x="129" y="97"/>
      <point x="102" y="102"/>
      <point x="98" y="103" type="curve"/>
      <point x="97" y="103"/>
      <point x="89" y="103"/>
      <point x="86" y="103" type="curve"/>
      <point x="57" y="103"/>
      <point x="36" y="71"/>
    </contour>
    <contour>
      <point x="194" y="430" type="curve"/>
      <point x="192" y="430"/>
      <point x="192" y="426"/>
      <point x="194" y="426" type="curve"/>
      <point x="195" y="426"/>
      <point x="195" y="430"/>
    </contour>
  </outline>
</glyph>
<glyph name="eight" format="1">
  <advance width="495"/>
  <unicode hex="0038"/>
  <outline>
    <contour>
      <point x="39" y="363" type="curve"/>
      <point x="39" y="343"/>
      <point x="38" y="316"/>
      <point x="49" y="298" type="curve"/>
      <point x="56" y="288"/>
      <point x="75" y="259"/>
      <point x="77" y="257" type="curve"/>
      <point x="116" y="207"/>
      <point x="190" y="185"/>
      <point x="251" y="185" type="curve"/>
      <point x="344" y="185"/>
      <point x="414" y="235"/>
      <point x="447" y="322" type="curve"/>
      <point x="446" y="322"/>
      <point x="446" y="325"/>
      <point x="447" y="325" type="curve"/>
      <point x="447" y="327"/>
      <point x="450" y="338"/>
      <point x="450" y="339" type="curve"/>
      <point x="450" y="340"/>
      <point x="450" y="360"/>
      <point x="450" y="368" type="curve"/>
      <point x="450" y="441"/>
      <point x="408" y="502"/>
      <point x="354" y="548" type="curve"/>
      <point x="350" y="551"/>
      <point x="317" y="576"/>
      <point x="313" y="579" type="curve"/>
      <point x="311" y="580"/>
      <point x="304" y="588"/>
      <point x="303" y="589" type="curve"/>
      <point x="303" y="589"/>
      <point x="303" y="590"/>
      <point x="303" y="591" type="curve"/>
      <point x="303" y="602"/>
      <point x="316" y="605"/>
      <point x="323" y="610" type="curve"/>
      <point x="346" y="625"/>
      <point x="368" y="649"/>
      <point x="385" y="668" type="curve"/>
      <point x="386" y="669"/>
      <point x="391" y="677"/>
      <point x="392" y="678" type="curve"/>
      <point x="393" y="679"/>
      <point x="401" y="687"/>
      <point x="402" y="688" type="curve"/>
      <point x="407" y="695"/>
      <point x="421" y="719"/>
      <point x="423" y="723" type="curve"/>
      <point x="424" y="727"/>
      <point x="434" y="760"/>
      <point x="436" y="771" type="curve"/>
      <point x="436" y="771"/>
      <point x="436" y="774"/>
      <point x="436" y="776" type="curve"/>
      <point x="436" y="777"/>
      <point x="436" y="781"/>
      <point x="436" y="781" type="curve"/>
      <point x="436" y="782"/>
      <point x="433" y="787"/>
      <point x="433" y="788" type="curve"/>
      <point x="428" y="808"/>
      <point x="426" y="827"/>
      <point x="416" y="846" type="curve"/>
      <point x="412" y="852"/>
      <point x="400" y="871"/>
      <point x="399" y="873" type="curve"/>
      <point x="393" y="879"/>
      <point x="359" y="908"/>
      <point x="351" y="914" type="curve"/>
      <point x="319" y="937"/>
      <point x="275" y="942"/>
      <point x="238" y="942" type="curve"/>
      <point x="234" y="942"/>
      <point x="214" y="942"/>
      <point x="210" y="942" type="curve"/>
      <point x="209" y="941"/>
      <point x="202" y="939"/>
      <point x="200" y="938" type="curve"/>
      <point x="199" y="938"/>
      <point x="194" y="935"/>
      <point x="193" y="935" type="curve"/>
      <point x="189" y="934"/>
      <point x="156" y="926"/>
      <point x="152" y="925" type="curve"/>
      <point x="145" y="922"/>
      <point x="119" y="908"/>
      <point x="114" y="904" type="curve"/>
      <point x="109" y="900"/>
      <point x="83" y="874"/>
      <point x="77" y="866" type="curve"/>
      <point x="50" y="835"/>
      <point x="42" y="799"/>
      <point x="42" y="759" type="curve"/>
      <point x="42" y="755"/>
      <point x="42" y="747"/>
      <point x="42" y="747" type="curve"/>
      <point x="44" y="738"/>
      <point x="53" y="702"/>
      <point x="56" y="695" type="curve"/>
      <point x="79" y="634"/>
      <point x="130" y="601"/>
      <point x="179" y="562" type="curve"/>
      <point x="183" y="559"/>
      <point x="183" y="559"/>
      <point x="183" y="555" type="curve"/>
      <point x="183" y="549"/>
      <point x="182" y="549"/>
      <point x="176" y="545" type="curve"/>
      <point x="171" y="540"/>
      <point x="126" y="508"/>
      <point x="121" y="503" type="curve"/>
      <point x="112" y="495"/>
      <point x="74" y="455"/>
      <point x="66" y="445" type="curve"/>
      <point x="62" y="438"/>
      <point x="46" y="405"/>
      <point x="42" y="397" type="curve"/>
      <point x="39" y="388"/>
      <point x="39" y="373"/>
    </contour>
    <contour>
      <point x="135" y="353" type="curve"/>
      <point x="135" y="384"/>
      <point x="143" y="410"/>
      <point x="152" y="438" type="curve"/>
      <point x="153" y="440"/>
      <point x="155" y="451"/>
      <point x="155" y="452" type="curve"/>
      <point x="160" y="462"/>
      <point x="170" y="466"/>
      <point x="173" y="476" type="curve"/>
      <point x="217" y="521" type="line"/>
      <point x="217" y="521"/>
      <point x="221" y="521"/>
      <point x="223" y="521" type="curve"/>
      <point x="239" y="521"/>
      <point x="251" y="503"/>
      <point x="262" y="493" type="curve"/>
      <point x="293" y="464"/>
      <point x="323" y="438"/>
      <point x="347" y="401" type="curve"/>
      <point x="360" y="380"/>
      <point x="361" y="360"/>
      <point x="361" y="336" type="curve"/>
      <point x="361" y="289"/>
      <point x="338" y="244"/>
      <point x="289" y="233" type="curve"/>
      <point x="284" y="233"/>
      <point x="263" y="233"/>
      <point x="258" y="233" type="curve"/>
      <point x="242" y="233"/>
      <point x="226" y="231"/>
      <point x="210" y="236" type="curve"/>
      <point x="162" y="253"/>
      <point x="135" y="304"/>
    </contour>
    <contour>
      <point x="131" y="789" type="curve"/>
      <point x="131" y="799"/>
      <point x="131" y="816"/>
      <point x="135" y="825" type="curve"/>
      <point x="154" y="866"/>
      <point x="195" y="897"/>
      <point x="241" y="897" type="curve"/>
      <point x="285" y="897"/>
      <point x="310" y="875"/>
      <point x="330" y="839" type="curve"/>
      <point x="339" y="823"/>
      <point x="351" y="802"/>
      <point x="351" y="783" type="curve"/>
      <point x="351" y="738"/>
      <point x="338" y="713"/>
      <point x="316" y="678" type="curve"/>
      <point x="309" y="667"/>
      <point x="279" y="620"/>
      <point x="269" y="620" type="curve"/>
      <point x="253" y="620"/>
      <point x="242" y="638"/>
      <point x="231" y="647" type="curve"/>
      <point x="230" y="648"/>
      <point x="225" y="650"/>
      <point x="224" y="651" type="curve"/>
      <point x="206" y="664"/>
      <point x="187" y="683"/>
      <point x="173" y="699" type="curve"/>
      <point x="149" y="725"/>
      <point x="131" y="753"/>
    </contour>
  </outline>
</glyph>
<glyph name="C" format="1">
  <advance width="786"/>
  <unicode hex="0043"/>
  <outline>
    <contour>
      <point x="226" y="136" type="curve"/>
      <point x="292" y="100"/>
      <point x="367" y="83"/>
      <point x="443" y="83" type="curve"/>
      <point x="537" y="83"/>
      <point x="633" y="92"/>
      <point x="720" y="131" type="curve"/>
      <point x="738" y="151"/>
      <point x="731" y="166"/>
      <point x="733" y="193" type="curve"/>
      <point x="734" y="201"/>
      <point x="741" y="267"/>
      <point x="742" y="276" type="curve"/>
      <point x="742" y="277"/>
      <point x="742" y="289"/>
      <point x="742" y="293" type="curve"/>
      <point x="742" y="296"/>
      <point x="742" y="308"/>
      <point x="742" y="311" type="curve"/>
      <point x="738" y="316"/>
      <point x="731" y="320"/>
      <point x="725" y="320" type="curve"/>
      <point x="696" y="320"/>
      <point x="695" y="293"/>
      <point x="685" y="271" type="curve"/>
      <point x="680" y="259"/>
      <point x="669" y="239"/>
      <point x="659" y="228" type="curve"/>
      <point x="620" y="186"/>
      <point x="581" y="150"/>
      <point x="523" y="136" type="curve"/>
      <point x="522" y="135"/>
      <point x="515" y="136"/>
      <point x="514" y="136" type="curve"/>
      <point x="513" y="135"/>
      <point x="507" y="132"/>
      <point x="506" y="131" type="curve"/>
      <point x="500" y="131"/>
      <point x="470" y="131"/>
      <point x="464" y="131" type="curve"/>
      <point x="453" y="131"/>
      <point x="424" y="131"/>
      <point x="423" y="131" type="curve"/>
      <point x="421" y="131"/>
      <point x="409" y="134"/>
      <point x="405" y="136" type="curve"/>
      <point x="335" y="159"/>
      <point x="295" y="181"/>
      <point x="252" y="241" type="curve"/>
      <point x="239" y="259"/>
      <point x="208" y="305"/>
      <point x="208" y="306" type="curve"/>
      <point x="208" y="311" type="line"/>
      <point x="177" y="411" type="line"/>
      <point x="178" y="413"/>
      <point x="178" y="419"/>
      <point x="177" y="420" type="curve"/>
      <point x="177" y="424"/>
      <point x="173" y="452"/>
      <point x="173" y="455" type="curve"/>
      <point x="173" y="457"/>
      <point x="173" y="500"/>
      <point x="173" y="516" type="curve"/>
      <point x="173" y="532"/>
      <point x="173" y="575"/>
      <point x="173" y="578" type="curve"/>
      <point x="174" y="595"/>
      <point x="179" y="613"/>
      <point x="177" y="630" type="curve"/>
      <point x="180" y="643"/>
      <point x="198" y="701"/>
      <point x="204" y="713" type="curve"/>
      <point x="207" y="722"/>
      <point x="232" y="762"/>
      <point x="239" y="770" type="curve"/>
      <point x="242" y="774"/>
      <point x="279" y="811"/>
      <point x="291" y="823" type="curve"/>
      <point x="295" y="827"/>
      <point x="311" y="839"/>
      <point x="313" y="840" type="curve"/>
      <point x="324" y="846"/>
      <point x="364" y="865"/>
      <point x="370" y="867" type="curve"/>
      <point x="397" y="874"/>
      <point x="430" y="876"/>
      <point x="458" y="876" type="curve"/>
      <point x="574" y="876"/>
      <point x="650" y="794"/>
      <point x="689" y="691" type="curve"/>
      <point x="691" y="689"/>
      <point x="700" y="683"/>
      <point x="703" y="683" type="curve"/>
      <point x="711" y="682"/>
      <point x="729" y="685"/>
      <point x="733" y="696" type="curve"/>
      <point x="733" y="699"/>
      <point x="734" y="712"/>
      <point x="734" y="716" type="curve"/>
      <point x="734" y="720"/>
      <point x="733" y="734"/>
      <point x="733" y="735" type="curve"/>
      <point x="732" y="743"/>
      <point x="721" y="802"/>
      <point x="720" y="810" type="curve"/>
      <point x="720" y="813"/>
      <point x="721" y="837"/>
      <point x="720" y="840" type="curve"/>
      <point x="719" y="846"/>
      <point x="713" y="864"/>
      <point x="711" y="867" type="curve"/>
      <point x="711" y="868"/>
      <point x="698" y="874"/>
      <point x="694" y="875" type="curve"/>
      <point x="680" y="880"/>
      <point x="616" y="902"/>
      <point x="602" y="906" type="curve"/>
      <point x="600" y="906"/>
      <point x="591" y="906"/>
      <point x="589" y="906" type="curve"/>
      <point x="584" y="907"/>
      <point x="545" y="914"/>
      <point x="541" y="915" type="curve"/>
      <point x="518" y="918"/>
      <point x="502" y="919"/>
      <point x="482" y="919" type="curve"/>
      <point x="455" y="919"/>
      <point x="428" y="913"/>
      <point x="401" y="915" type="curve"/>
      <point x="388" y="912"/>
      <point x="330" y="896"/>
      <point x="317" y="893" type="curve"/>
      <point x="297" y="887"/>
      <point x="279" y="876"/>
      <point x="261" y="867" type="curve"/>
      <point x="251" y="861"/>
      <point x="239" y="859"/>
      <point x="230" y="853" type="curve"/>
      <point x="199" y="835"/>
      <point x="165" y="802"/>
      <point x="142" y="779" type="curve"/>
      <point x="142" y="777"/>
      <point x="139" y="771"/>
      <point x="138" y="770" type="curve"/>
      <point x="136" y="767"/>
      <point x="114" y="743"/>
      <point x="112" y="740" type="curve"/>
      <point x="107" y="733"/>
      <point x="92" y="709"/>
      <point x="90" y="705" type="curve"/>
      <point x="87" y="699"/>
      <point x="70" y="653"/>
      <point x="68" y="648" type="curve"/>
      <point x="58" y="624"/>
      <point x="42" y="575"/>
      <point x="42" y="551" type="curve"/>
      <point x="42" y="411" type="line"/>
      <point x="42" y="408"/>
      <point x="48" y="375"/>
      <point x="51" y="363" type="curve"/>
      <point x="51" y="362"/>
      <point x="54" y="355"/>
      <point x="55" y="354" type="curve"/>
      <point x="56" y="352"/>
      <point x="63" y="331"/>
      <point x="64" y="328" type="curve"/>
      <point x="71" y="313"/>
      <point x="108" y="242"/>
      <point x="116" y="228" type="curve"/>
      <point x="124" y="218"/>
      <point x="164" y="178"/>
      <point x="173" y="171" type="curve"/>
      <point x="177" y="167"/>
      <point x="213" y="147"/>
      <point x="217" y="144" type="curve"/>
      <point x="218" y="143"/>
      <point x="224" y="137"/>
    </contour>
    <contour>
      <point x="681" y="186" type="curve"/>
      <point x="683" y="186"/>
      <point x="683" y="182"/>
      <point x="681" y="182" type="curve"/>
      <point x="679" y="182"/>
      <point x="679" y="186"/>
    </contour>
  </outline>
</glyph>
<glyph name="E" format="1">
  <advance width="723"/>
  <unicode hex="0045"/>
  <outline>
    <contour>
      <point x="41" y="34" type="curve"/>
      <point x="41" y="19"/>
      <point x="45" y="10"/>
      <point x="62" y="10" type="curve"/>
      <point x="609" y="10" type="line"/>
      <point x="640" y="14" type="line"/>
      <point x="649" y="15"/>
      <point x="652" y="32"/>
      <point x="651" y="38" type="curve"/>
      <point x="678" y="164" type="line"/>
      <point x="678" y="202" type="line"/>
      <point x="678" y="207"/>
      <point x="670" y="206"/>
      <point x="668" y="206" type="curve"/>
      <point x="634" y="206"/>
      <point x="632" y="187"/>
      <point x="616" y="164" type="curve"/>
      <point x="602" y="142"/>
      <point x="580" y="124"/>
      <point x="562" y="106" type="curve"/>
      <point x="559" y="103"/>
      <point x="547" y="94"/>
      <point x="544" y="92" type="curve"/>
      <point x="500" y="66"/>
      <point x="458" y="61"/>
      <point x="407" y="61" type="curve"/>
      <point x="394" y="61"/>
      <point x="358" y="61"/>
      <point x="356" y="62" type="curve"/>
      <point x="353" y="62"/>
      <point x="334" y="64"/>
      <point x="329" y="65" type="curve"/>
      <point x="326" y="65"/>
      <point x="314" y="70"/>
      <point x="312" y="72" type="curve"/>
      <point x="288" y="93"/>
      <point x="280" y="103"/>
      <point x="274" y="134" type="curve"/>
      <point x="270" y="154"/>
      <point x="270" y="178"/>
      <point x="267" y="199" type="curve"/>
      <point x="267" y="384" type="line"/>
      <point x="267" y="386"/>
      <point x="271" y="392"/>
      <point x="274" y="394" type="curve"/>
      <point x="276" y="394"/>
      <point x="288" y="394"/>
      <point x="291" y="394" type="curve"/>
      <point x="295" y="394"/>
      <point x="307" y="394"/>
      <point x="308" y="394" type="curve"/>
      <point x="329" y="393"/>
      <point x="425" y="391"/>
      <point x="445" y="390" type="curve"/>
      <point x="466" y="385"/>
      <point x="486" y="377"/>
      <point x="496" y="356" type="curve"/>
      <point x="500" y="350"/>
      <point x="509" y="328"/>
      <point x="510" y="325" type="curve"/>
      <point x="515" y="309"/>
      <point x="512" y="292"/>
      <point x="527" y="281" type="curve"/>
      <point x="530" y="281"/>
      <point x="540" y="280"/>
      <point x="543" y="280" type="curve"/>
      <point x="547" y="280"/>
      <point x="558" y="281"/>
      <point x="558" y="281" type="curve"/>
      <point x="558" y="281"/>
      <point x="568" y="285"/>
      <point x="568" y="288" type="curve"/>
      <point x="568" y="404" type="line"/>
      <point x="567" y="407"/>
      <point x="565" y="418"/>
      <point x="565" y="421" type="curve"/>
      <point x="565" y="426"/>
      <point x="568" y="467"/>
      <point x="568" y="473" type="curve"/>
      <point x="569" y="476"/>
      <point x="569" y="503"/>
      <point x="569" y="512" type="curve"/>
      <point x="569" y="519"/>
      <point x="569" y="537"/>
      <point x="568" y="538" type="curve"/>
      <point x="562" y="545" type="line"/>
      <point x="531" y="545" type="line"/>
      <point x="524" y="538" type="line"/>
      <point x="524" y="532"/>
      <point x="519" y="508"/>
      <point x="517" y="503" type="curve"/>
      <point x="516" y="502"/>
      <point x="502" y="478"/>
      <point x="496" y="469" type="curve"/>
      <point x="490" y="459"/>
      <point x="468" y="456"/>
      <point x="459" y="452" type="curve"/>
      <point x="456" y="451"/>
      <point x="441" y="443"/>
      <point x="438" y="442" type="curve"/>
      <point x="396" y="438"/>
      <point x="361" y="438"/>
      <point x="319" y="438" type="curve"/>
      <point x="308" y="438"/>
      <point x="279" y="438"/>
      <point x="277" y="438" type="curve"/>
      <point x="267" y="442" type="line"/>
      <point x="267" y="668" type="line"/>
      <point x="267" y="673"/>
      <point x="264" y="697"/>
      <point x="264" y="702" type="curve"/>
      <point x="264" y="702"/>
      <point x="264" y="705"/>
      <point x="264" y="706" type="curve"/>
      <point x="264" y="707"/>
      <point x="264" y="709"/>
      <point x="264" y="709" type="curve"/>
      <point x="264" y="715"/>
      <point x="267" y="729"/>
      <point x="267" y="729" type="curve"/>
      <point x="274" y="733" type="line"/>
      <point x="469" y="733" type="line"/>
      <point x="472" y="733"/>
      <point x="491" y="728"/>
      <point x="496" y="726" type="curve"/>
      <point x="526" y="714"/>
      <point x="546" y="688"/>
      <point x="562" y="661" type="curve"/>
      <point x="567" y="651"/>
      <point x="573" y="629"/>
      <point x="582" y="620" type="curve"/>
      <point x="585" y="617"/>
      <point x="591" y="616"/>
      <point x="596" y="616" type="curve"/>
      <point x="603" y="616"/>
      <point x="621" y="615"/>
      <point x="623" y="623" type="curve"/>
      <point x="623" y="628"/>
      <point x="623" y="649"/>
      <point x="623" y="654" type="curve"/>
      <point x="623" y="662"/>
      <point x="623" y="683"/>
      <point x="623" y="685" type="curve"/>
      <point x="623" y="698"/>
      <point x="620" y="761"/>
      <point x="620" y="774" type="curve"/>
      <point x="620" y="775"/>
      <point x="617" y="777"/>
      <point x="616" y="777" type="curve"/>
      <point x="614" y="778"/>
      <point x="602" y="781"/>
      <point x="599" y="781" type="curve"/>
      <point x="588" y="781"/>
      <point x="537" y="781"/>
      <point x="526" y="781" type="curve"/>
      <point x="507" y="781"/>
      <point x="456" y="781"/>
      <point x="452" y="781" type="curve"/>
      <point x="427" y="780"/>
      <point x="312" y="778"/>
      <point x="288" y="777" type="curve"/>
      <point x="286" y="776"/>
      <point x="279" y="774"/>
      <point x="277" y="774" type="curve"/>
      <point x="276" y="774"/>
      <point x="271" y="776"/>
      <point x="270" y="777" type="curve"/>
      <point x="268" y="778"/>
      <point x="255" y="778"/>
      <point x="252" y="778" type="curve"/>
      <point x="247" y="778"/>
      <point x="233" y="778"/>
      <point x="233" y="777" type="curve"/>
      <point x="232" y="777"/>
      <point x="224" y="774"/>
      <point x="223" y="774" type="curve"/>
      <point x="221" y="774"/>
      <point x="217" y="776"/>
      <point x="216" y="777" type="curve"/>
      <point x="212" y="777"/>
      <point x="194" y="778"/>
      <point x="190" y="778" type="curve"/>
      <point x="183" y="778"/>
      <point x="165" y="777"/>
      <point x="164" y="777" type="curve"/>
      <point x="161" y="777"/>
      <point x="137" y="774"/>
      <point x="133" y="774" type="curve"/>
      <point x="130" y="774"/>
      <point x="100" y="777"/>
      <point x="96" y="777" type="curve"/>
      <point x="95" y="777"/>
      <point x="77" y="778"/>
      <point x="70" y="778" type="curve"/>
      <point x="66" y="778"/>
      <point x="48" y="777"/>
      <point x="44" y="777" type="curve"/>
      <point x="40" y="771"/>
      <point x="41" y="766"/>
      <point x="41" y="759" type="curve"/>
      <point x="41" y="749"/>
      <point x="38" y="732"/>
      <point x="51" y="729" type="curve"/>
      <point x="54" y="729"/>
      <point x="79" y="727"/>
      <point x="82" y="726" type="curve"/>
      <point x="121" y="718"/>
      <point x="145" y="688"/>
      <point x="147" y="647" type="curve"/>
      <point x="147" y="642"/>
      <point x="147" y="601"/>
      <point x="147" y="596" type="curve"/>
      <point x="147" y="590"/>
      <point x="151" y="547"/>
      <point x="151" y="541" type="curve"/>
      <point x="151" y="503"/>
      <point x="150" y="323"/>
      <point x="149" y="284" type="curve"/>
      <point x="149" y="274" type="line"/>
      <point x="149" y="266"/>
      <point x="150" y="230"/>
      <point x="151" y="223" type="curve"/>
      <point x="151" y="222"/>
      <point x="151" y="217"/>
      <point x="151" y="215" type="curve"/>
      <point x="151" y="169"/>
      <point x="146" y="137"/>
      <point x="137" y="92" type="curve"/>
      <point x="118" y="62"/>
      <point x="85" y="55"/>
      <point x="51" y="55" type="curve"/>
      <point x="44" y="51"/>
      <point x="41" y="42"/>
    </contour>
  </outline>
</glyph>
<glyph name="F" format="1">
  <advance width="615"/>
  <unicode hex="0046"/>
  <outline>
    <contour>
      <point x="49" y="150" type="curve"/>
      <point x="64" y="151"/>
      <point x="130" y="151"/>
      <point x="145" y="150" type="curve"/>
      <point x="160" y="150"/>
      <point x="280" y="147"/>
      <point x="295" y="147" type="curve"/>
      <point x="302" y="147"/>
      <point x="333" y="149"/>
      <point x="339" y="150" type="curve"/>
      <point x="339" y="183" type="line"/>
      <point x="339" y="184"/>
      <point x="337" y="186"/>
      <point x="336" y="187" type="curve"/>
      <point x="325" y="194"/>
      <point x="318" y="191"/>
      <point x="303" y="194" type="curve"/>
      <point x="254" y="205"/>
      <point x="245" y="237"/>
      <point x="244" y="283" type="curve"/>
      <point x="244" y="286"/>
      <point x="241" y="417"/>
      <point x="240" y="470" type="curve"/>
      <point x="240" y="470"/>
      <point x="240" y="473"/>
      <point x="240" y="474" type="curve"/>
      <point x="240" y="480"/>
      <point x="240" y="480"/>
      <point x="244" y="488" type="curve"/>
      <point x="251" y="488"/>
      <point x="283" y="488"/>
      <point x="290" y="488" type="curve"/>
      <point x="301" y="488"/>
      <point x="334" y="488"/>
      <point x="336" y="488" type="curve"/>
      <point x="362" y="487"/>
      <point x="403" y="489"/>
      <point x="424" y="466" type="curve"/>
      <point x="432" y="456"/>
      <point x="448" y="439"/>
      <point x="453" y="426" type="curve"/>
      <point x="462" y="404"/>
      <point x="456" y="378"/>
      <point x="484" y="378" type="curve"/>
      <point x="490" y="378"/>
      <point x="506" y="379"/>
      <point x="504" y="389" type="curve"/>
      <point x="504" y="407"/>
      <point x="504" y="489"/>
      <point x="504" y="506" type="curve"/>
      <point x="505" y="513"/>
      <point x="508" y="566"/>
      <point x="508" y="572" type="curve"/>
      <point x="508" y="577"/>
      <point x="506" y="606"/>
      <point x="504" y="613" type="curve"/>
      <point x="504" y="615"/>
      <point x="501" y="620"/>
      <point x="501" y="620" type="curve"/>
      <point x="468" y="620" type="line"/>
      <point x="467" y="620"/>
      <point x="464" y="618"/>
      <point x="464" y="617" type="curve"/>
      <point x="463" y="614"/>
      <point x="458" y="593"/>
      <point x="457" y="591" type="curve"/>
      <point x="445" y="559"/>
      <point x="411" y="528"/>
      <point x="376" y="528" type="curve"/>
      <point x="244" y="528" type="line"/>
      <point x="244" y="528"/>
      <point x="241" y="541"/>
      <point x="240" y="547" type="curve"/>
      <point x="240" y="547"/>
      <point x="240" y="549"/>
      <point x="240" y="550" type="curve"/>
      <point x="240" y="551"/>
      <point x="240" y="554"/>
      <point x="240" y="554" type="curve"/>
      <point x="241" y="559"/>
      <point x="243" y="579"/>
      <point x="244" y="583" type="curve"/>
      <point x="244" y="782" type="line"/>
      <point x="438" y="782" type="line"/>
      <point x="486" y="767" type="line"/>
      <point x="488" y="766"/>
      <point x="504" y="751"/>
      <point x="508" y="745" type="curve"/>
      <point x="511" y="742"/>
      <point x="529" y="713"/>
      <point x="534" y="705" type="curve"/>
      <point x="542" y="690"/>
      <point x="544" y="675"/>
      <point x="563" y="675" type="curve"/>
      <point x="570" y="675"/>
      <point x="585" y="675"/>
      <point x="585" y="686" type="curve"/>
      <point x="585" y="691"/>
      <point x="585" y="713"/>
      <point x="585" y="717" type="curve"/>
      <point x="585" y="725"/>
      <point x="585" y="747"/>
      <point x="585" y="749" type="curve"/>
      <point x="585" y="757"/>
      <point x="582" y="799"/>
      <point x="581" y="807" type="curve"/>
      <point x="579" y="815"/>
      <point x="575" y="819"/>
      <point x="567" y="822" type="curve"/>
      <point x="527" y="822"/>
      <point x="342" y="822"/>
      <point x="303" y="822" type="curve"/>
      <point x="285" y="822"/>
      <point x="141" y="825"/>
      <point x="123" y="826" type="curve"/>
      <point x="122" y="826"/>
      <point x="112" y="826"/>
      <point x="109" y="826" type="curve"/>
      <point x="106" y="826"/>
      <point x="97" y="826"/>
      <point x="97" y="826" type="curve"/>
      <point x="89" y="825"/>
      <point x="53" y="823"/>
      <point x="46" y="822" type="curve"/>
      <point x="41" y="817"/>
      <point x="42" y="810"/>
      <point x="42" y="803" type="curve"/>
      <point x="42" y="773"/>
      <point x="76" y="788"/>
      <point x="97" y="774" type="curve"/>
      <point x="118" y="760"/>
      <point x="134" y="749"/>
      <point x="137" y="723" type="curve"/>
      <point x="139" y="715"/>
      <point x="141" y="686"/>
      <point x="141" y="683" type="curve"/>
      <point x="141" y="308" type="line"/>
      <point x="141" y="264"/>
      <point x="142" y="210"/>
      <point x="90" y="194" type="curve"/>
      <point x="87" y="194"/>
      <point x="63" y="191"/>
      <point x="60" y="191" type="curve"/>
      <point x="44" y="188"/>
      <point x="45" y="177"/>
      <point x="42" y="161" type="curve"/>
      <point x="42" y="161"/>
      <point x="42" y="160"/>
      <point x="42" y="159" type="curve"/>
      <point x="42" y="159"/>
      <point x="42" y="158"/>
      <point x="42" y="158" type="curve"/>
      <point x="43" y="157"/>
      <point x="48" y="151"/>
    </contour>
    <contour>
      <point x="365" y="721" type="curve"/>
      <point x="363" y="721"/>
      <point x="363" y="717"/>
      <point x="365" y="717" type="curve"/>
      <point x="367" y="717"/>
      <point x="367" y="721"/>
    </contour>
  </outline>
</glyph>
<glyph name="R" format="1">
  <advance width="738"/>
  <unicode hex="0052"/>
  <outline>
    <contour>
      <point x="40" y="165" type="curve"/>
      <point x="40" y="154"/>
      <point x="42" y="147"/>
      <point x="55" y="147" type="curve"/>
      <point x="326" y="147" type="line"/>
      <point x="326" y="191" type="line"/>
      <point x="286" y="198" type="line"/>
      <point x="284" y="199"/>
      <point x="281" y="203"/>
      <point x="281" y="205" type="curve"/>
      <point x="265" y="205"/>
      <point x="256" y="215"/>
      <point x="246" y="228" type="curve"/>
      <point x="245" y="228"/>
      <point x="242" y="234"/>
      <point x="242" y="235" type="curve"/>
      <point x="241" y="240"/>
      <point x="238" y="261"/>
      <point x="238" y="264" type="curve"/>
      <point x="238" y="459" type="line"/>
      <point x="238" y="463"/>
      <point x="249" y="466"/>
      <point x="253" y="466" type="curve"/>
      <point x="286" y="466"/>
      <point x="317" y="448"/>
      <point x="337" y="422" type="curve"/>
      <point x="517" y="191" type="line"/>
      <point x="557" y="150" type="line"/>
      <point x="690" y="147" type="line"/>
      <point x="702" y="146"/>
      <point x="704" y="155"/>
      <point x="704" y="165" type="curve"/>
      <point x="704" y="195"/>
      <point x="680" y="195"/>
      <point x="657" y="209" type="curve"/>
      <point x="653" y="212"/>
      <point x="635" y="224"/>
      <point x="631" y="228" type="curve"/>
      <point x="616" y="240"/>
      <point x="606" y="254"/>
      <point x="594" y="268" type="curve"/>
      <point x="589" y="274"/>
      <point x="551" y="321"/>
      <point x="546" y="327" type="curve"/>
      <point x="546" y="327"/>
      <point x="540" y="333"/>
      <point x="539" y="334" type="curve"/>
      <point x="538" y="336"/>
      <point x="529" y="351"/>
      <point x="528" y="352" type="curve"/>
      <point x="526" y="354"/>
      <point x="511" y="369"/>
      <point x="510" y="371" type="curve"/>
      <point x="505" y="376"/>
      <point x="470" y="421"/>
      <point x="466" y="426" type="curve"/>
      <point x="459" y="433"/>
      <point x="426" y="467"/>
      <point x="418" y="473" type="curve"/>
      <point x="488" y="503" type="line"/>
      <point x="490" y="508"/>
      <point x="498" y="508"/>
      <point x="502" y="510" type="curve"/>
      <point x="506" y="512"/>
      <point x="521" y="522"/>
      <point x="524" y="525" type="curve"/>
      <point x="560" y="553"/>
      <point x="576" y="604"/>
      <point x="576" y="648" type="curve"/>
      <point x="576" y="720"/>
      <point x="513" y="786"/>
      <point x="447" y="807" type="curve"/>
      <point x="420" y="817"/>
      <point x="386" y="826"/>
      <point x="356" y="826" type="curve"/>
      <point x="44" y="826" type="line"/>
      <point x="44" y="789" type="line"/>
      <point x="44" y="778"/>
      <point x="94" y="779"/>
      <point x="106" y="767" type="curve"/>
      <point x="121" y="752"/>
      <point x="132" y="730"/>
      <point x="132" y="708" type="curve"/>
      <point x="132" y="264" type="line"/>
      <point x="132" y="232"/>
      <point x="106" y="199"/>
      <point x="73" y="194" type="curve"/>
      <point x="66" y="194"/>
      <point x="48" y="191"/>
      <point x="47" y="191" type="curve"/>
      <point x="46" y="191"/>
      <point x="44" y="188"/>
      <point x="44" y="187" type="curve"/>
      <point x="43" y="183"/>
      <point x="40" y="168"/>
    </contour>
    <contour>
      <point x="238" y="517" type="curve"/>
      <point x="238" y="526"/>
      <point x="238" y="564"/>
      <point x="238" y="572" type="curve"/>
      <point x="238" y="587"/>
      <point x="238" y="625"/>
      <point x="238" y="628" type="curve"/>
      <point x="238" y="634"/>
      <point x="242" y="687"/>
      <point x="242" y="694" type="curve"/>
      <point x="242" y="699"/>
      <point x="239" y="746"/>
      <point x="238" y="752" type="curve"/>
      <point x="238" y="753"/>
      <point x="238" y="760"/>
      <point x="238" y="762" type="curve"/>
      <point x="238" y="770"/>
      <point x="238" y="774"/>
      <point x="242" y="782" type="curve"/>
      <point x="245" y="782"/>
      <point x="262" y="782"/>
      <point x="266" y="782" type="curve"/>
      <point x="317" y="782"/>
      <point x="366" y="778"/>
      <point x="407" y="745" type="curve"/>
      <point x="442" y="717"/>
      <point x="458" y="680"/>
      <point x="458" y="635" type="curve"/>
      <point x="458" y="623"/>
      <point x="452" y="601"/>
      <point x="447" y="591" type="curve"/>
      <point x="445" y="586"/>
      <point x="435" y="565"/>
      <point x="433" y="561" type="curve"/>
      <point x="432" y="561"/>
      <point x="427" y="556"/>
      <point x="425" y="554" type="curve"/>
      <point x="375" y="510"/>
      <point x="316" y="510"/>
      <point x="251" y="510" type="curve"/>
      <point x="246" y="510"/>
      <point x="241" y="514"/>
    </contour>
  </outline>
</glyph>
<glyph name="T" format="1">
  <advance width="795"/>
  <unicode hex="0054"/>
  <outline>
    <contour>
      <point x="233" y="30" type="curve"/>
      <point x="233" y="20"/>
      <point x="238" y="10"/>
      <point x="250" y="10" type="curve"/>
      <point x="555" y="10" type="line"/>
      <point x="567" y="10"/>
      <point x="566" y="26"/>
      <point x="566" y="33" type="curve"/>
      <point x="566" y="41"/>
      <point x="566" y="50"/>
      <point x="559" y="55" type="curve"/>
      <point x="552" y="56"/>
      <point x="524" y="60"/>
      <point x="517" y="62" type="curve"/>
      <point x="512" y="63"/>
      <point x="497" y="69"/>
      <point x="493" y="72" type="curve"/>
      <point x="487" y="77"/>
      <point x="468" y="96"/>
      <point x="466" y="99" type="curve"/>
      <point x="465" y="101"/>
      <point x="460" y="118"/>
      <point x="459" y="123" type="curve"/>
      <point x="458" y="130"/>
      <point x="456" y="159"/>
      <point x="456" y="164" type="curve"/>
      <point x="456" y="729" type="line"/>
      <point x="466" y="740" type="line"/>
      <point x="583" y="740" type="line"/>
      <point x="586" y="740"/>
      <point x="615" y="733"/>
      <point x="624" y="729" type="curve"/>
      <point x="626" y="729"/>
      <point x="638" y="721"/>
      <point x="641" y="719" type="curve"/>
      <point x="646" y="715"/>
      <point x="668" y="693"/>
      <point x="672" y="688" type="curve"/>
      <point x="674" y="685"/>
      <point x="691" y="661"/>
      <point x="696" y="654" type="curve"/>
      <point x="707" y="636"/>
      <point x="713" y="609"/>
      <point x="739" y="609" type="curve"/>
      <point x="747" y="609"/>
      <point x="752" y="609"/>
      <point x="757" y="616" type="curve"/>
      <point x="757" y="619"/>
      <point x="758" y="629"/>
      <point x="758" y="632" type="curve"/>
      <point x="758" y="636"/>
      <point x="757" y="646"/>
      <point x="757" y="647" type="curve"/>
      <point x="756" y="655"/>
      <point x="748" y="715"/>
      <point x="747" y="723" type="curve"/>
      <point x="747" y="726"/>
      <point x="747" y="750"/>
      <point x="747" y="753" type="curve"/>
      <point x="747" y="755"/>
      <point x="744" y="767"/>
      <point x="743" y="771" type="curve"/>
      <point x="743" y="773"/>
      <point x="741" y="777"/>
      <point x="740" y="777" type="curve"/>
      <point x="682" y="781" type="line"/>
      <point x="96" y="781" type="line"/>
      <point x="96" y="782"/>
      <point x="91" y="784"/>
      <point x="89" y="784" type="curve"/>
      <point x="89" y="784"/>
      <point x="83" y="781"/>
      <point x="83" y="781" type="curve"/>
      <point x="75" y="780"/>
      <point x="56" y="784"/>
      <point x="52" y="774" type="curve"/>
      <point x="51" y="765"/>
      <point x="46" y="724"/>
      <point x="45" y="716" type="curve"/>
      <point x="42" y="689"/>
      <point x="38" y="662"/>
      <point x="38" y="635" type="curve"/>
      <point x="38" y="628"/>
      <point x="37" y="613"/>
      <point x="45" y="610" type="curve"/>
      <point x="47" y="609"/>
      <point x="56" y="609"/>
      <point x="59" y="609" type="curve"/>
      <point x="70" y="609"/>
      <point x="79" y="609"/>
      <point x="86" y="620" type="curve"/>
      <point x="88" y="623"/>
      <point x="104" y="654"/>
      <point x="106" y="658" type="curve"/>
      <point x="108" y="659"/>
      <point x="120" y="676"/>
      <point x="124" y="682" type="curve"/>
      <point x="131" y="691"/>
      <point x="138" y="702"/>
      <point x="148" y="709" type="curve"/>
      <point x="152" y="712"/>
      <point x="176" y="727"/>
      <point x="182" y="729" type="curve"/>
      <point x="184" y="730"/>
      <point x="200" y="736"/>
      <point x="202" y="736" type="curve"/>
      <point x="203" y="737"/>
      <point x="209" y="740"/>
      <point x="209" y="740" type="curve"/>
      <point x="210" y="740"/>
      <point x="218" y="737"/>
      <point x="220" y="736" type="curve"/>
      <point x="220" y="736"/>
      <point x="221" y="736"/>
      <point x="221" y="736" type="curve"/>
      <point x="234" y="736"/>
      <point x="246" y="740"/>
      <point x="259" y="740" type="curve"/>
      <point x="262" y="740"/>
      <point x="270" y="740"/>
      <point x="271" y="740" type="curve"/>
      <point x="272" y="740"/>
      <point x="283" y="736"/>
      <point x="285" y="736" type="curve"/>
      <point x="292" y="736"/>
      <point x="325" y="736"/>
      <point x="333" y="736" type="curve"/>
      <point x="335" y="735"/>
      <point x="339" y="729"/>
      <point x="339" y="726" type="curve"/>
      <point x="339" y="363" type="line"/>
      <point x="340" y="358"/>
      <point x="343" y="337"/>
      <point x="343" y="332" type="curve"/>
      <point x="343" y="326"/>
      <point x="339" y="277"/>
      <point x="339" y="271" type="curve"/>
      <point x="339" y="262"/>
      <point x="342" y="197"/>
      <point x="343" y="188" type="curve"/>
      <point x="343" y="188"/>
      <point x="343" y="185"/>
      <point x="343" y="185" type="curve"/>
      <point x="343" y="184"/>
      <point x="343" y="182"/>
      <point x="343" y="182" type="curve"/>
      <point x="342" y="171"/>
      <point x="337" y="120"/>
      <point x="336" y="110" type="curve"/>
      <point x="329" y="85"/>
      <point x="308" y="61"/>
      <point x="281" y="58" type="curve"/>
      <point x="272" y="57"/>
      <point x="248" y="55"/>
      <point x="247" y="55" type="curve"/>
      <point x="235" y="53"/>
      <point x="233" y="40"/>
    </contour>
    <contour>
      <point x="72" y="426" type="curve"/>
      <point x="71" y="426"/>
      <point x="71" y="423"/>
      <point x="72" y="423" type="curve"/>
      <point x="74" y="423"/>
      <point x="74" y="426"/>
    </contour>
    <contour>
      <point x="298" y="541" type="line"/>
      <point x="302" y="538" type="line"/>
      <point x="302" y="541" type="line"/>
    </contour>
  </outline>
</glyph>
<glyph name="Y" format="1">
  <advance width="788"/>
  <unicode hex="0059"/>
  <outline>
    <contour>
      <point x="233" y="38" type="curve"/>
      <point x="233" y="32"/>
      <point x="233" y="26"/>
      <point x="237" y="21" type="curve"/>
      <point x="239" y="17"/>
      <point x="246" y="10"/>
      <point x="247" y="10" type="curve"/>
      <point x="552" y="10" type="line"/>
      <point x="559" y="17" type="line"/>
      <point x="559" y="17"/>
      <point x="559" y="25"/>
      <point x="559" y="28" type="curve"/>
      <point x="559" y="37"/>
      <point x="561" y="49"/>
      <point x="552" y="55" type="curve"/>
      <point x="502" y="57"/>
      <point x="477" y="65"/>
      <point x="459" y="113" type="curve"/>
      <point x="458" y="116"/>
      <point x="456" y="125"/>
      <point x="456" y="127" type="curve"/>
      <point x="455" y="132"/>
      <point x="456" y="170"/>
      <point x="456" y="175" type="curve"/>
      <point x="456" y="179"/>
      <point x="453" y="212"/>
      <point x="452" y="216" type="curve"/>
      <point x="452" y="218"/>
      <point x="452" y="260"/>
      <point x="452" y="276" type="curve"/>
      <point x="452" y="285"/>
      <point x="452" y="327"/>
      <point x="452" y="336" type="curve"/>
      <point x="454" y="351"/>
      <point x="461" y="359"/>
      <point x="470" y="370" type="curve"/>
      <point x="474" y="375"/>
      <point x="471" y="377"/>
      <point x="476" y="380" type="curve"/>
      <point x="486" y="398"/>
      <point x="534" y="479"/>
      <point x="545" y="497" type="curve"/>
      <point x="558" y="517"/>
      <point x="573" y="537"/>
      <point x="586" y="558" type="curve"/>
      <point x="611" y="600"/>
      <point x="633" y="648"/>
      <point x="665" y="685" type="curve"/>
      <point x="670" y="691"/>
      <point x="686" y="707"/>
      <point x="689" y="709" type="curve"/>
      <point x="692" y="711"/>
      <point x="721" y="725"/>
      <point x="730" y="729" type="curve"/>
      <point x="731" y="730"/>
      <point x="742" y="732"/>
      <point x="743" y="733" type="curve"/>
      <point x="746" y="734"/>
      <point x="750" y="736"/>
      <point x="750" y="736" type="curve"/>
      <point x="750" y="771" type="line"/>
      <point x="750" y="773"/>
      <point x="740" y="777"/>
      <point x="740" y="777" type="curve"/>
      <point x="737" y="777"/>
      <point x="723" y="778"/>
      <point x="720" y="778" type="curve"/>
      <point x="715" y="778"/>
      <point x="700" y="777"/>
      <point x="699" y="777" type="curve"/>
      <point x="685" y="777"/>
      <point x="617" y="775"/>
      <point x="603" y="774" type="curve"/>
      <point x="596" y="777" type="line"/>
      <point x="490" y="777" type="line"/>
      <point x="483" y="777"/>
      <point x="483" y="753"/>
      <point x="483" y="746" type="curve"/>
      <point x="483" y="742"/>
      <point x="482" y="738"/>
      <point x="487" y="736" type="curve"/>
      <point x="506" y="728"/>
      <point x="528" y="733"/>
      <point x="548" y="723" type="curve"/>
      <point x="554" y="720"/>
      <point x="559" y="709"/>
      <point x="562" y="705" type="curve"/>
      <point x="569" y="696"/>
      <point x="573" y="684"/>
      <point x="573" y="671" type="curve"/>
      <point x="573" y="670"/>
      <point x="572" y="665"/>
      <point x="572" y="664" type="curve"/>
      <point x="570" y="655"/>
      <point x="553" y="612"/>
      <point x="548" y="603" type="curve"/>
      <point x="540" y="586"/>
      <point x="497" y="509"/>
      <point x="487" y="493" type="curve"/>
      <point x="481" y="490"/>
      <point x="482" y="483"/>
      <point x="476" y="479" type="curve"/>
      <point x="435" y="408" type="line"/>
      <point x="434" y="404"/>
      <point x="431" y="401"/>
      <point x="427" y="401" type="curve"/>
      <point x="426" y="401"/>
      <point x="425" y="401"/>
      <point x="425" y="401" type="curve"/>
      <point x="423" y="403"/>
      <point x="416" y="412"/>
      <point x="415" y="414" type="curve"/>
      <point x="414" y="415"/>
      <point x="412" y="417"/>
      <point x="411" y="418" type="curve"/>
      <point x="356" y="510" type="line"/>
      <point x="339" y="520"/>
      <point x="343" y="552"/>
      <point x="326" y="562" type="curve"/>
      <point x="319" y="575"/>
      <point x="287" y="640"/>
      <point x="281" y="654" type="curve"/>
      <point x="279" y="658"/>
      <point x="275" y="672"/>
      <point x="274" y="675" type="curve"/>
      <point x="274" y="675"/>
      <point x="274" y="684"/>
      <point x="274" y="687" type="curve"/>
      <point x="274" y="728"/>
      <point x="317" y="731"/>
      <point x="350" y="736" type="curve"/>
      <point x="353" y="740" type="line"/>
      <point x="353" y="771" type="line"/>
      <point x="353" y="773"/>
      <point x="343" y="777"/>
      <point x="343" y="777" type="curve"/>
      <point x="69" y="777" type="line"/>
      <point x="41" y="774" type="line"/>
      <point x="38" y="773"/>
      <point x="38" y="765"/>
      <point x="38" y="762" type="curve"/>
      <point x="38" y="753"/>
      <point x="39" y="741"/>
      <point x="48" y="736" type="curve"/>
      <point x="54" y="735"/>
      <point x="80" y="728"/>
      <point x="86" y="726" type="curve"/>
      <point x="88" y="725"/>
      <point x="102" y="718"/>
      <point x="106" y="716" type="curve"/>
      <point x="107" y="716"/>
      <point x="109" y="713"/>
      <point x="110" y="712" type="curve"/>
      <point x="114" y="707"/>
      <point x="126" y="690"/>
      <point x="127" y="688" type="curve"/>
      <point x="220" y="531" type="line"/>
      <point x="225" y="528"/>
      <point x="228" y="516"/>
      <point x="230" y="514" type="curve"/>
      <point x="256" y="472"/>
      <point x="285" y="430"/>
      <point x="309" y="387" type="curve"/>
      <point x="317" y="372"/>
      <point x="321" y="353"/>
      <point x="333" y="339" type="curve"/>
      <point x="334" y="328"/>
      <point x="339" y="275"/>
      <point x="339" y="264" type="curve"/>
      <point x="340" y="262"/>
      <point x="340" y="240"/>
      <point x="340" y="231" type="curve"/>
      <point x="340" y="203"/>
      <point x="339" y="178"/>
      <point x="336" y="151" type="curve"/>
      <point x="335" y="141"/>
      <point x="333" y="117"/>
      <point x="333" y="116" type="curve"/>
      <point x="329" y="107"/>
      <point x="312" y="78"/>
      <point x="309" y="75" type="curve"/>
      <point x="295" y="65" type="line"/>
      <point x="288" y="64"/>
      <point x="257" y="57"/>
      <point x="250" y="55" type="curve"/>
      <point x="241" y="52"/>
      <point x="233" y="49"/>
    </contour>
    <contour>
      <point x="466" y="471" type="curve"/>
      <point x="464" y="471"/>
      <point x="464" y="467"/>
      <point x="466" y="467" type="curve"/>
      <point x="468" y="467"/>
      <point x="468" y="471"/>
    </contour>
  </outline>
</glyph>
<glyph name="b" format="1">
  <advance width="603"/>
  <unicode hex="0062"/>
  <outline>
    <contour>
      <point x="95" y="137" type="curve"/>
      <point x="109" y="129"/>
      <point x="173" y="98"/>
      <point x="188" y="93" type="curve"/>
      <point x="199" y="89"/>
      <point x="254" y="77"/>
      <point x="267" y="75" type="curve"/>
      <point x="269" y="75"/>
      <point x="298" y="74"/>
      <point x="308" y="74" type="curve"/>
      <point x="391" y="74"/>
      <point x="467" y="113"/>
      <point x="515" y="181" type="curve"/>
      <point x="522" y="191"/>
      <point x="544" y="225"/>
      <point x="546" y="230" type="curve"/>
      <point x="547" y="234"/>
      <point x="560" y="274"/>
      <point x="563" y="287" type="curve"/>
      <point x="571" y="315"/>
      <point x="568" y="343"/>
      <point x="568" y="372" type="curve"/>
      <point x="568" y="385"/>
      <point x="568" y="418"/>
      <point x="568" y="419" type="curve"/>
      <point x="567" y="426"/>
      <point x="558" y="463"/>
      <point x="554" y="472" type="curve"/>
      <point x="538" y="517"/>
      <point x="508" y="562"/>
      <point x="471" y="592" type="curve"/>
      <point x="468" y="593"/>
      <point x="447" y="603"/>
      <point x="444" y="605" type="curve"/>
      <point x="434" y="610"/>
      <point x="425" y="617"/>
      <point x="413" y="618" type="curve"/>
      <point x="409" y="619"/>
      <point x="373" y="622"/>
      <point x="369" y="623" type="curve"/>
      <point x="368" y="623"/>
      <point x="356" y="623"/>
      <point x="352" y="623" type="curve"/>
      <point x="328" y="623"/>
      <point x="311" y="612"/>
      <point x="290" y="605" type="curve"/>
      <point x="289" y="605"/>
      <point x="282" y="605"/>
      <point x="281" y="605" type="curve"/>
      <point x="280" y="605"/>
      <point x="273" y="602"/>
      <point x="272" y="600" type="curve"/>
      <point x="266" y="597"/>
      <point x="220" y="564"/>
      <point x="214" y="561" type="curve"/>
      <point x="211" y="558"/>
      <point x="208" y="556"/>
      <point x="203" y="556" type="curve"/>
      <point x="200" y="556"/>
      <point x="199" y="557"/>
      <point x="197" y="561" type="curve"/>
      <point x="197" y="563"/>
      <point x="197" y="576"/>
      <point x="197" y="578" type="curve"/>
      <point x="197" y="614"/>
      <point x="201" y="649"/>
      <point x="201" y="685" type="curve"/>
      <point x="201" y="696"/>
      <point x="197" y="706"/>
      <point x="197" y="717" type="curve"/>
      <point x="197" y="718"/>
      <point x="197" y="719"/>
      <point x="197" y="720" type="curve"/>
      <point x="197" y="722"/>
      <point x="201" y="743"/>
      <point x="201" y="746" type="curve"/>
      <point x="201" y="752"/>
      <point x="201" y="798"/>
      <point x="201" y="804" type="curve"/>
      <point x="201" y="812"/>
      <point x="205" y="883"/>
      <point x="206" y="892" type="curve"/>
      <point x="206" y="892"/>
      <point x="206" y="896"/>
      <point x="206" y="897" type="curve"/>
      <point x="206" y="907"/>
      <point x="191" y="906"/>
      <point x="185" y="906" type="curve"/>
      <point x="182" y="906"/>
      <point x="175" y="905"/>
      <point x="175" y="905" type="curve"/>
      <point x="172" y="904"/>
      <point x="151" y="893"/>
      <point x="148" y="892" type="curve"/>
      <point x="113" y="878"/>
      <point x="74" y="870"/>
      <point x="38" y="857" type="curve"/>
      <point x="33" y="851"/>
      <point x="33" y="845"/>
      <point x="33" y="838" type="curve"/>
      <point x="33" y="813"/>
      <point x="89" y="804"/>
      <point x="104" y="781" type="curve"/>
      <point x="104" y="767"/>
      <point x="104" y="701"/>
      <point x="104" y="687" type="curve"/>
      <point x="104" y="587"/>
      <point x="103" y="488"/>
      <point x="100" y="389" type="curve"/>
      <point x="97" y="309"/>
      <point x="91" y="230"/>
      <point x="91" y="151" type="curve"/>
      <point x="91" y="145"/>
      <point x="90" y="142"/>
    </contour>
    <contour>
      <point x="267" y="534" type="curve"/>
      <point x="273" y="534"/>
      <point x="299" y="535"/>
      <point x="305" y="535" type="curve"/>
      <point x="323" y="535"/>
      <point x="346" y="536"/>
      <point x="365" y="530" type="curve"/>
      <point x="447" y="500"/>
      <point x="480" y="399"/>
      <point x="480" y="319" type="curve"/>
      <point x="480" y="292"/>
      <point x="477" y="267"/>
      <point x="471" y="238" type="curve"/>
      <point x="466" y="217"/>
      <point x="449" y="192"/>
      <point x="435" y="177" type="curve"/>
      <point x="403" y="139"/>
      <point x="378" y="123"/>
      <point x="328" y="123" type="curve"/>
      <point x="268" y="123"/>
      <point x="197" y="162"/>
      <point x="197" y="230" type="curve"/>
      <point x="197" y="490" type="line"/>
      <point x="197" y="509"/>
      <point x="252" y="531"/>
    </contour>
    <contour>
      <point x="188" y="146" type="curve"/>
      <point x="187" y="143"/>
      <point x="184" y="143"/>
      <point x="184" y="146" type="curve"/>
      <point x="183" y="148"/>
      <point x="189" y="148"/>
    </contour>
    <contour>
      <point x="148" y="225" type="line"/>
      <point x="166" y="225" type="line"/>
      <point x="164" y="219"/>
      <point x="151" y="219"/>
      <point x="148" y="219" type="curve"/>
    </contour>
    <contour>
      <point x="501" y="479" type="curve"/>
      <point x="504" y="479"/>
      <point x="504" y="475"/>
      <point x="501" y="475" type="curve"/>
      <point x="499" y="475"/>
      <point x="499" y="479"/>
    </contour>
    <contour>
      <point x="338" y="563" type="curve"/>
      <point x="340" y="563"/>
      <point x="340" y="558"/>
      <point x="338" y="558" type="curve"/>
      <point x="336" y="558"/>
      <point x="336" y="563"/>
    </contour>
    <contour>
      <point x="184" y="594" type="curve"/>
      <point x="186" y="594"/>
      <point x="186" y="589"/>
      <point x="184" y="589" type="curve"/>
      <point x="181" y="589"/>
      <point x="181" y="594"/>
    </contour>
    <contour>
      <point x="157" y="669" type="curve"/>
      <point x="159" y="669"/>
      <point x="159" y="664"/>
      <point x="157" y="664" type="curve"/>
      <point x="155" y="664"/>
      <point x="155" y="669"/>
    </contour>
    <contour>
      <point x="153" y="819" type="curve"/>
      <point x="155" y="819"/>
      <point x="155" y="815"/>
      <point x="153" y="815" type="curve"/>
      <point x="150" y="815"/>
      <point x="150" y="819"/>
    </contour>
  </outline>
</glyph>
<glyph name="h" format="1">
  <advance width="591"/>
  <unicode hex="0068"/>
  <outline>
    <contour>
      <point x="30" y="212" type="curve"/>
      <point x="30" y="209"/>
      <point x="30" y="202"/>
      <point x="30" y="202" type="curve"/>
      <point x="37" y="195" type="line"/>
      <point x="274" y="195" type="line"/>
      <point x="274" y="195"/>
      <point x="277" y="200"/>
      <point x="277" y="202" type="curve"/>
      <point x="277" y="203"/>
      <point x="277" y="212"/>
      <point x="277" y="216" type="curve"/>
      <point x="277" y="218"/>
      <point x="277" y="227"/>
      <point x="277" y="229" type="curve"/>
      <point x="270" y="239"/>
      <point x="255" y="237"/>
      <point x="246" y="240" type="curve"/>
      <point x="216" y="249"/>
      <point x="199" y="265"/>
      <point x="198" y="298" type="curve"/>
      <point x="198" y="315"/>
      <point x="195" y="452"/>
      <point x="195" y="469" type="curve"/>
      <point x="195" y="472"/>
      <point x="195" y="512"/>
      <point x="195" y="526" type="curve"/>
      <point x="195" y="534"/>
      <point x="195" y="574"/>
      <point x="195" y="582" type="curve"/>
      <point x="199" y="603"/>
      <point x="227" y="613"/>
      <point x="243" y="620" type="curve"/>
      <point x="252" y="623"/>
      <point x="281" y="633"/>
      <point x="284" y="634" type="curve"/>
      <point x="284" y="634"/>
      <point x="299" y="634"/>
      <point x="305" y="634" type="curve"/>
      <point x="323" y="634"/>
      <point x="347" y="636"/>
      <point x="363" y="623" type="curve"/>
      <point x="374" y="615"/>
      <point x="383" y="605"/>
      <point x="390" y="592" type="curve"/>
      <point x="392" y="588"/>
      <point x="400" y="575"/>
      <point x="400" y="568" type="curve"/>
      <point x="401" y="560"/>
      <point x="404" y="529"/>
      <point x="404" y="524" type="curve"/>
      <point x="404" y="284" type="line"/>
      <point x="404" y="251"/>
      <point x="362" y="235"/>
      <point x="335" y="236" type="curve"/>
      <point x="332" y="233" type="line"/>
      <point x="332" y="199" type="line"/>
      <point x="332" y="198"/>
      <point x="339" y="195"/>
      <point x="342" y="195" type="curve"/>
      <point x="342" y="195"/>
      <point x="355" y="195"/>
      <point x="360" y="195" type="curve"/>
      <point x="365" y="195"/>
      <point x="381" y="195"/>
      <point x="383" y="195" type="curve"/>
      <point x="411" y="196"/>
      <point x="540" y="198"/>
      <point x="568" y="199" type="curve"/>
      <point x="572" y="200"/>
      <point x="572" y="202"/>
      <point x="572" y="205" type="curve"/>
      <point x="572" y="219"/>
      <point x="573" y="236"/>
      <point x="558" y="240" type="curve"/>
      <point x="556" y="240"/>
      <point x="539" y="243"/>
      <point x="537" y="243" type="curve"/>
      <point x="506" y="252"/>
      <point x="498" y="287"/>
      <point x="496" y="315" type="curve"/>
      <point x="497" y="336"/>
      <point x="497" y="434"/>
      <point x="496" y="455" type="curve"/>
      <point x="496" y="467"/>
      <point x="493" y="557"/>
      <point x="493" y="568" type="curve"/>
      <point x="493" y="571"/>
      <point x="493" y="593"/>
      <point x="493" y="596" type="curve"/>
      <point x="492" y="598"/>
      <point x="488" y="615"/>
      <point x="486" y="620" type="curve"/>
      <point x="484" y="626"/>
      <point x="476" y="633"/>
      <point x="479" y="640" type="curve"/>
      <point x="447" y="688"/>
      <point x="415" y="710"/>
      <point x="356" y="710" type="curve"/>
      <point x="295" y="710"/>
      <point x="261" y="680"/>
      <point x="212" y="647" type="curve"/>
      <point x="211" y="647"/>
      <point x="202" y="640"/>
      <point x="200" y="640" type="curve"/>
      <point x="198" y="640"/>
      <point x="196" y="641"/>
      <point x="195" y="644" type="curve"/>
      <point x="194" y="647"/>
      <point x="191" y="659"/>
      <point x="191" y="661" type="curve"/>
      <point x="191" y="666"/>
      <point x="194" y="687"/>
      <point x="195" y="692" type="curve"/>
      <point x="195" y="938" type="line"/>
      <point x="196" y="942"/>
      <point x="198" y="959"/>
      <point x="198" y="962" type="curve"/>
      <point x="198" y="974"/>
      <point x="185" y="977"/>
      <point x="177" y="977" type="curve"/>
      <point x="175" y="977"/>
      <point x="168" y="976"/>
      <point x="167" y="976" type="curve"/>
      <point x="58" y="932" type="line"/>
      <point x="46" y="930"/>
      <point x="27" y="927"/>
      <point x="27" y="911" type="curve"/>
      <point x="27" y="905"/>
      <point x="28" y="897"/>
      <point x="34" y="894" type="curve"/>
      <point x="92" y="860" type="line"/>
      <point x="96" y="857"/>
      <point x="101" y="851"/>
      <point x="102" y="846" type="curve"/>
      <point x="102" y="833"/>
      <point x="102" y="770"/>
      <point x="102" y="757" type="curve"/>
      <point x="103" y="747"/>
      <point x="106" y="667"/>
      <point x="106" y="658" type="curve"/>
      <point x="106" y="652"/>
      <point x="106" y="544"/>
      <point x="106" y="503" type="curve"/>
      <point x="106" y="480"/>
      <point x="106" y="372"/>
      <point x="106" y="349" type="curve"/>
      <point x="106" y="341"/>
      <point x="104" y="300"/>
      <point x="102" y="291" type="curve"/>
      <point x="102" y="287"/>
      <point x="97" y="273"/>
      <point x="95" y="271" type="curve"/>
      <point x="94" y="268"/>
      <point x="77" y="252"/>
      <point x="72" y="247" type="curve"/>
      <point x="71" y="246"/>
      <point x="66" y="244"/>
      <point x="65" y="243" type="curve"/>
      <point x="62" y="242"/>
      <point x="43" y="237"/>
      <point x="41" y="236" type="curve"/>
      <point x="29" y="232"/>
      <point x="30" y="223"/>
    </contour>
    <contour>
      <point x="181" y="820" type="curve"/>
      <point x="183" y="820"/>
      <point x="183" y="817"/>
      <point x="181" y="817" type="curve"/>
      <point x="179" y="817"/>
      <point x="179" y="820"/>
    </contour>
  </outline>
</glyph>
<glyph name="n" format="1">
  <advance width="587"/>
  <unicode hex="006E"/>
  <outline>
    <contour>
      <point x="30" y="14" type="curve"/>
      <point x="30" y="12"/>
      <point x="30" y="7"/>
      <point x="30" y="7" type="curve"/>
      <point x="31" y="5"/>
      <point x="35" y="0"/>
      <point x="37" y="0" type="curve"/>
      <point x="273" y="0" type="line"/>
      <point x="278" y="0"/>
      <point x="277" y="14"/>
      <point x="277" y="15" type="curve"/>
      <point x="277" y="22"/>
      <point x="278" y="38"/>
      <point x="270" y="41" type="curve"/>
      <point x="237" y="49"/>
      <point x="209" y="57"/>
      <point x="198" y="92" type="curve"/>
      <point x="197" y="107"/>
      <point x="195" y="174"/>
      <point x="194" y="188" type="curve"/>
      <point x="194" y="192"/>
      <point x="194" y="264"/>
      <point x="194" y="291" type="curve"/>
      <point x="194" y="306"/>
      <point x="194" y="378"/>
      <point x="194" y="394" type="curve"/>
      <point x="206" y="409"/>
      <point x="226" y="423"/>
      <point x="242" y="431" type="curve"/>
      <point x="248" y="434"/>
      <point x="267" y="442"/>
      <point x="270" y="442" type="curve"/>
      <point x="338" y="442" type="line"/>
      <point x="348" y="442"/>
      <point x="365" y="432"/>
      <point x="372" y="424" type="curve"/>
      <point x="377" y="419"/>
      <point x="391" y="400"/>
      <point x="393" y="397" type="curve"/>
      <point x="395" y="394"/>
      <point x="399" y="375"/>
      <point x="400" y="370" type="curve"/>
      <point x="400" y="366"/>
      <point x="400" y="333"/>
      <point x="400" y="329" type="curve"/>
      <point x="400" y="323"/>
      <point x="403" y="282"/>
      <point x="403" y="277" type="curve"/>
      <point x="403" y="274"/>
      <point x="404" y="224"/>
      <point x="404" y="205" type="curve"/>
      <point x="404" y="186"/>
      <point x="403" y="136"/>
      <point x="403" y="133" type="curve"/>
      <point x="403" y="111"/>
      <point x="403" y="75"/>
      <point x="383" y="58" type="curve"/>
      <point x="356" y="36"/>
      <point x="327" y="64"/>
      <point x="327" y="18" type="curve"/>
      <point x="327" y="15"/>
      <point x="328" y="7"/>
      <point x="328" y="7" type="curve"/>
      <point x="335" y="0" type="line"/>
      <point x="568" y="0" type="line"/>
      <point x="568" y="31" type="line"/>
      <point x="568" y="32"/>
      <point x="563" y="37"/>
      <point x="561" y="37" type="curve"/>
      <point x="559" y="38"/>
      <point x="539" y="43"/>
      <point x="537" y="44" type="curve"/>
      <point x="521" y="51"/>
      <point x="512" y="61"/>
      <point x="503" y="75" type="curve"/>
      <point x="502" y="76"/>
      <point x="499" y="81"/>
      <point x="499" y="82" type="curve"/>
      <point x="492" y="144" type="line"/>
      <point x="493" y="170"/>
      <point x="493" y="292"/>
      <point x="492" y="318" type="curve"/>
      <point x="492" y="328"/>
      <point x="490" y="378"/>
      <point x="489" y="390" type="curve"/>
      <point x="489" y="393"/>
      <point x="486" y="408"/>
      <point x="485" y="411" type="curve"/>
      <point x="466" y="483"/>
      <point x="415" y="517"/>
      <point x="342" y="517" type="curve"/>
      <point x="340" y="517"/>
      <point x="330" y="517"/>
      <point x="328" y="517" type="curve"/>
      <point x="320" y="514"/>
      <point x="284" y="500"/>
      <point x="277" y="496" type="curve"/>
      <point x="275" y="496"/>
      <point x="256" y="484"/>
      <point x="249" y="479" type="curve"/>
      <point x="249" y="479"/>
      <point x="246" y="476"/>
      <point x="246" y="476" type="curve"/>
      <point x="244" y="475"/>
      <point x="237" y="473"/>
      <point x="235" y="472" type="curve"/>
      <point x="198" y="442" type="line"/>
      <point x="198" y="442"/>
      <point x="197" y="441"/>
      <point x="196" y="441" type="curve"/>
      <point x="194" y="441"/>
      <point x="192" y="442"/>
      <point x="191" y="445" type="curve"/>
      <point x="191" y="447"/>
      <point x="191" y="455"/>
      <point x="191" y="457" type="curve"/>
      <point x="191" y="473"/>
      <point x="195" y="488"/>
      <point x="195" y="504" type="curve"/>
      <point x="195" y="516"/>
      <point x="194" y="517"/>
      <point x="182" y="517" type="curve"/>
      <point x="180" y="517"/>
      <point x="174" y="517"/>
      <point x="174" y="517" type="curve"/>
      <point x="171" y="516"/>
      <point x="152" y="504"/>
      <point x="150" y="503" type="curve"/>
      <point x="115" y="486"/>
      <point x="76" y="476"/>
      <point x="40" y="462" type="curve"/>
      <point x="39" y="461"/>
      <point x="34" y="459"/>
      <point x="33" y="459" type="curve"/>
      <point x="33" y="458"/>
      <point x="31" y="453"/>
      <point x="30" y="452" type="curve"/>
      <point x="30" y="452"/>
      <point x="30" y="450"/>
      <point x="30" y="450" type="curve"/>
      <point x="30" y="430"/>
      <point x="93" y="408"/>
      <point x="105" y="390" type="curve"/>
      <point x="104" y="321"/>
      <point x="109" y="253"/>
      <point x="109" y="184" type="curve"/>
      <point x="109" y="140"/>
      <point x="114" y="82"/>
      <point x="75" y="51" type="curve"/>
      <point x="64" y="43"/>
      <point x="37" y="43"/>
      <point x="33" y="37" type="curve"/>
      <point x="30" y="32"/>
      <point x="30" y="21"/>
    </contour>
  </outline>
</glyph>
<glyph name="q" format="1">
  <advance width="397"/>
  <unicode hex="0071"/>
  <outline>
    <contour>
      <point x="39" y="346" type="curve"/>
      <point x="46" y="240" type="line"/>
      <point x="46" y="232"/>
      <point x="61" y="222"/>
      <point x="66" y="219" type="curve"/>
      <point x="103" y="201"/>
      <point x="142" y="181"/>
      <point x="184" y="181" type="curve"/>
      <point x="230" y="181"/>
      <point x="286" y="196"/>
      <point x="320" y="229" type="curve"/>
      <point x="332" y="242"/>
      <point x="343" y="262"/>
      <point x="351" y="277" type="curve"/>
      <point x="350" y="278"/>
      <point x="350" y="280"/>
      <point x="351" y="281" type="curve"/>
      <point x="351" y="284"/>
      <point x="357" y="305"/>
      <point x="357" y="308" type="curve"/>
      <point x="358" y="309"/>
      <point x="358" y="326"/>
      <point x="358" y="332" type="curve"/>
      <point x="358" y="379"/>
      <point x="334" y="427"/>
      <point x="292" y="452" type="curve"/>
      <point x="166" y="527" type="line"/>
      <point x="162" y="532"/>
      <point x="151" y="539"/>
      <point x="149" y="541" type="curve"/>
      <point x="134" y="554"/>
      <point x="117" y="574"/>
      <point x="117" y="594" type="curve"/>
      <point x="117" y="642"/>
      <point x="152" y="668"/>
      <point x="198" y="668" type="curve"/>
      <point x="236" y="668"/>
      <point x="260" y="637"/>
      <point x="279" y="610" type="curve"/>
      <point x="279" y="609"/>
      <point x="282" y="604"/>
      <point x="282" y="603" type="curve"/>
      <point x="284" y="598"/>
      <point x="298" y="560"/>
      <point x="299" y="555" type="curve"/>
      <point x="300" y="553"/>
      <point x="302" y="548"/>
      <point x="303" y="548" type="curve"/>
      <point x="304" y="547"/>
      <point x="314" y="545"/>
      <point x="316" y="545" type="curve"/>
      <point x="329" y="545"/>
      <point x="333" y="554"/>
      <point x="334" y="565" type="curve"/>
      <point x="334" y="571"/>
      <point x="333" y="621"/>
      <point x="334" y="627" type="curve"/>
      <point x="334" y="629"/>
      <point x="337" y="651"/>
      <point x="337" y="654" type="curve"/>
      <point x="337" y="669"/>
      <point x="296" y="684"/>
      <point x="286" y="688" type="curve"/>
      <point x="282" y="690"/>
      <point x="268" y="695"/>
      <point x="265" y="695" type="curve"/>
      <point x="264" y="695"/>
      <point x="259" y="695"/>
      <point x="258" y="695" type="curve"/>
      <point x="256" y="696"/>
      <point x="240" y="702"/>
      <point x="238" y="702" type="curve"/>
      <point x="219" y="705"/>
      <point x="201" y="706"/>
      <point x="182" y="706" type="curve"/>
      <point x="146" y="706"/>
      <point x="115" y="696"/>
      <point x="87" y="671" type="curve"/>
      <point x="81" y="666"/>
      <point x="65" y="650"/>
      <point x="63" y="647" type="curve"/>
      <point x="49" y="627"/>
      <point x="39" y="599"/>
      <point x="39" y="574" type="curve"/>
      <point x="39" y="551"/>
      <point x="51" y="513"/>
      <point x="66" y="497" type="curve"/>
      <point x="79" y="483"/>
      <point x="96" y="463"/>
      <point x="114" y="452" type="curve"/>
      <point x="126" y="446"/>
      <point x="178" y="417"/>
      <point x="190" y="411" type="curve"/>
      <point x="190" y="410"/>
      <point x="192" y="408"/>
      <point x="193" y="408" type="curve"/>
      <point x="196" y="405"/>
      <point x="215" y="393"/>
      <point x="221" y="390" type="curve"/>
      <point x="222" y="390"/>
      <point x="226" y="388"/>
      <point x="227" y="387" type="curve"/>
      <point x="234" y="381"/>
      <point x="265" y="352"/>
      <point x="272" y="346" type="curve"/>
      <point x="285" y="333"/>
      <point x="286" y="314"/>
      <point x="286" y="297" type="curve"/>
      <point x="286" y="270"/>
      <point x="261" y="230"/>
      <point x="234" y="223" type="curve"/>
      <point x="233" y="222"/>
      <point x="225" y="223"/>
      <point x="224" y="223" type="curve"/>
      <point x="222" y="222"/>
      <point x="209" y="219"/>
      <point x="207" y="219" type="curve"/>
      <point x="206" y="219"/>
      <point x="195" y="219"/>
      <point x="192" y="219" type="curve"/>
      <point x="188" y="219"/>
      <point x="180" y="219"/>
      <point x="179" y="219" type="curve"/>
      <point x="174" y="221"/>
      <point x="152" y="230"/>
      <point x="149" y="233" type="curve"/>
      <point x="143" y="237"/>
      <point x="117" y="264"/>
      <point x="111" y="271" type="curve"/>
      <point x="107" y="275"/>
      <point x="96" y="296"/>
      <point x="94" y="301" type="curve"/>
      <point x="91" y="310"/>
      <point x="81" y="351"/>
      <point x="80" y="360" type="curve"/>
      <point x="78" y="365"/>
      <point x="65" y="366"/>
      <point x="63" y="366" type="curve"/>
      <point x="50" y="366"/>
      <point x="38" y="360"/>
    </contour>
  </outline>
</glyph>
<glyph name="r" format="1">
  <advance width="449"/>
  <unicode hex="0072"/>
  <outline>
    <contour>
      <point x="41" y="209" type="curve"/>
      <point x="41" y="204"/>
      <point x="42" y="193"/>
      <point x="48" y="192" type="curve"/>
      <point x="51" y="191"/>
      <point x="66" y="188"/>
      <point x="68" y="188" type="curve"/>
      <point x="71" y="188"/>
      <point x="83" y="191"/>
      <point x="86" y="192" type="curve"/>
      <point x="92" y="192"/>
      <point x="123" y="192"/>
      <point x="130" y="192" type="curve"/>
      <point x="180" y="192"/>
      <point x="230" y="188"/>
      <point x="281" y="188" type="curve"/>
      <point x="285" y="188"/>
      <point x="307" y="188"/>
      <point x="312" y="188" type="curve"/>
      <point x="324" y="190"/>
      <point x="322" y="204"/>
      <point x="322" y="212" type="curve"/>
      <point x="322" y="224"/>
      <point x="323" y="236"/>
      <point x="308" y="240" type="curve"/>
      <point x="305" y="240"/>
      <point x="277" y="242"/>
      <point x="274" y="243" type="curve"/>
      <point x="271" y="244"/>
      <point x="247" y="253"/>
      <point x="240" y="257" type="curve"/>
      <point x="239" y="257"/>
      <point x="237" y="259"/>
      <point x="236" y="260" type="curve"/>
      <point x="227" y="273"/>
      <point x="220" y="280"/>
      <point x="219" y="295" type="curve"/>
      <point x="218" y="306"/>
      <point x="216" y="359"/>
      <point x="216" y="370" type="curve"/>
      <point x="216" y="373"/>
      <point x="215" y="431"/>
      <point x="215" y="452" type="curve"/>
      <point x="215" y="464"/>
      <point x="216" y="522"/>
      <point x="216" y="534" type="curve"/>
      <point x="214" y="552"/>
      <point x="225" y="567"/>
      <point x="236" y="579" type="curve"/>
      <point x="242" y="585"/>
      <point x="271" y="611"/>
      <point x="277" y="616" type="curve"/>
      <point x="284" y="620"/>
      <point x="288" y="620"/>
      <point x="295" y="620" type="curve"/>
      <point x="299" y="620"/>
      <point x="305" y="621"/>
      <point x="308" y="616" type="curve"/>
      <point x="339" y="575" type="line"/>
      <point x="344" y="568"/>
      <point x="361" y="568"/>
      <point x="369" y="568" type="curve"/>
      <point x="399" y="568"/>
      <point x="404" y="610"/>
      <point x="404" y="632" type="curve"/>
      <point x="404" y="635"/>
      <point x="404" y="651"/>
      <point x="404" y="654" type="curve"/>
      <point x="393" y="682"/>
      <point x="366" y="707"/>
      <point x="336" y="709" type="curve"/>
      <point x="317" y="710"/>
      <point x="295" y="703"/>
      <point x="281" y="692" type="curve"/>
      <point x="274" y="686"/>
      <point x="245" y="658"/>
      <point x="240" y="651" type="curve"/>
      <point x="235" y="638"/>
      <point x="227" y="625"/>
      <point x="216" y="616" type="curve"/>
      <point x="216" y="695" type="line"/>
      <point x="216" y="708"/>
      <point x="205" y="713"/>
      <point x="194" y="713" type="curve"/>
      <point x="193" y="713"/>
      <point x="189" y="713"/>
      <point x="188" y="712" type="curve"/>
      <point x="51" y="654" type="line"/>
      <point x="45" y="651"/>
      <point x="44" y="641"/>
      <point x="44" y="635" type="curve"/>
      <point x="44" y="615"/>
      <point x="100" y="598"/>
      <point x="116" y="589" type="curve"/>
      <point x="116" y="589"/>
      <point x="116" y="586"/>
      <point x="116" y="586" type="curve"/>
      <point x="117" y="575"/>
      <point x="120" y="487"/>
      <point x="120" y="476" type="curve"/>
      <point x="120" y="473"/>
      <point x="120" y="424"/>
      <point x="120" y="406" type="curve"/>
      <point x="120" y="357"/>
      <point x="121" y="323"/>
      <point x="116" y="274" type="curve"/>
      <point x="115" y="245"/>
      <point x="73" y="243"/>
      <point x="55" y="240" type="curve"/>
      <point x="40" y="237"/>
      <point x="41" y="220"/>
    </contour>
  </outline>
</glyph>
<glyph name="t" format="1">
  <advance width="315"/>
  <unicode hex="0074"/>
  <outline>
    <contour>
      <point x="142" y="192" type="curve"/>
      <point x="151" y="191"/>
      <point x="189" y="186"/>
      <point x="197" y="185" type="curve"/>
      <point x="197" y="185"/>
      <point x="199" y="185"/>
      <point x="199" y="185" type="curve"/>
      <point x="199" y="185"/>
      <point x="201" y="185"/>
      <point x="201" y="185" type="curve"/>
      <point x="276" y="202" type="line"/>
      <point x="276" y="202"/>
      <point x="286" y="206"/>
      <point x="286" y="209" type="curve"/>
      <point x="286" y="250" type="line"/>
      <point x="242" y="256"/>
      <point x="221" y="242"/>
      <point x="190" y="277" type="curve"/>
      <point x="189" y="279"/>
      <point x="184" y="286"/>
      <point x="184" y="288" type="curve"/>
      <point x="184" y="288"/>
      <point x="183" y="291"/>
      <point x="183" y="292" type="curve"/>
      <point x="183" y="312"/>
      <point x="187" y="332"/>
      <point x="187" y="351" type="curve"/>
      <point x="187" y="352"/>
      <point x="187" y="353"/>
      <point x="187" y="353" type="curve"/>
      <point x="186" y="355"/>
      <point x="184" y="367"/>
      <point x="184" y="370" type="curve"/>
      <point x="184" y="640" type="line"/>
      <point x="187" y="644" type="line"/>
      <point x="215" y="643"/>
      <point x="250" y="642"/>
      <point x="279" y="647" type="curve"/>
      <point x="281" y="648"/>
      <point x="286" y="653"/>
      <point x="286" y="654" type="curve"/>
      <point x="286" y="654"/>
      <point x="286" y="656"/>
      <point x="286" y="657" type="curve"/>
      <point x="286" y="668"/>
      <point x="287" y="683"/>
      <point x="279" y="692" type="curve"/>
      <point x="272" y="692"/>
      <point x="239" y="695"/>
      <point x="231" y="695" type="curve"/>
      <point x="224" y="696"/>
      <point x="192" y="694"/>
      <point x="185" y="694" type="curve"/>
      <point x="185" y="703"/>
      <point x="183" y="745"/>
      <point x="184" y="753" type="curve"/>
      <point x="184" y="755"/>
      <point x="187" y="769"/>
      <point x="187" y="771" type="curve"/>
      <point x="187" y="784"/>
      <point x="180" y="791"/>
      <point x="166" y="791" type="curve"/>
      <point x="165" y="791"/>
      <point x="151" y="786"/>
      <point x="149" y="784" type="curve"/>
      <point x="84" y="712" type="line"/>
      <point x="64" y="690"/>
      <point x="26" y="690"/>
      <point x="26" y="655" type="curve"/>
      <point x="26" y="644"/>
      <point x="36" y="645"/>
      <point x="47" y="644" type="curve"/>
      <point x="53" y="643"/>
      <point x="81" y="643"/>
      <point x="88" y="644" type="curve"/>
      <point x="96" y="639"/>
      <point x="95" y="630"/>
      <point x="95" y="621" type="curve"/>
      <point x="95" y="618"/>
      <point x="94" y="607"/>
      <point x="94" y="606" type="curve"/>
      <point x="94" y="600"/>
      <point x="91" y="551"/>
      <point x="91" y="545" type="curve"/>
      <point x="91" y="542"/>
      <point x="91" y="484"/>
      <point x="91" y="463" type="curve"/>
      <point x="91" y="441"/>
      <point x="91" y="381"/>
      <point x="91" y="377" type="curve"/>
      <point x="91" y="365"/>
      <point x="94" y="272"/>
      <point x="94" y="260" type="curve"/>
      <point x="94" y="260"/>
      <point x="94" y="257"/>
      <point x="94" y="257" type="curve"/>
      <point x="103" y="233"/>
      <point x="114" y="200"/>
    </contour>
    <contour>
      <point x="77" y="810" type="curve"/>
      <point x="76" y="810"/>
      <point x="76" y="807"/>
      <point x="77" y="807" type="curve"/>
      <point x="79" y="807"/>
      <point x="79" y="810"/>
    </contour>
  </outline>
</glyph>
<glyph name="v" format="1">
  <advance width="587"/>
  <unicode hex="0076"/>
  <outline>
    <contour>
      <point x="392" y="12" type="curve"/>
      <point x="391" y="12"/>
      <point x="391" y="9"/>
      <point x="392" y="9" type="curve"/>
      <point x="394" y="9"/>
      <point x="394" y="12"/>
    </contour>
    <contour>
      <point x="26" y="206" type="curve"/>
      <point x="26" y="204"/>
      <point x="26" y="199"/>
      <point x="26" y="199" type="curve"/>
      <point x="27" y="197"/>
      <point x="31" y="192"/>
      <point x="33" y="192" type="curve"/>
      <point x="269" y="192" type="line"/>
      <point x="274" y="192"/>
      <point x="273" y="206"/>
      <point x="273" y="207" type="curve"/>
      <point x="273" y="214"/>
      <point x="274" y="230"/>
      <point x="266" y="233" type="curve"/>
      <point x="233" y="241"/>
      <point x="205" y="249"/>
      <point x="194" y="284" type="curve"/>
      <point x="193" y="299"/>
      <point x="191" y="366"/>
      <point x="190" y="380" type="curve"/>
      <point x="190" y="384"/>
      <point x="190" y="456"/>
      <point x="190" y="483" type="curve"/>
      <point x="190" y="498"/>
      <point x="190" y="570"/>
      <point x="190" y="586" type="curve"/>
      <point x="202" y="601"/>
      <point x="222" y="615"/>
      <point x="238" y="623" type="curve"/>
      <point x="244" y="626"/>
      <point x="263" y="634"/>
      <point x="266" y="634" type="curve"/>
      <point x="334" y="634" type="line"/>
      <point x="344" y="634"/>
      <point x="361" y="624"/>
      <point x="368" y="616" type="curve"/>
      <point x="373" y="611"/>
      <point x="387" y="592"/>
      <point x="389" y="589" type="curve"/>
      <point x="391" y="586"/>
      <point x="395" y="567"/>
      <point x="396" y="562" type="curve"/>
      <point x="396" y="558"/>
      <point x="396" y="525"/>
      <point x="396" y="521" type="curve"/>
      <point x="396" y="515"/>
      <point x="399" y="474"/>
      <point x="399" y="469" type="curve"/>
      <point x="399" y="466"/>
      <point x="400" y="416"/>
      <point x="400" y="397" type="curve"/>
      <point x="400" y="378"/>
      <point x="399" y="328"/>
      <point x="399" y="325" type="curve"/>
      <point x="399" y="303"/>
      <point x="399" y="267"/>
      <point x="379" y="250" type="curve"/>
      <point x="352" y="228"/>
      <point x="323" y="256"/>
      <point x="323" y="210" type="curve"/>
      <point x="323" y="207"/>
      <point x="324" y="199"/>
      <point x="324" y="199" type="curve"/>
      <point x="331" y="192" type="line"/>
      <point x="564" y="192" type="line"/>
      <point x="564" y="223" type="line"/>
      <point x="564" y="224"/>
      <point x="559" y="229"/>
      <point x="557" y="229" type="curve"/>
      <point x="555" y="230"/>
      <point x="535" y="235"/>
      <point x="533" y="236" type="curve"/>
      <point x="517" y="243"/>
      <point x="508" y="253"/>
      <point x="499" y="267" type="curve"/>
      <point x="498" y="268"/>
      <point x="495" y="273"/>
      <point x="495" y="274" type="curve"/>
      <point x="488" y="336" type="line"/>
      <point x="489" y="362"/>
      <point x="489" y="484"/>
      <point x="488" y="510" type="curve"/>
      <point x="488" y="520"/>
      <point x="486" y="570"/>
      <point x="485" y="582" type="curve"/>
      <point x="485" y="585"/>
      <point x="482" y="600"/>
      <point x="481" y="603" type="curve"/>
      <point x="462" y="675"/>
      <point x="411" y="709"/>
      <point x="338" y="709" type="curve"/>
      <point x="336" y="709"/>
      <point x="326" y="709"/>
      <point x="324" y="709" type="curve"/>
      <point x="316" y="706"/>
      <point x="280" y="692"/>
      <point x="273" y="688" type="curve"/>
      <point x="271" y="688"/>
      <point x="252" y="676"/>
      <point x="245" y="671" type="curve"/>
      <point x="245" y="671"/>
      <point x="242" y="668"/>
      <point x="242" y="668" type="curve"/>
      <point x="240" y="667"/>
      <point x="233" y="665"/>
      <point x="231" y="664" type="curve"/>
      <point x="194" y="634" type="line"/>
      <point x="194" y="634"/>
      <point x="193" y="633"/>
      <point x="192" y="633" type="curve"/>
      <point x="190" y="633"/>
      <point x="188" y="634"/>
      <point x="187" y="637" type="curve"/>
      <point x="187" y="639"/>
      <point x="187" y="647"/>
      <point x="187" y="649" type="curve"/>
      <point x="187" y="665"/>
      <point x="191" y="680"/>
      <point x="191" y="696" type="curve"/>
      <point x="191" y="708"/>
      <point x="190" y="709"/>
      <point x="178" y="709" type="curve"/>
      <point x="176" y="709"/>
      <point x="170" y="709"/>
      <point x="170" y="709" type="curve"/>
      <point x="167" y="708"/>
      <point x="148" y="696"/>
      <point x="146" y="695" type="curve"/>
      <point x="111" y="678"/>
      <point x="72" y="668"/>
      <point x="36" y="654" type="curve"/>
      <point x="35" y="653"/>
      <point x="30" y="651"/>
      <point x="29" y="651" type="curve"/>
      <point x="29" y="650"/>
      <point x="27" y="645"/>
      <point x="26" y="644" type="curve"/>
      <point x="26" y="644"/>
      <point x="26" y="642"/>
      <point x="26" y="642" type="curve"/>
      <point x="26" y="622"/>
      <point x="89" y="600"/>
      <point x="101" y="582" type="curve"/>
      <point x="100" y="513"/>
      <point x="105" y="445"/>
      <point x="105" y="376" type="curve"/>
      <point x="105" y="332"/>
      <point x="110" y="274"/>
      <point x="71" y="243" type="curve"/>
      <point x="60" y="235"/>
      <point x="33" y="235"/>
      <point x="29" y="229" type="curve"/>
      <point x="26" y="224"/>
      <point x="26" y="213"/>
    </contour>
    <contour>
      <point x="50" y="772" type="curve"/>
      <point x="48" y="772"/>
      <point x="48" y="769"/>
      <point x="50" y="769" type="curve"/>
      <point x="52" y="769"/>
      <point x="52" y="772"/>
    </contour>
    <contour>
      <point x="29" y="786" type="curve"/>
      <point x="28" y="786"/>
      <point x="28" y="783"/>
      <point x="29" y="783" type="curve"/>
      <point x="31" y="783"/>
      <point x="31" y="786"/>
    </contour>
  </outline>
</glyph>
<glyph name="quoteleft" format="1">
  <advance width="192"/>
  <unicode hex="2018"/>
  <outline>
    <contour>
      <point x="9" y="593" type="curve"/>
      <point x="9" y="528"/>
      <point x="47" y="462"/>
      <point x="120" y="462" type="curve"/>
      <point x="123" y="462"/>
      <point x="137" y="462"/>
      <point x="140" y="462" type="curve"/>
      <point x="141" y="463"/>
      <point x="146" y="465"/>
      <point x="147" y="466" type="curve"/>
      <point x="152" y="470"/>
      <point x="169" y="487"/>
      <point x="171" y="490" type="curve"/>
      <point x="179" y="500"/>
      <point x="178" y="505"/>
      <point x="178" y="518" type="curve"/>
      <point x="178" y="540"/>
      <point x="171" y="564"/>
      <point x="147" y="572" type="curve"/>
      <point x="141" y="574"/>
      <point x="91" y="587"/>
      <point x="85" y="589" type="curve"/>
      <point x="73" y="593"/>
      <point x="70" y="604"/>
      <point x="68" y="616" type="curve"/>
      <point x="68" y="617"/>
      <point x="68" y="628"/>
      <point x="68" y="632" type="curve"/>
      <point x="68" y="646"/>
      <point x="67" y="671"/>
      <point x="78" y="682" type="curve"/>
      <point x="81" y="683"/>
      <point x="97" y="697"/>
      <point x="99" y="699" type="curve"/>
      <point x="100" y="700"/>
      <point x="108" y="708"/>
      <point x="109" y="709" type="curve"/>
      <point x="119" y="717"/>
      <point x="161" y="736"/>
      <point x="161" y="750" type="curve"/>
      <point x="161" y="758"/>
      <point x="152" y="778"/>
      <point x="142" y="778" type="curve"/>
      <point x="141" y="778"/>
      <point x="137" y="778"/>
      <point x="137" y="777" type="curve"/>
      <point x="136" y="777"/>
      <point x="127" y="771"/>
      <point x="126" y="771" type="curve"/>
      <point x="124" y="769"/>
      <point x="101" y="759"/>
      <point x="99" y="757" type="curve"/>
      <point x="92" y="751"/>
      <point x="58" y="720"/>
      <point x="51" y="712" type="curve"/>
      <point x="26" y="685"/>
      <point x="15" y="648"/>
      <point x="10" y="613" type="curve"/>
      <point x="10" y="612"/>
      <point x="9" y="598"/>
    </contour>
  </outline>
</glyph>
<glyph name="_112" format="1">
  <advance width="484"/>
  <outline>
    <contour>
      <point x="40" y="330" type="curve"/>
      <point x="40" y="327"/>
      <point x="44" y="301"/>
      <point x="44" y="297" type="curve"/>
      <point x="44" y="290"/>
      <point x="44" y="234"/>
      <point x="44" y="228" type="curve"/>
      <point x="44" y="225"/>
      <point x="47" y="208"/>
      <point x="48" y="206" type="curve"/>
      <point x="48" y="205"/>
      <point x="48" y="202"/>
      <point x="48" y="202" type="curve"/>
      <point x="49" y="197"/>
      <point x="51" y="184"/>
      <point x="51" y="183" type="curve"/>
      <point x="54" y="177"/>
      <point x="69" y="170"/>
      <point x="73" y="169" type="curve"/>
      <point x="91" y="163"/>
      <point x="152" y="145"/>
      <point x="162" y="143" type="curve"/>
      <point x="168" y="142"/>
      <point x="204" y="137"/>
      <point x="213" y="136" type="curve"/>
      <point x="214" y="136"/>
      <point x="229" y="135"/>
      <point x="234" y="135" type="curve"/>
      <point x="357" y="135"/>
      <point x="444" y="201"/>
      <point x="444" y="330" type="curve"/>
      <point x="444" y="388"/>
      <point x="416" y="432"/>
      <point x="374" y="470" type="curve"/>
      <point x="366" y="477"/>
      <point x="330" y="506"/>
      <point x="323" y="510" type="curve"/>
      <point x="311" y="518"/>
      <point x="214" y="572"/>
      <point x="202" y="580" type="curve"/>
      <point x="199" y="582"/>
      <point x="168" y="605"/>
      <point x="158" y="613" type="curve"/>
      <point x="152" y="618"/>
      <point x="147" y="625"/>
      <point x="143" y="631" type="curve"/>
      <point x="139" y="639"/>
      <point x="129" y="660"/>
      <point x="129" y="661" type="curve"/>
      <point x="129" y="719" type="line"/>
      <point x="129" y="720"/>
      <point x="136" y="735"/>
      <point x="140" y="741" type="curve"/>
      <point x="152" y="764"/>
      <point x="179" y="788"/>
      <point x="206" y="793" type="curve"/>
      <point x="210" y="793"/>
      <point x="231" y="793"/>
      <point x="235" y="793" type="curve"/>
      <point x="242" y="793"/>
      <point x="263" y="793"/>
      <point x="264" y="793" type="curve"/>
      <point x="270" y="792"/>
      <point x="293" y="784"/>
      <point x="297" y="782" type="curve"/>
      <point x="300" y="780"/>
      <point x="323" y="757"/>
      <point x="330" y="749" type="curve"/>
      <point x="331" y="748"/>
      <point x="337" y="740"/>
      <point x="338" y="738" type="curve"/>
      <point x="341" y="731"/>
      <point x="357" y="700"/>
      <point x="360" y="694" type="curve"/>
      <point x="368" y="677"/>
      <point x="364" y="642"/>
      <point x="391" y="642" type="curve"/>
      <point x="392" y="642"/>
      <point x="396" y="642"/>
      <point x="396" y="642" type="curve"/>
      <point x="400" y="643"/>
      <point x="407" y="645"/>
      <point x="407" y="646" type="curve"/>
      <point x="407" y="782" type="line"/>
      <point x="404" y="789" type="line"/>
      <point x="403" y="790"/>
      <point x="383" y="800"/>
      <point x="374" y="804" type="curve"/>
      <point x="368" y="806"/>
      <point x="335" y="819"/>
      <point x="327" y="822" type="curve"/>
      <point x="295" y="833"/>
      <point x="266" y="833"/>
      <point x="233" y="833" type="curve"/>
      <point x="224" y="833"/>
      <point x="199" y="833"/>
      <point x="198" y="833" type="curve"/>
      <point x="192" y="832"/>
      <point x="158" y="825"/>
      <point x="151" y="822" type="curve"/>
      <point x="108" y="807"/>
      <point x="64" y="750"/>
      <point x="48" y="712" type="curve"/>
      <point x="47" y="710"/>
      <point x="44" y="699"/>
      <point x="44" y="697" type="curve"/>
      <point x="44" y="695"/>
      <point x="44" y="669"/>
      <point x="44" y="659" type="curve"/>
      <point x="44" y="629"/>
      <point x="46" y="603"/>
      <point x="62" y="576" type="curve"/>
      <point x="98" y="516"/>
      <point x="171" y="472"/>
      <point x="231" y="440" type="curve"/>
      <point x="232" y="440"/>
      <point x="234" y="437"/>
      <point x="235" y="437" type="curve"/>
      <point x="240" y="433"/>
      <point x="268" y="415"/>
      <point x="275" y="411" type="curve"/>
      <point x="288" y="403"/>
      <point x="303" y="397"/>
      <point x="312" y="385" type="curve"/>
      <point x="320" y="375"/>
      <point x="343" y="344"/>
      <point x="345" y="341" type="curve"/>
      <point x="355" y="326"/>
      <point x="356" y="308"/>
      <point x="356" y="290" type="curve"/>
      <point x="356" y="245"/>
      <point x="333" y="197"/>
      <point x="286" y="183" type="curve"/>
      <point x="282" y="182"/>
      <point x="253" y="177"/>
      <point x="246" y="176" type="curve"/>
      <point x="245" y="176"/>
      <point x="237" y="176"/>
      <point x="233" y="176" type="curve"/>
      <point x="160" y="176"/>
      <point x="120" y="244"/>
      <point x="95" y="305" type="curve"/>
      <point x="89" y="320"/>
      <point x="91" y="338"/>
      <point x="77" y="349" type="curve"/>
      <point x="75" y="349"/>
      <point x="66" y="349"/>
      <point x="64" y="349" type="curve"/>
      <point x="61" y="349"/>
      <point x="47" y="350"/>
      <point x="44" y="345" type="curve"/>
      <point x="43" y="343"/>
      <point x="40" y="333"/>
    </contour>
  </outline>
</glyph>
<glyph name="_118" format="1">
  <advance width="699"/>
  <outline>
    <contour>
      <point x="339" y="20" type="curve"/>
      <point x="337" y="20"/>
      <point x="337" y="17"/>
      <point x="339" y="17" type="curve"/>
      <point x="341" y="17"/>
      <point x="341" y="20"/>
    </contour>
    <contour>
      <point x="104" y="253" type="curve"/>
      <point x="108" y="249"/>
      <point x="126" y="231"/>
      <point x="130" y="228" type="curve"/>
      <point x="141" y="217"/>
      <point x="156" y="202"/>
      <point x="170" y="194" type="curve"/>
      <point x="189" y="184"/>
      <point x="243" y="156"/>
      <point x="247" y="154" type="curve"/>
      <point x="253" y="152"/>
      <point x="278" y="144"/>
      <point x="284" y="143" type="curve"/>
      <point x="291" y="143"/>
      <point x="325" y="142"/>
      <point x="332" y="142" type="curve"/>
      <point x="344" y="142"/>
      <point x="377" y="143"/>
      <point x="379" y="143" type="curve"/>
      <point x="391" y="144"/>
      <point x="445" y="157"/>
      <point x="456" y="161" type="curve"/>
      <point x="458" y="162"/>
      <point x="463" y="165"/>
      <point x="464" y="165" type="curve"/>
      <point x="465" y="166"/>
      <point x="474" y="168"/>
      <point x="475" y="169" type="curve"/>
      <point x="484" y="174"/>
      <point x="525" y="197"/>
      <point x="534" y="202" type="curve"/>
      <point x="534" y="202"/>
      <point x="537" y="205"/>
      <point x="537" y="206" type="curve"/>
      <point x="540" y="208"/>
      <point x="564" y="225"/>
      <point x="567" y="228" type="curve"/>
      <point x="569" y="229"/>
      <point x="583" y="247"/>
      <point x="585" y="250" type="curve"/>
      <point x="629" y="300"/>
      <point x="656" y="363"/>
      <point x="666" y="429" type="curve"/>
      <point x="666" y="437"/>
      <point x="666" y="474"/>
      <point x="666" y="483" type="curve"/>
      <point x="666" y="496"/>
      <point x="666" y="534"/>
      <point x="666" y="536" type="curve"/>
      <point x="665" y="545"/>
      <point x="657" y="586"/>
      <point x="655" y="594" type="curve"/>
      <point x="649" y="603"/>
      <point x="647" y="615"/>
      <point x="644" y="624" type="curve"/>
      <point x="638" y="638"/>
      <point x="617" y="685"/>
      <point x="614" y="690" type="curve"/>
      <point x="613" y="692"/>
      <point x="601" y="710"/>
      <point x="596" y="716" type="curve"/>
      <point x="595" y="716"/>
      <point x="589" y="722"/>
      <point x="589" y="723" type="curve"/>
      <point x="546" y="773"/>
      <point x="493" y="808"/>
      <point x="431" y="829" type="curve"/>
      <point x="411" y="836"/>
      <point x="366" y="837"/>
      <point x="347" y="837" type="curve"/>
      <point x="255" y="837"/>
      <point x="175" y="790"/>
      <point x="115" y="723" type="curve"/>
      <point x="113" y="720"/>
      <point x="99" y="696"/>
      <point x="97" y="694" type="curve"/>
      <point x="96" y="693"/>
      <point x="90" y="687"/>
      <point x="89" y="686" type="curve"/>
      <point x="88" y="684"/>
      <point x="83" y="677"/>
      <point x="82" y="675" type="curve"/>
      <point x="49" y="609"/>
      <point x="27" y="543"/>
      <point x="27" y="469" type="curve"/>
      <point x="27" y="468"/>
      <point x="27" y="463"/>
      <point x="27" y="462" type="curve"/>
      <point x="27" y="461"/>
      <point x="31" y="446"/>
      <point x="31" y="444" type="curve"/>
      <point x="31" y="442"/>
      <point x="31" y="428"/>
      <point x="31" y="426" type="curve"/>
      <point x="32" y="420"/>
      <point x="37" y="394"/>
      <point x="38" y="389" type="curve"/>
      <point x="42" y="377"/>
      <point x="54" y="338"/>
      <point x="56" y="334" type="curve"/>
      <point x="63" y="321"/>
      <point x="96" y="265"/>
    </contour>
    <contour>
      <point x="136" y="508" type="curve"/>
      <point x="136" y="636"/>
      <point x="183" y="797"/>
      <point x="335" y="797" type="curve"/>
      <point x="356" y="797"/>
      <point x="374" y="797"/>
      <point x="394" y="789" type="curve"/>
      <point x="397" y="788"/>
      <point x="421" y="772"/>
      <point x="423" y="771" type="curve"/>
      <point x="479" y="737"/>
      <point x="520" y="683"/>
      <point x="537" y="620" type="curve"/>
      <point x="542" y="602"/>
      <point x="557" y="517"/>
      <point x="559" y="499" type="curve"/>
      <point x="560" y="497"/>
      <point x="560" y="470"/>
      <point x="560" y="461" type="curve"/>
      <point x="560" y="455"/>
      <point x="560" y="428"/>
      <point x="559" y="422" type="curve"/>
      <point x="558" y="420"/>
      <point x="556" y="410"/>
      <point x="556" y="407" type="curve"/>
      <point x="549" y="369"/>
      <point x="544" y="329"/>
      <point x="526" y="294" type="curve"/>
      <point x="488" y="217"/>
      <point x="432" y="183"/>
      <point x="346" y="183" type="curve"/>
      <point x="276" y="183"/>
      <point x="233" y="223"/>
      <point x="196" y="279" type="curve"/>
      <point x="150" y="347"/>
      <point x="136" y="427"/>
    </contour>
  </outline>
</glyph>
<glyph name="_120" format="1">
  <advance width="1361"/>
  <outline>
    <contour>
      <point x="860" y="166" type="curve"/>
      <point x="860" y="160"/>
      <point x="860" y="145"/>
      <point x="868" y="143" type="curve"/>
      <point x="871" y="142"/>
      <point x="887" y="140"/>
      <point x="890" y="139" type="curve"/>
      <point x="895" y="139"/>
      <point x="936" y="140"/>
      <point x="941" y="139" type="curve"/>
      <point x="955" y="139"/>
      <point x="1070" y="136"/>
      <point x="1084" y="136" type="curve"/>
      <point x="1087" y="136"/>
      <point x="1111" y="136"/>
      <point x="1118" y="136" type="curve"/>
      <point x="1124" y="136"/>
      <point x="1139" y="136"/>
      <point x="1139" y="136" type="curve"/>
      <point x="1147" y="143" type="line"/>
      <point x="1147" y="169" type="line"/>
      <point x="1139" y="176" type="line"/>
      <point x="1117" y="180"/>
      <point x="1094" y="181"/>
      <point x="1077" y="198" type="curve"/>
      <point x="1071" y="204"/>
      <point x="1063" y="214"/>
      <point x="1062" y="224" type="curve"/>
      <point x="1062" y="226"/>
      <point x="1063" y="244"/>
      <point x="1062" y="246" type="curve"/>
      <point x="1062" y="251"/>
      <point x="1059" y="289"/>
      <point x="1059" y="294" type="curve"/>
      <point x="1059" y="296"/>
      <point x="1058" y="334"/>
      <point x="1058" y="348" type="curve"/>
      <point x="1058" y="361"/>
      <point x="1059" y="398"/>
      <point x="1059" y="400" type="curve"/>
      <point x="1059" y="417"/>
      <point x="1060" y="431"/>
      <point x="1070" y="444" type="curve"/>
      <point x="1073" y="448"/>
      <point x="1086" y="466"/>
      <point x="1088" y="470" type="curve"/>
      <point x="1095" y="480"/>
      <point x="1100" y="492"/>
      <point x="1106" y="503" type="curve"/>
      <point x="1128" y="538"/>
      <point x="1182" y="622"/>
      <point x="1183" y="624" type="curve"/>
      <point x="1187" y="628" type="line"/>
      <point x="1224" y="690" type="line"/>
      <point x="1229" y="693"/>
      <point x="1233" y="705"/>
      <point x="1235" y="708" type="curve"/>
      <point x="1236" y="710"/>
      <point x="1249" y="726"/>
      <point x="1253" y="730" type="curve"/>
      <point x="1256" y="733"/>
      <point x="1263" y="741"/>
      <point x="1264" y="741" type="curve"/>
      <point x="1267" y="743"/>
      <point x="1298" y="759"/>
      <point x="1308" y="763" type="curve"/>
      <point x="1314" y="766"/>
      <point x="1327" y="768"/>
      <point x="1327" y="778" type="curve"/>
      <point x="1327" y="785"/>
      <point x="1326" y="803"/>
      <point x="1316" y="807" type="curve"/>
      <point x="1301" y="807"/>
      <point x="1231" y="807"/>
      <point x="1216" y="807" type="curve"/>
      <point x="1214" y="807"/>
      <point x="1197" y="811"/>
      <point x="1194" y="811" type="curve"/>
      <point x="1193" y="811"/>
      <point x="1158" y="811"/>
      <point x="1145" y="811" type="curve"/>
      <point x="1137" y="811"/>
      <point x="1103" y="811"/>
      <point x="1095" y="811" type="curve"/>
      <point x="1087" y="802"/>
      <point x="1087" y="795"/>
      <point x="1087" y="785" type="curve"/>
      <point x="1087" y="758"/>
      <point x="1112" y="768"/>
      <point x="1132" y="763" type="curve"/>
      <point x="1145" y="761"/>
      <point x="1151" y="747"/>
      <point x="1158" y="738" type="curve"/>
      <point x="1163" y="730"/>
      <point x="1165" y="724"/>
      <point x="1165" y="715" type="curve"/>
      <point x="1165" y="713"/>
      <point x="1165" y="708"/>
      <point x="1165" y="708" type="curve"/>
      <point x="1132" y="635" type="line"/>
      <point x="1040" y="488" type="line"/>
      <point x="1040" y="488"/>
      <point x="1038" y="488"/>
      <point x="1037" y="488" type="curve"/>
      <point x="1033" y="488"/>
      <point x="1032" y="488"/>
      <point x="1029" y="492" type="curve"/>
      <point x="1026" y="497"/>
      <point x="1016" y="512"/>
      <point x="1015" y="514" type="curve"/>
      <point x="912" y="705" type="line"/>
      <point x="906" y="715"/>
      <point x="904" y="726"/>
      <point x="904" y="738" type="curve"/>
      <point x="904" y="761"/>
      <point x="927" y="763"/>
      <point x="945" y="767" type="curve"/>
      <point x="946" y="767"/>
      <point x="955" y="770"/>
      <point x="956" y="771" type="curve"/>
      <point x="977" y="774"/>
      <point x="978" y="769"/>
      <point x="978" y="794" type="curve"/>
      <point x="978" y="797"/>
      <point x="978" y="806"/>
      <point x="978" y="807" type="curve"/>
      <point x="976" y="813"/>
      <point x="962" y="815"/>
      <point x="960" y="815" type="curve"/>
      <point x="706" y="815" type="line"/>
      <point x="700" y="815"/>
      <point x="699" y="801"/>
      <point x="699" y="796" type="curve"/>
      <point x="699" y="790"/>
      <point x="699" y="777"/>
      <point x="706" y="774" type="curve"/>
      <point x="734" y="770"/>
      <point x="754" y="766"/>
      <point x="769" y="741" type="curve"/>
      <point x="778" y="725"/>
      <point x="822" y="648"/>
      <point x="831" y="631" type="curve"/>
      <point x="835" y="628" type="line"/>
      <point x="912" y="495" type="line"/>
      <point x="914" y="493"/>
      <point x="922" y="483"/>
      <point x="923" y="481" type="curve"/>
      <point x="931" y="467"/>
      <point x="951" y="426"/>
      <point x="952" y="422" type="curve"/>
      <point x="953" y="420"/>
      <point x="955" y="384"/>
      <point x="956" y="371" type="curve"/>
      <point x="956" y="370"/>
      <point x="956" y="353"/>
      <point x="956" y="347" type="curve"/>
      <point x="956" y="341"/>
      <point x="956" y="324"/>
      <point x="956" y="323" type="curve"/>
      <point x="955" y="306"/>
      <point x="953" y="255"/>
      <point x="952" y="250" type="curve"/>
      <point x="951" y="235"/>
      <point x="941" y="206"/>
      <point x="927" y="198" type="curve"/>
      <point x="909" y="188"/>
      <point x="888" y="183"/>
      <point x="868" y="180" type="curve"/>
      <point x="860" y="177"/>
      <point x="860" y="172"/>
    </contour>
    <contour>
      <point x="204" y="147" type="curve"/>
      <point x="239" y="146"/>
      <point x="406" y="144"/>
      <point x="442" y="143" type="curve"/>
      <point x="443" y="143"/>
      <point x="458" y="143"/>
      <point x="462" y="143" type="curve"/>
      <point x="465" y="143"/>
      <point x="480" y="143"/>
      <point x="483" y="143" type="curve"/>
      <point x="489" y="147"/>
      <point x="490" y="157"/>
      <point x="490" y="163" type="curve"/>
      <point x="490" y="188"/>
      <point x="458" y="185"/>
      <point x="442" y="191" type="curve"/>
      <point x="426" y="197"/>
      <point x="407" y="216"/>
      <point x="398" y="228" type="curve"/>
      <point x="400" y="257"/>
      <point x="394" y="286"/>
      <point x="394" y="315" type="curve"/>
      <point x="394" y="318"/>
      <point x="394" y="326"/>
      <point x="394" y="327" type="curve"/>
      <point x="395" y="334"/>
      <point x="398" y="393"/>
      <point x="398" y="400" type="curve"/>
      <point x="398" y="445"/>
      <point x="398" y="656"/>
      <point x="398" y="701" type="curve"/>
      <point x="403" y="725"/>
      <point x="403" y="754"/>
      <point x="402" y="778" type="curve"/>
      <point x="405" y="782" type="line"/>
      <point x="407" y="782"/>
      <point x="429" y="782"/>
      <point x="437" y="782" type="curve"/>
      <point x="510" y="782"/>
      <point x="559" y="783"/>
      <point x="600" y="719" type="curve"/>
      <point x="603" y="714"/>
      <point x="626" y="673"/>
      <point x="629" y="668" type="curve"/>
      <point x="630" y="667"/>
      <point x="632" y="665"/>
      <point x="633" y="664" type="curve"/>
      <point x="635" y="664"/>
      <point x="644" y="664"/>
      <point x="646" y="664" type="curve"/>
      <point x="652" y="664"/>
      <point x="661" y="663"/>
      <point x="666" y="668" type="curve"/>
      <point x="666" y="670"/>
      <point x="666" y="682"/>
      <point x="666" y="684" type="curve"/>
      <point x="666" y="688"/>
      <point x="666" y="700"/>
      <point x="666" y="701" type="curve"/>
      <point x="665" y="709"/>
      <point x="656" y="770"/>
      <point x="655" y="778" type="curve"/>
      <point x="654" y="786"/>
      <point x="658" y="807"/>
      <point x="648" y="811" type="curve"/>
      <point x="634" y="812"/>
      <point x="573" y="814"/>
      <point x="560" y="815" type="curve"/>
      <point x="532" y="815"/>
      <point x="400" y="815"/>
      <point x="372" y="815" type="curve"/>
      <point x="367" y="816"/>
      <point x="341" y="818"/>
      <point x="336" y="818" type="curve"/>
      <point x="330" y="819"/>
      <point x="286" y="818"/>
      <point x="281" y="818" type="curve"/>
      <point x="265" y="819"/>
      <point x="135" y="822"/>
      <point x="119" y="822" type="curve"/>
      <point x="118" y="822"/>
      <point x="97" y="822"/>
      <point x="90" y="822" type="curve"/>
      <point x="85" y="822"/>
      <point x="65" y="822"/>
      <point x="60" y="822" type="curve"/>
      <point x="57" y="820"/>
      <point x="54" y="815"/>
      <point x="53" y="811" type="curve"/>
      <point x="51" y="797"/>
      <point x="43" y="733"/>
      <point x="42" y="719" type="curve"/>
      <point x="42" y="718"/>
      <point x="42" y="704"/>
      <point x="42" y="699" type="curve"/>
      <point x="42" y="696"/>
      <point x="42" y="682"/>
      <point x="42" y="679" type="curve"/>
      <point x="47" y="672"/>
      <point x="56" y="671"/>
      <point x="63" y="671" type="curve"/>
      <point x="82" y="671"/>
      <point x="85" y="696"/>
      <point x="94" y="708" type="curve"/>
      <point x="118" y="746"/>
      <point x="144" y="780"/>
      <point x="193" y="782" type="curve"/>
      <point x="194" y="782"/>
      <point x="224" y="782"/>
      <point x="235" y="782" type="curve"/>
      <point x="253" y="782"/>
      <point x="280" y="784"/>
      <point x="299" y="778" type="curve"/>
      <point x="299" y="766"/>
      <point x="299" y="708"/>
      <point x="299" y="695" type="curve"/>
      <point x="299" y="674"/>
      <point x="299" y="617"/>
      <point x="299" y="613" type="curve"/>
      <point x="299" y="601"/>
      <point x="296" y="507"/>
      <point x="295" y="495" type="curve"/>
      <point x="294" y="405"/>
      <point x="296" y="320"/>
      <point x="288" y="231" type="curve"/>
      <point x="287" y="230"/>
      <point x="282" y="222"/>
      <point x="281" y="220" type="curve"/>
      <point x="280" y="219"/>
      <point x="274" y="207"/>
      <point x="273" y="206" type="curve"/>
      <point x="257" y="189"/>
      <point x="223" y="186"/>
      <point x="204" y="183" type="curve"/>
      <point x="195" y="180"/>
      <point x="196" y="165"/>
      <point x="196" y="157" type="curve"/>
      <point x="196" y="155"/>
      <point x="196" y="151"/>
      <point x="196" y="150" type="curve"/>
      <point x="197" y="149"/>
      <point x="202" y="146"/>
    </contour>
  </outline>
</glyph>
<glyph name="_122" format="1">
  <advance width="648"/>
  <outline>
    <contour>
      <point x="52" y="143" type="curve"/>
      <point x="87" y="143"/>
      <point x="251" y="143"/>
      <point x="287" y="143" type="curve"/>
      <point x="293" y="143"/>
      <point x="346" y="140"/>
      <point x="353" y="139" type="curve"/>
      <point x="363" y="139"/>
      <point x="449" y="140"/>
      <point x="459" y="139" type="curve"/>
      <point x="474" y="139"/>
      <point x="543" y="137"/>
      <point x="558" y="136" type="curve"/>
      <point x="565" y="137"/>
      <point x="568" y="141"/>
      <point x="569" y="147" type="curve"/>
      <point x="598" y="264" type="line"/>
      <point x="597" y="271"/>
      <point x="602" y="278"/>
      <point x="602" y="285" type="curve"/>
      <point x="602" y="285"/>
      <point x="602" y="286"/>
      <point x="602" y="286" type="curve"/>
      <point x="601" y="290"/>
      <point x="595" y="301"/>
      <point x="595" y="301" type="curve"/>
      <point x="594" y="301"/>
      <point x="587" y="302"/>
      <point x="584" y="302" type="curve"/>
      <point x="581" y="302"/>
      <point x="573" y="301"/>
      <point x="573" y="301" type="curve"/>
      <point x="572" y="300"/>
      <point x="561" y="290"/>
      <point x="558" y="286" type="curve"/>
      <point x="555" y="282"/>
      <point x="529" y="246"/>
      <point x="525" y="242" type="curve"/>
      <point x="519" y="234"/>
      <point x="500" y="218"/>
      <point x="492" y="213" type="curve"/>
      <point x="481" y="206"/>
      <point x="448" y="188"/>
      <point x="444" y="187" type="curve"/>
      <point x="442" y="186"/>
      <point x="401" y="181"/>
      <point x="386" y="180" type="curve"/>
      <point x="385" y="180"/>
      <point x="378" y="180"/>
      <point x="375" y="180" type="curve"/>
      <point x="346" y="180"/>
      <point x="316" y="185"/>
      <point x="287" y="183" type="curve"/>
      <point x="283" y="187"/>
      <point x="265" y="205"/>
      <point x="261" y="209" type="curve"/>
      <point x="260" y="210"/>
      <point x="258" y="216"/>
      <point x="257" y="217" type="curve"/>
      <point x="256" y="218"/>
      <point x="243" y="233"/>
      <point x="243" y="235" type="curve"/>
      <point x="242" y="238"/>
      <point x="243" y="265"/>
      <point x="243" y="268" type="curve"/>
      <point x="242" y="270"/>
      <point x="239" y="291"/>
      <point x="239" y="294" type="curve"/>
      <point x="239" y="295"/>
      <point x="241" y="300"/>
      <point x="243" y="301" type="curve"/>
      <point x="242" y="322"/>
      <point x="242" y="419"/>
      <point x="243" y="440" type="curve"/>
      <point x="243" y="445"/>
      <point x="245" y="465"/>
      <point x="246" y="470" type="curve"/>
      <point x="247" y="476"/>
      <point x="258" y="474"/>
      <point x="259" y="474" type="curve"/>
      <point x="262" y="474"/>
      <point x="271" y="473"/>
      <point x="272" y="473" type="curve"/>
      <point x="279" y="473"/>
      <point x="338" y="470"/>
      <point x="345" y="470" type="curve"/>
      <point x="384" y="468"/>
      <point x="432" y="473"/>
      <point x="448" y="429" type="curve"/>
      <point x="451" y="422"/>
      <point x="464" y="386"/>
      <point x="466" y="378" type="curve"/>
      <point x="470" y="374" type="line"/>
      <point x="499" y="374" type="line"/>
      <point x="507" y="382" type="line"/>
      <point x="506" y="402"/>
      <point x="506" y="497"/>
      <point x="507" y="517" type="curve"/>
      <point x="507" y="523"/>
      <point x="510" y="567"/>
      <point x="510" y="572" type="curve"/>
      <point x="510" y="583"/>
      <point x="509" y="602"/>
      <point x="494" y="602" type="curve"/>
      <point x="487" y="602"/>
      <point x="482" y="601"/>
      <point x="474" y="598" type="curve"/>
      <point x="467" y="574"/>
      <point x="457" y="535"/>
      <point x="430" y="525" type="curve"/>
      <point x="400" y="513"/>
      <point x="371" y="510"/>
      <point x="338" y="510" type="curve"/>
      <point x="336" y="510"/>
      <point x="328" y="510"/>
      <point x="327" y="510" type="curve"/>
      <point x="304" y="511"/>
      <point x="250" y="514"/>
      <point x="250" y="514" type="curve"/>
      <point x="246" y="517" type="line"/>
      <point x="246" y="518"/>
      <point x="246" y="537"/>
      <point x="246" y="545" type="curve"/>
      <point x="246" y="619"/>
      <point x="251" y="693"/>
      <point x="250" y="767" type="curve"/>
      <point x="278" y="772"/>
      <point x="305" y="771"/>
      <point x="334" y="771" type="curve"/>
      <point x="346" y="771"/>
      <point x="380" y="771"/>
      <point x="382" y="771" type="curve"/>
      <point x="387" y="770"/>
      <point x="418" y="768"/>
      <point x="426" y="767" type="curve"/>
      <point x="447" y="765"/>
      <point x="462" y="754"/>
      <point x="477" y="741" type="curve"/>
      <point x="479" y="740"/>
      <point x="484" y="735"/>
      <point x="485" y="734" type="curve"/>
      <point x="521" y="672" type="line"/>
      <point x="525" y="666"/>
      <point x="532" y="664"/>
      <point x="538" y="664" type="curve"/>
      <point x="538" y="664"/>
      <point x="540" y="664"/>
      <point x="540" y="664" type="curve"/>
      <point x="545" y="665"/>
      <point x="558" y="668"/>
      <point x="558" y="668" type="curve"/>
      <point x="562" y="670"/>
      <point x="562" y="679"/>
      <point x="562" y="683" type="curve"/>
      <point x="562" y="685"/>
      <point x="562" y="689"/>
      <point x="562" y="690" type="curve"/>
      <point x="561" y="706"/>
      <point x="559" y="780"/>
      <point x="558" y="796" type="curve"/>
      <point x="554" y="801"/>
      <point x="549" y="806"/>
      <point x="543" y="807" type="curve"/>
      <point x="527" y="808"/>
      <point x="450" y="811"/>
      <point x="433" y="811" type="curve"/>
      <point x="426" y="811"/>
      <point x="294" y="811"/>
      <point x="244" y="811" type="curve"/>
      <point x="216" y="811"/>
      <point x="84" y="811"/>
      <point x="55" y="811" type="curve"/>
      <point x="50" y="806"/>
      <point x="51" y="794"/>
      <point x="51" y="788" type="curve"/>
      <point x="51" y="786"/>
      <point x="52" y="779"/>
      <point x="52" y="778" type="curve"/>
      <point x="55" y="774" type="line"/>
      <point x="63" y="773"/>
      <point x="96" y="765"/>
      <point x="103" y="763" type="curve"/>
      <point x="104" y="763"/>
      <point x="109" y="760"/>
      <point x="110" y="760" type="curve"/>
      <point x="123" y="748"/>
      <point x="137" y="737"/>
      <point x="140" y="719" type="curve"/>
      <point x="141" y="702"/>
      <point x="143" y="623"/>
      <point x="143" y="606" type="curve"/>
      <point x="143" y="603"/>
      <point x="144" y="569"/>
      <point x="144" y="557" type="curve"/>
      <point x="144" y="544"/>
      <point x="143" y="512"/>
      <point x="143" y="510" type="curve"/>
      <point x="143" y="503"/>
      <point x="140" y="447"/>
      <point x="140" y="440" type="curve"/>
      <point x="139" y="411"/>
      <point x="139" y="275"/>
      <point x="140" y="246" type="curve"/>
      <point x="140" y="228"/>
      <point x="126" y="208"/>
      <point x="118" y="194" type="curve"/>
      <point x="112" y="186"/>
      <point x="105" y="184"/>
      <point x="96" y="183" type="curve"/>
      <point x="89" y="183"/>
      <point x="58" y="180"/>
      <point x="52" y="180" type="curve"/>
      <point x="43" y="178"/>
      <point x="44" y="168"/>
      <point x="44" y="161" type="curve"/>
      <point x="44" y="155"/>
      <point x="43" y="145"/>
    </contour>
  </outline>
</glyph>
<glyph name="_133" format="1">
  <advance width="1153"/>
  <outline>
    <contour>
      <point x="758" y="75" type="curve"/>
      <point x="867" y="77"/>
      <point x="976" y="71"/>
      <point x="1086" y="71" type="curve"/>
      <point x="1103" y="71"/>
      <point x="1106" y="80"/>
      <point x="1106" y="95" type="curve"/>
      <point x="1106" y="106"/>
      <point x="1107" y="115"/>
      <point x="1097" y="122" type="curve"/>
      <point x="1063" y="123"/>
      <point x="1023" y="139"/>
      <point x="1012" y="174" type="curve"/>
      <point x="999" y="215"/>
      <point x="994" y="249"/>
      <point x="988" y="292" type="curve"/>
      <point x="988" y="293"/>
      <point x="988" y="300"/>
      <point x="988" y="301" type="curve"/>
      <point x="965" y="456" type="line"/>
      <point x="965" y="457"/>
      <point x="965" y="460"/>
      <point x="965" y="461" type="curve"/>
      <point x="963" y="472"/>
      <point x="952" y="554"/>
      <point x="951" y="565" type="curve"/>
      <point x="942" y="632"/>
      <point x="932" y="703"/>
      <point x="927" y="772" type="curve"/>
      <point x="927" y="773"/>
      <point x="927" y="793"/>
      <point x="927" y="800" type="curve"/>
      <point x="927" y="830"/>
      <point x="933" y="862"/>
      <point x="960" y="880" type="curve"/>
      <point x="981" y="894"/>
      <point x="1017" y="876"/>
      <point x="1017" y="911" type="curve"/>
      <point x="1017" y="920"/>
      <point x="1012" y="941"/>
      <point x="998" y="941" type="curve"/>
      <point x="786" y="941" type="line"/>
      <point x="777" y="932" type="line"/>
      <point x="777" y="877"/>
      <point x="767" y="819"/>
      <point x="753" y="767" type="curve"/>
      <point x="745" y="738"/>
      <point x="719" y="652"/>
      <point x="715" y="645" type="curve"/>
      <point x="711" y="635" type="line"/>
      <point x="584" y="311" type="line"/>
      <point x="573" y="348"/>
      <point x="552" y="382"/>
      <point x="541" y="419" type="curve"/>
      <point x="537" y="435"/>
      <point x="536" y="451"/>
      <point x="527" y="466" type="curve"/>
      <point x="447" y="720" type="line"/>
      <point x="447" y="725" type="line"/>
      <point x="439" y="745"/>
      <point x="406" y="840"/>
      <point x="400" y="861" type="curve"/>
      <point x="397" y="872"/>
      <point x="387" y="925"/>
      <point x="386" y="936" type="curve"/>
      <point x="384" y="940"/>
      <point x="376" y="946"/>
      <point x="372" y="946" type="curve"/>
      <point x="174" y="946" type="line"/>
      <point x="165" y="941" type="line"/>
      <point x="164" y="941"/>
      <point x="161" y="921"/>
      <point x="160" y="913" type="curve"/>
      <point x="160" y="912"/>
      <point x="160" y="909"/>
      <point x="160" y="908" type="curve"/>
      <point x="160" y="891"/>
      <point x="218" y="890"/>
      <point x="235" y="861" type="curve"/>
      <point x="237" y="859"/>
      <point x="243" y="839"/>
      <point x="245" y="833" type="curve"/>
      <point x="246" y="826"/>
      <point x="250" y="807"/>
      <point x="249" y="805" type="curve"/>
      <point x="217" y="555" type="line"/>
      <point x="217" y="551" type="line"/>
      <point x="169" y="264" type="line"/>
      <point x="169" y="261"/>
      <point x="162" y="238"/>
      <point x="160" y="231" type="curve"/>
      <point x="160" y="230"/>
      <point x="156" y="222"/>
      <point x="155" y="221" type="curve"/>
      <point x="141" y="182"/>
      <point x="139" y="177"/>
      <point x="104" y="151" type="curve"/>
      <point x="103" y="150"/>
      <point x="100" y="146"/>
      <point x="99" y="146" type="curve"/>
      <point x="95" y="144"/>
      <point x="61" y="134"/>
      <point x="57" y="132" type="curve"/>
      <point x="47" y="127"/>
      <point x="47" y="124"/>
      <point x="47" y="116" type="curve"/>
      <point x="47" y="105"/>
      <point x="49" y="97"/>
      <point x="52" y="85" type="curve"/>
      <point x="76" y="84"/>
      <point x="188" y="80"/>
      <point x="212" y="80" type="curve"/>
      <point x="217" y="80"/>
      <point x="261" y="80"/>
      <point x="275" y="80" type="curve"/>
      <point x="286" y="80"/>
      <point x="315" y="80"/>
      <point x="315" y="80" type="curve"/>
      <point x="325" y="89" type="line"/>
      <point x="325" y="127" type="line"/>
      <point x="325" y="137"/>
      <point x="303" y="135"/>
      <point x="297" y="136" type="curve"/>
      <point x="289" y="139"/>
      <point x="269" y="145"/>
      <point x="268" y="146" type="curve"/>
      <point x="265" y="148"/>
      <point x="249" y="164"/>
      <point x="245" y="169" type="curve"/>
      <point x="228" y="191"/>
      <point x="230" y="219"/>
      <point x="230" y="244" type="curve"/>
      <point x="230" y="254"/>
      <point x="230" y="281"/>
      <point x="231" y="282" type="curve"/>
      <point x="231" y="286"/>
      <point x="235" y="312"/>
      <point x="235" y="315" type="curve"/>
      <point x="236" y="318"/>
      <point x="235" y="341"/>
      <point x="235" y="344" type="curve"/>
      <point x="237" y="357"/>
      <point x="242" y="360"/>
      <point x="240" y="372" type="curve"/>
      <point x="268" y="551" type="line"/>
      <point x="268" y="560" type="line"/>
      <point x="297" y="744" type="line"/>
      <point x="302" y="749" type="line"/>
      <point x="381" y="518" type="line"/>
      <point x="388" y="508"/>
      <point x="386" y="502"/>
      <point x="391" y="489" type="curve"/>
      <point x="399" y="466"/>
      <point x="438" y="357"/>
      <point x="447" y="334" type="curve"/>
      <point x="443" y="323"/>
      <point x="454" y="321"/>
      <point x="457" y="311" type="curve"/>
      <point x="508" y="94" type="line"/>
      <point x="513" y="75"/>
      <point x="533" y="75"/>
      <point x="549" y="75" type="curve"/>
      <point x="558" y="75"/>
      <point x="566" y="74"/>
      <point x="569" y="85" type="curve"/>
      <point x="697" y="452" type="line"/>
      <point x="699" y="456"/>
      <point x="709" y="476"/>
      <point x="711" y="480" type="curve"/>
      <point x="711" y="480"/>
      <point x="711" y="484"/>
      <point x="711" y="485" type="curve"/>
      <point x="711" y="489"/>
      <point x="715" y="502"/>
      <point x="715" y="504" type="curve"/>
      <point x="720" y="517"/>
      <point x="757" y="613"/>
      <point x="767" y="640" type="curve"/>
      <point x="768" y="641"/>
      <point x="772" y="648"/>
      <point x="772" y="649" type="curve"/>
      <point x="776" y="662"/>
      <point x="792" y="721"/>
      <point x="795" y="734" type="curve"/>
      <point x="805" y="734" type="line"/>
      <point x="806" y="734"/>
      <point x="812" y="695"/>
      <point x="814" y="678" type="curve"/>
      <point x="815" y="674"/>
      <point x="815" y="658"/>
      <point x="814" y="654" type="curve"/>
      <point x="852" y="372" type="line"/>
      <point x="850" y="350"/>
      <point x="853" y="323"/>
      <point x="861" y="301" type="curve"/>
      <point x="861" y="193" type="line"/>
      <point x="861" y="192"/>
      <point x="848" y="169"/>
      <point x="842" y="160" type="curve"/>
      <point x="838" y="153"/>
      <point x="826" y="144"/>
      <point x="819" y="141" type="curve"/>
      <point x="800" y="134"/>
      <point x="766" y="141"/>
      <point x="758" y="122" type="curve"/>
      <point x="755" y="116"/>
      <point x="753" y="103"/>
      <point x="753" y="94" type="curve"/>
      <point x="753" y="87"/>
      <point x="754" y="84"/>
    </contour>
    <contour>
      <point x="697" y="139" type="curve"/>
      <point x="694" y="139"/>
      <point x="694" y="134"/>
      <point x="697" y="134" type="curve"/>
      <point x="699" y="134"/>
      <point x="699" y="139"/>
    </contour>
    <contour>
      <point x="-47" y="426" type="curve"/>
      <point x="-49" y="426"/>
      <point x="-49" y="421"/>
      <point x="-47" y="421" type="curve"/>
      <point x="-45" y="421"/>
      <point x="-45" y="426"/>
    </contour>
  </outline>
</glyph>
<glyph name="_28" format="1">
  <advance width="920"/>
  <outline>
    <contour>
      <point x="41" y="205" type="curve"/>
      <point x="41" y="187"/>
      <point x="58" y="190"/>
      <point x="72" y="190" type="curve"/>
      <point x="250" y="190" type="line"/>
      <point x="255" y="190"/>
      <point x="279" y="189"/>
      <point x="284" y="188" type="curve"/>
      <point x="284" y="188"/>
      <point x="286" y="188"/>
      <point x="286" y="188" type="curve"/>
      <point x="293" y="188"/>
      <point x="298" y="193"/>
      <point x="298" y="200" type="curve"/>
      <point x="298" y="208"/>
      <point x="297" y="220"/>
      <point x="294" y="226" type="curve"/>
      <point x="291" y="236"/>
      <point x="278" y="234"/>
      <point x="270" y="236" type="curve"/>
      <point x="250" y="242"/>
      <point x="230" y="249"/>
      <point x="223" y="271" type="curve"/>
      <point x="215" y="291"/>
      <point x="220" y="320"/>
      <point x="219" y="339" type="curve"/>
      <point x="219" y="347"/>
      <point x="216" y="407"/>
      <point x="216" y="414" type="curve"/>
      <point x="216" y="418"/>
      <point x="215" y="475"/>
      <point x="215" y="497" type="curve"/>
      <point x="215" y="509"/>
      <point x="216" y="566"/>
      <point x="216" y="579" type="curve"/>
      <point x="217" y="592"/>
      <point x="275" y="620"/>
      <point x="288" y="620" type="curve"/>
      <point x="288" y="615" type="line"/>
      <point x="294" y="615"/>
      <point x="288" y="620"/>
      <point x="294" y="623" type="curve"/>
      <point x="296" y="624"/>
      <point x="308" y="627"/>
      <point x="312" y="627" type="curve"/>
      <point x="313" y="627"/>
      <point x="331" y="627"/>
      <point x="337" y="627" type="curve"/>
      <point x="341" y="627"/>
      <point x="359" y="627"/>
      <point x="363" y="627" type="curve"/>
      <point x="395" y="617"/>
      <point x="404" y="593"/>
      <point x="414" y="565" type="curve"/>
      <point x="419" y="516"/>
      <point x="418" y="477"/>
      <point x="418" y="427" type="curve"/>
      <point x="418" y="384"/>
      <point x="418" y="341"/>
      <point x="414" y="298" type="curve"/>
      <point x="414" y="293"/>
      <point x="411" y="276"/>
      <point x="411" y="274" type="curve"/>
      <point x="406" y="257"/>
      <point x="391" y="245"/>
      <point x="377" y="236" type="curve"/>
      <point x="375" y="235"/>
      <point x="370" y="233"/>
      <point x="370" y="233" type="curve"/>
      <point x="368" y="233"/>
      <point x="357" y="236"/>
      <point x="356" y="236" type="curve"/>
      <point x="356" y="236"/>
      <point x="355" y="236"/>
      <point x="354" y="236" type="curve"/>
      <point x="351" y="236"/>
      <point x="339" y="230"/>
      <point x="339" y="226" type="curve"/>
      <point x="339" y="195" type="line"/>
      <point x="342" y="192" type="line"/>
      <point x="343" y="191"/>
      <point x="412" y="189"/>
      <point x="442" y="188" type="curve"/>
      <point x="445" y="188"/>
      <point x="490" y="188"/>
      <point x="507" y="188" type="curve"/>
      <point x="517" y="188"/>
      <point x="562" y="188"/>
      <point x="572" y="188" type="curve"/>
      <point x="574" y="189"/>
      <point x="583" y="191"/>
      <point x="586" y="192" type="curve"/>
      <point x="591" y="194"/>
      <point x="589" y="201"/>
      <point x="589" y="205" type="curve"/>
      <point x="589" y="245"/>
      <point x="559" y="228"/>
      <point x="538" y="250" type="curve"/>
      <point x="519" y="269"/>
      <point x="519" y="294"/>
      <point x="514" y="318" type="curve"/>
      <point x="514" y="586" type="line"/>
      <point x="514" y="586"/>
      <point x="516" y="588"/>
      <point x="517" y="589" type="curve"/>
      <point x="525" y="594"/>
      <point x="549" y="609"/>
      <point x="551" y="610" type="curve"/>
      <point x="561" y="614"/>
      <point x="594" y="626"/>
      <point x="599" y="627" type="curve"/>
      <point x="600" y="627"/>
      <point x="615" y="627"/>
      <point x="620" y="627" type="curve"/>
      <point x="650" y="627"/>
      <point x="680" y="621"/>
      <point x="695" y="592" type="curve"/>
      <point x="698" y="587"/>
      <point x="708" y="565"/>
      <point x="709" y="562" type="curve"/>
      <point x="709" y="560"/>
      <point x="709" y="549"/>
      <point x="709" y="548" type="curve"/>
      <point x="709" y="543"/>
      <point x="712" y="522"/>
      <point x="712" y="517" type="curve"/>
      <point x="712" y="503"/>
      <point x="713" y="439"/>
      <point x="713" y="425" type="curve"/>
      <point x="713" y="400"/>
      <point x="712" y="336"/>
      <point x="712" y="332" type="curve"/>
      <point x="712" y="327"/>
      <point x="710" y="293"/>
      <point x="709" y="284" type="curve"/>
      <point x="708" y="280"/>
      <point x="706" y="268"/>
      <point x="705" y="267" type="curve"/>
      <point x="704" y="265"/>
      <point x="690" y="251"/>
      <point x="685" y="247" type="curve"/>
      <point x="684" y="246"/>
      <point x="679" y="243"/>
      <point x="678" y="243" type="curve"/>
      <point x="673" y="242"/>
      <point x="649" y="237"/>
      <point x="644" y="236" type="curve"/>
      <point x="636" y="232"/>
      <point x="633" y="222"/>
      <point x="633" y="214" type="curve"/>
      <point x="633" y="206"/>
      <point x="634" y="192"/>
      <point x="644" y="188" type="curve"/>
      <point x="647" y="188"/>
      <point x="661" y="188"/>
      <point x="664" y="188" type="curve"/>
      <point x="717" y="188"/>
      <point x="769" y="192"/>
      <point x="821" y="192" type="curve"/>
      <point x="824" y="192"/>
      <point x="832" y="192"/>
      <point x="832" y="192" type="curve"/>
      <point x="834" y="192"/>
      <point x="854" y="188"/>
      <point x="856" y="188" type="curve"/>
      <point x="858" y="188"/>
      <point x="870" y="191"/>
      <point x="873" y="192" type="curve"/>
      <point x="881" y="195"/>
      <point x="880" y="209"/>
      <point x="880" y="214" type="curve"/>
      <point x="880" y="240"/>
      <point x="874" y="233"/>
      <point x="853" y="240" type="curve"/>
      <point x="819" y="250"/>
      <point x="809" y="275"/>
      <point x="808" y="308" type="curve"/>
      <point x="808" y="315"/>
      <point x="805" y="373"/>
      <point x="805" y="380" type="curve"/>
      <point x="805" y="384"/>
      <point x="808" y="414"/>
      <point x="808" y="418" type="curve"/>
      <point x="808" y="421"/>
      <point x="808" y="477"/>
      <point x="808" y="498" type="curve"/>
      <point x="808" y="510"/>
      <point x="808" y="567"/>
      <point x="808" y="579" type="curve"/>
      <point x="805" y="653"/>
      <point x="739" y="709"/>
      <point x="666" y="709" type="curve"/>
      <point x="638" y="709"/>
      <point x="607" y="707"/>
      <point x="582" y="692" type="curve"/>
      <point x="554" y="675"/>
      <point x="526" y="654"/>
      <point x="503" y="630" type="curve"/>
      <point x="502" y="630"/>
      <point x="494" y="632"/>
      <point x="493" y="634" type="curve"/>
      <point x="492" y="635"/>
      <point x="487" y="646"/>
      <point x="486" y="647" type="curve"/>
      <point x="482" y="653"/>
      <point x="468" y="673"/>
      <point x="466" y="675" type="curve"/>
      <point x="451" y="690"/>
      <point x="425" y="704"/>
      <point x="404" y="709" type="curve"/>
      <point x="399" y="709"/>
      <point x="378" y="709"/>
      <point x="373" y="709" type="curve"/>
      <point x="325" y="709"/>
      <point x="303" y="698"/>
      <point x="264" y="671" type="curve"/>
      <point x="260" y="669"/>
      <point x="230" y="646"/>
      <point x="226" y="644" type="curve"/>
      <point x="225" y="643"/>
      <point x="220" y="641"/>
      <point x="219" y="640" type="curve"/>
      <point x="219" y="640"/>
      <point x="216" y="641"/>
      <point x="216" y="641" type="curve"/>
      <point x="216" y="699" type="line"/>
      <point x="216" y="710"/>
      <point x="201" y="709"/>
      <point x="193" y="709" type="curve"/>
      <point x="184" y="709"/>
      <point x="173" y="702"/>
      <point x="164" y="699" type="curve"/>
      <point x="158" y="696"/>
      <point x="112" y="674"/>
      <point x="106" y="671" type="curve"/>
      <point x="87" y="663"/>
      <point x="67" y="659"/>
      <point x="48" y="651" type="curve"/>
      <point x="43" y="649"/>
      <point x="41" y="641"/>
      <point x="41" y="637" type="curve"/>
      <point x="41" y="627"/>
      <point x="71" y="614"/>
      <point x="79" y="610" type="curve"/>
      <point x="82" y="608"/>
      <point x="113" y="591"/>
      <point x="116" y="589" type="curve"/>
      <point x="117" y="589"/>
      <point x="120" y="586"/>
      <point x="120" y="586" type="curve"/>
      <point x="123" y="558" type="line"/>
      <point x="123" y="322" type="line"/>
      <point x="123" y="319"/>
      <point x="121" y="295"/>
      <point x="120" y="288" type="curve"/>
      <point x="115" y="256"/>
      <point x="90" y="243"/>
      <point x="62" y="236" type="curve"/>
      <point x="56" y="235"/>
      <point x="52" y="239"/>
      <point x="48" y="233" type="curve"/>
      <point x="48" y="232"/>
      <point x="45" y="225"/>
      <point x="44" y="223" type="curve"/>
      <point x="43" y="218"/>
      <point x="41" y="207"/>
    </contour>
    <contour>
      <point x="476" y="390" type="curve"/>
      <point x="478" y="390"/>
      <point x="478" y="388"/>
      <point x="476" y="387" type="curve"/>
      <point x="474" y="386"/>
      <point x="474" y="391"/>
    </contour>
    <contour>
      <point x="863" y="534" type="curve"/>
      <point x="864" y="536"/>
      <point x="851" y="536"/>
      <point x="853" y="534" type="curve"/>
      <point x="854" y="532"/>
      <point x="861" y="532"/>
    </contour>
  </outline>
</glyph>
<glyph name="_30" format="1">
  <advance width="332"/>
  <outline>
    <contour>
      <point x="96" y="317" type="curve"/>
      <point x="96" y="301"/>
      <point x="96" y="261"/>
      <point x="96" y="260" type="curve"/>
      <point x="110" y="216" type="line"/>
      <point x="110" y="215"/>
      <point x="125" y="200"/>
      <point x="130" y="195" type="curve"/>
      <point x="134" y="192"/>
      <point x="150" y="183"/>
      <point x="154" y="182" type="curve"/>
      <point x="170" y="178"/>
      <point x="187" y="178"/>
      <point x="203" y="178" type="curve"/>
      <point x="231" y="178"/>
      <point x="273" y="183"/>
      <point x="291" y="205" type="curve"/>
      <point x="292" y="208"/>
      <point x="292" y="217"/>
      <point x="292" y="219" type="curve"/>
      <point x="292" y="236"/>
      <point x="294" y="241"/>
      <point x="274" y="243" type="curve"/>
      <point x="270" y="244"/>
      <point x="234" y="246"/>
      <point x="230" y="247" type="curve"/>
      <point x="228" y="247"/>
      <point x="221" y="249"/>
      <point x="220" y="250" type="curve"/>
      <point x="214" y="253"/>
      <point x="200" y="263"/>
      <point x="199" y="264" type="curve"/>
      <point x="198" y="265"/>
      <point x="193" y="282"/>
      <point x="192" y="288" type="curve"/>
      <point x="191" y="293"/>
      <point x="189" y="312"/>
      <point x="189" y="315" type="curve"/>
      <point x="189" y="603" type="line"/>
      <point x="192" y="637" type="line"/>
      <point x="281" y="637" type="line"/>
      <point x="292" y="637"/>
      <point x="292" y="652"/>
      <point x="292" y="659" type="curve"/>
      <point x="292" y="668"/>
      <point x="293" y="683"/>
      <point x="281" y="685" type="curve"/>
      <point x="276" y="686"/>
      <point x="252" y="688"/>
      <point x="247" y="688" type="curve"/>
      <point x="239" y="689"/>
      <point x="200" y="689"/>
      <point x="192" y="688" type="curve"/>
      <point x="189" y="692" type="line"/>
      <point x="189" y="692"/>
      <point x="188" y="701"/>
      <point x="188" y="704" type="curve"/>
      <point x="188" y="724"/>
      <point x="192" y="744"/>
      <point x="192" y="764" type="curve"/>
      <point x="192" y="768"/>
      <point x="191" y="781"/>
      <point x="185" y="781" type="curve"/>
      <point x="158" y="781" type="line"/>
      <point x="151" y="772"/>
      <point x="115" y="731"/>
      <point x="106" y="723" type="curve"/>
      <point x="104" y="720"/>
      <point x="85" y="703"/>
      <point x="79" y="699" type="curve"/>
      <point x="77" y="697"/>
      <point x="57" y="683"/>
      <point x="55" y="682" type="curve"/>
      <point x="51" y="678"/>
      <point x="39" y="666"/>
      <point x="38" y="664" type="curve"/>
      <point x="38" y="664"/>
      <point x="37" y="658"/>
      <point x="37" y="655" type="curve"/>
      <point x="37" y="653"/>
      <point x="38" y="645"/>
      <point x="38" y="644" type="curve"/>
      <point x="38" y="642"/>
      <point x="41" y="639"/>
      <point x="41" y="639" type="curve"/>
      <point x="89" y="639" type="line"/>
      <point x="96" y="630" type="line"/>
      <point x="96" y="630"/>
      <point x="99" y="596"/>
      <point x="100" y="582" type="curve"/>
      <point x="100" y="582"/>
      <point x="100" y="577"/>
      <point x="100" y="576" type="curve"/>
      <point x="100" y="574"/>
      <point x="100" y="569"/>
      <point x="100" y="568" type="curve"/>
      <point x="99" y="559"/>
      <point x="96" y="479"/>
      <point x="96" y="469" type="curve"/>
      <point x="96" y="466"/>
      <point x="100" y="438"/>
      <point x="100" y="435" type="curve"/>
      <point x="100" y="432"/>
      <point x="96" y="404"/>
      <point x="96" y="401" type="curve"/>
      <point x="96" y="396"/>
      <point x="96" y="337"/>
    </contour>
  </outline>
</glyph>
<glyph name="_32" format="1">
  <advance width="529"/>
  <outline>
    <contour>
      <point x="34" y="224" type="curve"/>
      <point x="34" y="220"/>
      <point x="34" y="203"/>
      <point x="41" y="202" type="curve"/>
      <point x="96" y="199" type="line"/>
      <point x="431" y="199" type="line"/>
      <point x="438" y="199"/>
      <point x="440" y="204"/>
      <point x="442" y="209" type="curve"/>
      <point x="449" y="229"/>
      <point x="485" y="322"/>
      <point x="493" y="342" type="curve"/>
      <point x="493" y="343"/>
      <point x="493" y="345"/>
      <point x="493" y="346" type="curve"/>
      <point x="493" y="347"/>
      <point x="493" y="349"/>
      <point x="493" y="349" type="curve"/>
      <point x="492" y="351"/>
      <point x="487" y="356"/>
      <point x="486" y="356" type="curve"/>
      <point x="455" y="356" type="line"/>
      <point x="454" y="356"/>
      <point x="450" y="351"/>
      <point x="448" y="349" type="curve"/>
      <point x="435" y="326"/>
      <point x="427" y="300"/>
      <point x="397" y="295" type="curve"/>
      <point x="386" y="293"/>
      <point x="352" y="288"/>
      <point x="349" y="288" type="curve"/>
      <point x="343" y="287"/>
      <point x="291" y="288"/>
      <point x="284" y="288" type="curve"/>
      <point x="281" y="288"/>
      <point x="259" y="284"/>
      <point x="257" y="284" type="curve"/>
      <point x="256" y="284"/>
      <point x="249" y="284"/>
      <point x="247" y="284" type="curve"/>
      <point x="244" y="284"/>
      <point x="237" y="284"/>
      <point x="236" y="284" type="curve"/>
      <point x="219" y="285"/>
      <point x="178" y="287"/>
      <point x="178" y="288" type="curve"/>
      <point x="171" y="291" type="line"/>
      <point x="172" y="293"/>
      <point x="180" y="300"/>
      <point x="181" y="301" type="curve"/>
      <point x="188" y="307"/>
      <point x="243" y="347"/>
      <point x="250" y="353" type="curve"/>
      <point x="252" y="354"/>
      <point x="265" y="368"/>
      <point x="267" y="370" type="curve"/>
      <point x="268" y="371"/>
      <point x="279" y="376"/>
      <point x="281" y="377" type="curve"/>
      <point x="285" y="379"/>
      <point x="302" y="391"/>
      <point x="305" y="394" type="curve"/>
      <point x="368" y="446"/>
      <point x="442" y="495"/>
      <point x="442" y="585" type="curve"/>
      <point x="442" y="689"/>
      <point x="352" y="754"/>
      <point x="254" y="754" type="curve"/>
      <point x="235" y="754"/>
      <point x="217" y="746"/>
      <point x="198" y="743" type="curve"/>
      <point x="194" y="743"/>
      <point x="182" y="740"/>
      <point x="181" y="740" type="curve"/>
      <point x="177" y="738"/>
      <point x="153" y="726"/>
      <point x="147" y="723" type="curve"/>
      <point x="135" y="716"/>
      <point x="124" y="704"/>
      <point x="113" y="695" type="curve"/>
      <point x="108" y="692"/>
      <point x="94" y="680"/>
      <point x="92" y="678" type="curve"/>
      <point x="91" y="677"/>
      <point x="86" y="669"/>
      <point x="85" y="668" type="curve"/>
      <point x="83" y="665"/>
      <point x="71" y="653"/>
      <point x="68" y="651" type="curve"/>
      <point x="68" y="650"/>
      <point x="68" y="646"/>
      <point x="68" y="646" type="curve"/>
      <point x="68" y="635"/>
      <point x="78" y="623"/>
      <point x="89" y="623" type="curve"/>
      <point x="89" y="623"/>
      <point x="92" y="623"/>
      <point x="92" y="623" type="curve"/>
      <point x="138" y="651"/>
      <point x="175" y="672"/>
      <point x="230" y="672" type="curve"/>
      <point x="254" y="672"/>
      <point x="275" y="665"/>
      <point x="294" y="651" type="curve"/>
      <point x="330" y="625"/>
      <point x="343" y="612"/>
      <point x="343" y="564" type="curve"/>
      <point x="343" y="561"/>
      <point x="342" y="555"/>
      <point x="342" y="555" type="curve"/>
      <point x="341" y="551"/>
      <point x="332" y="519"/>
      <point x="329" y="510" type="curve"/>
      <point x="318" y="481"/>
      <point x="291" y="460"/>
      <point x="270" y="438" type="curve"/>
      <point x="270" y="438"/>
      <point x="267" y="432"/>
      <point x="267" y="432" type="curve"/>
      <point x="249" y="412"/>
      <point x="226" y="391"/>
      <point x="205" y="373" type="curve"/>
      <point x="178" y="351"/>
      <point x="147" y="330"/>
      <point x="120" y="308" type="curve"/>
      <point x="105" y="296"/>
      <point x="91" y="283"/>
      <point x="75" y="271" type="curve"/>
      <point x="59" y="258"/>
      <point x="34" y="248"/>
    </contour>
    <contour>
      <point x="157" y="618" type="curve"/>
      <point x="156" y="618"/>
      <point x="156" y="615"/>
      <point x="157" y="615" type="curve"/>
      <point x="159" y="615"/>
      <point x="159" y="618"/>
    </contour>
  </outline>
</glyph>
<glyph name="_33" format="1">
  <advance width="529"/>
  <outline>
    <contour>
      <point x="287" y="37" type="curve"/>
      <point x="287" y="32"/>
      <point x="287" y="21"/>
      <point x="288" y="21" type="curve"/>
      <point x="294" y="14" type="line"/>
      <point x="389" y="14" type="line"/>
      <point x="389" y="192" type="line"/>
      <point x="389" y="192"/>
      <point x="392" y="197"/>
      <point x="394" y="199" type="curve"/>
      <point x="395" y="200"/>
      <point x="397" y="202"/>
      <point x="397" y="202" type="curve"/>
      <point x="496" y="202" type="line"/>
      <point x="497" y="202"/>
      <point x="499" y="204"/>
      <point x="500" y="205" type="curve"/>
      <point x="501" y="208"/>
      <point x="503" y="215"/>
      <point x="503" y="216" type="curve"/>
      <point x="503" y="267" type="line"/>
      <point x="496" y="274" type="line"/>
      <point x="489" y="274"/>
      <point x="453" y="274"/>
      <point x="445" y="274" type="curve"/>
      <point x="440" y="274"/>
      <point x="399" y="277"/>
      <point x="394" y="277" type="curve"/>
      <point x="393" y="277"/>
      <point x="387" y="277"/>
      <point x="387" y="277" type="curve"/>
      <point x="386" y="278"/>
      <point x="383" y="283"/>
      <point x="383" y="284" type="curve"/>
      <point x="383" y="753" type="line"/>
      <point x="331" y="753" type="line"/>
      <point x="75" y="349" type="line"/>
      <point x="72" y="346" type="line"/>
      <point x="20" y="260" type="line"/>
      <point x="20" y="260"/>
      <point x="18" y="233"/>
      <point x="17" y="223" type="curve"/>
      <point x="17" y="222"/>
      <point x="17" y="213"/>
      <point x="17" y="210" type="curve"/>
      <point x="17" y="208"/>
      <point x="17" y="202"/>
      <point x="17" y="202" type="curve"/>
      <point x="24" y="199" type="line"/>
      <point x="288" y="199" type="line"/>
      <point x="291" y="192" type="line"/>
      <point x="291" y="190"/>
      <point x="291" y="165"/>
      <point x="291" y="156" type="curve"/>
      <point x="291" y="116"/>
      <point x="287" y="77"/>
    </contour>
    <contour>
      <point x="500" y="101" type="curve"/>
      <point x="498" y="101"/>
      <point x="498" y="98"/>
      <point x="500" y="98" type="curve"/>
      <point x="502" y="98"/>
      <point x="502" y="101"/>
    </contour>
    <contour>
      <point x="85" y="282" type="curve"/>
      <point x="85" y="283"/>
      <point x="85" y="284"/>
      <point x="85" y="284" type="curve"/>
      <point x="243" y="538" type="line"/>
      <point x="243" y="539"/>
      <point x="246" y="543"/>
      <point x="246" y="545" type="curve"/>
      <point x="257" y="561"/>
      <point x="284" y="599"/>
      <point x="284" y="599" type="curve"/>
      <point x="288" y="599" type="line"/>
      <point x="288" y="599"/>
      <point x="293" y="578"/>
      <point x="294" y="568" type="curve"/>
      <point x="294" y="568"/>
      <point x="294" y="567"/>
      <point x="294" y="567" type="curve"/>
      <point x="294" y="566"/>
      <point x="294" y="565"/>
      <point x="294" y="565" type="curve"/>
      <point x="294" y="562"/>
      <point x="291" y="548"/>
      <point x="291" y="545" type="curve"/>
      <point x="291" y="284" type="line"/>
      <point x="284" y="277" type="line"/>
      <point x="241" y="279"/>
      <point x="200" y="274"/>
      <point x="157" y="274" type="curve"/>
      <point x="156" y="274"/>
      <point x="151" y="274"/>
      <point x="151" y="274" type="curve"/>
      <point x="145" y="274"/>
      <point x="104" y="277"/>
      <point x="99" y="277" type="curve"/>
      <point x="95" y="278"/>
      <point x="85" y="276"/>
    </contour>
    <contour>
      <point x="62" y="784" type="curve"/>
      <point x="62" y="786"/>
      <point x="58" y="786"/>
      <point x="58" y="784" type="curve"/>
      <point x="59" y="782"/>
      <point x="61" y="782"/>
    </contour>
    <contour>
      <point x="188" y="813" type="curve"/>
      <point x="187" y="813"/>
      <point x="187" y="810"/>
      <point x="188" y="810" type="curve"/>
      <point x="190" y="810"/>
      <point x="190" y="813"/>
    </contour>
    <contour>
      <point x="199" y="829" type="curve"/>
      <point x="199" y="831"/>
      <point x="195" y="831"/>
      <point x="195" y="829" type="curve"/>
      <point x="196" y="827"/>
      <point x="198" y="827"/>
    </contour>
  </outline>
</glyph>
<glyph name="_37" format="1">
  <advance width="616"/>
  <outline>
    <contour>
      <point x="38" y="210" type="curve"/>
      <point x="38" y="208"/>
      <point x="38" y="202"/>
      <point x="38" y="202" type="curve"/>
      <point x="39" y="200"/>
      <point x="43" y="195"/>
      <point x="45" y="195" type="curve"/>
      <point x="285" y="195" type="line"/>
      <point x="285" y="195"/>
      <point x="288" y="198"/>
      <point x="288" y="199" type="curve"/>
      <point x="288" y="199"/>
      <point x="288" y="206"/>
      <point x="288" y="209" type="curve"/>
      <point x="288" y="216"/>
      <point x="290" y="233"/>
      <point x="281" y="236" type="curve"/>
      <point x="248" y="243"/>
      <point x="215" y="255"/>
      <point x="209" y="291" type="curve"/>
      <point x="208" y="305"/>
      <point x="206" y="370"/>
      <point x="206" y="384" type="curve"/>
      <point x="206" y="388"/>
      <point x="205" y="457"/>
      <point x="205" y="483" type="curve"/>
      <point x="205" y="498"/>
      <point x="206" y="567"/>
      <point x="206" y="582" type="curve"/>
      <point x="209" y="599"/>
      <point x="226" y="608"/>
      <point x="240" y="616" type="curve"/>
      <point x="243" y="618"/>
      <point x="265" y="628"/>
      <point x="271" y="630" type="curve"/>
      <point x="276" y="632"/>
      <point x="293" y="637"/>
      <point x="295" y="637" type="curve"/>
      <point x="296" y="637"/>
      <point x="311" y="637"/>
      <point x="317" y="637" type="curve"/>
      <point x="324" y="637"/>
      <point x="342" y="637"/>
      <point x="343" y="637" type="curve"/>
      <point x="380" y="635"/>
      <point x="412" y="589"/>
      <point x="412" y="555" type="curve"/>
      <point x="412" y="428" type="line"/>
      <point x="413" y="416"/>
      <point x="415" y="358"/>
      <point x="415" y="346" type="curve"/>
      <point x="415" y="337"/>
      <point x="412" y="293"/>
      <point x="411" y="284" type="curve"/>
      <point x="403" y="267"/>
      <point x="397" y="250"/>
      <point x="377" y="243" type="curve"/>
      <point x="372" y="241"/>
      <point x="348" y="237"/>
      <point x="343" y="236" type="curve"/>
      <point x="337" y="232"/>
      <point x="339" y="221"/>
      <point x="339" y="216" type="curve"/>
      <point x="339" y="214"/>
      <point x="339" y="204"/>
      <point x="339" y="202" type="curve"/>
      <point x="342" y="199"/>
      <point x="346" y="196"/>
      <point x="350" y="195" type="curve"/>
      <point x="356" y="195"/>
      <point x="387" y="195"/>
      <point x="394" y="195" type="curve"/>
      <point x="405" y="195"/>
      <point x="436" y="195"/>
      <point x="439" y="195" type="curve"/>
      <point x="459" y="196"/>
      <point x="555" y="198"/>
      <point x="576" y="199" type="curve"/>
      <point x="581" y="199"/>
      <point x="579" y="211"/>
      <point x="579" y="212" type="curve"/>
      <point x="579" y="218"/>
      <point x="580" y="230"/>
      <point x="572" y="233" type="curve"/>
      <point x="570" y="234"/>
      <point x="551" y="239"/>
      <point x="548" y="240" type="curve"/>
      <point x="537" y="243"/>
      <point x="524" y="254"/>
      <point x="517" y="264" type="curve"/>
      <point x="505" y="282"/>
      <point x="504" y="308"/>
      <point x="504" y="329" type="curve"/>
      <point x="503" y="346"/>
      <point x="504" y="483"/>
      <point x="504" y="500" type="curve"/>
      <point x="504" y="510"/>
      <point x="501" y="565"/>
      <point x="500" y="579" type="curve"/>
      <point x="500" y="583"/>
      <point x="498" y="600"/>
      <point x="497" y="603" type="curve"/>
      <point x="480" y="671"/>
      <point x="430" y="713"/>
      <point x="358" y="713" type="curve"/>
      <point x="306" y="713"/>
      <point x="262" y="673"/>
      <point x="223" y="647" type="curve"/>
      <point x="222" y="647"/>
      <point x="217" y="644"/>
      <point x="216" y="644" type="curve"/>
      <point x="214" y="642"/>
      <point x="207" y="635"/>
      <point x="206" y="634" type="curve"/>
      <point x="206" y="705" type="line"/>
      <point x="206" y="711"/>
      <point x="193" y="709"/>
      <point x="193" y="709" type="curve"/>
      <point x="191" y="709"/>
      <point x="186" y="709"/>
      <point x="185" y="709" type="curve"/>
      <point x="45" y="651" type="line"/>
      <point x="44" y="650"/>
      <point x="39" y="646"/>
      <point x="38" y="644" type="curve"/>
      <point x="38" y="644"/>
      <point x="38" y="643"/>
      <point x="38" y="642" type="curve"/>
      <point x="38" y="639"/>
      <point x="39" y="636"/>
      <point x="41" y="634" type="curve"/>
      <point x="48" y="630"/>
      <point x="79" y="610"/>
      <point x="86" y="606" type="curve"/>
      <point x="93" y="602"/>
      <point x="108" y="593"/>
      <point x="113" y="586" type="curve"/>
      <point x="117" y="557"/>
      <point x="117" y="540"/>
      <point x="117" y="512" type="curve"/>
      <point x="117" y="507"/>
      <point x="117" y="484"/>
      <point x="117" y="479" type="curve"/>
      <point x="116" y="479"/>
      <point x="113" y="474"/>
      <point x="113" y="473" type="curve"/>
      <point x="113" y="472"/>
      <point x="117" y="466"/>
      <point x="117" y="466" type="curve"/>
      <point x="117" y="463"/>
      <point x="117" y="444"/>
      <point x="117" y="442" type="curve"/>
      <point x="117" y="434"/>
      <point x="120" y="368"/>
      <point x="120" y="360" type="curve"/>
      <point x="120" y="359"/>
      <point x="120" y="357"/>
      <point x="120" y="356" type="curve"/>
      <point x="120" y="355"/>
      <point x="120" y="353"/>
      <point x="120" y="353" type="curve"/>
      <point x="118" y="323"/>
      <point x="119" y="273"/>
      <point x="93" y="250" type="curve"/>
      <point x="70" y="229"/>
      <point x="38" y="248"/>
    </contour>
  </outline>
</glyph>
<glyph name="_43" format="1">
  <advance width="318"/>
  <outline>
    <contour>
      <point x="91" y="357" type="curve"/>
      <point x="91" y="338"/>
      <point x="91" y="290"/>
      <point x="91" y="288" type="curve"/>
      <point x="91" y="280"/>
      <point x="94" y="254"/>
      <point x="94" y="250" type="curve"/>
      <point x="95" y="248"/>
      <point x="105" y="226"/>
      <point x="108" y="219" type="curve"/>
      <point x="108" y="219"/>
      <point x="111" y="216"/>
      <point x="112" y="216" type="curve"/>
      <point x="117" y="212"/>
      <point x="136" y="197"/>
      <point x="139" y="195" type="curve"/>
      <point x="151" y="187"/>
      <point x="168" y="188"/>
      <point x="182" y="188" type="curve"/>
      <point x="186" y="188"/>
      <point x="197" y="188"/>
      <point x="197" y="188" type="curve"/>
      <point x="205" y="189"/>
      <point x="241" y="194"/>
      <point x="249" y="195" type="curve"/>
      <point x="262" y="204"/>
      <point x="280" y="201"/>
      <point x="290" y="216" type="curve"/>
      <point x="290" y="218"/>
      <point x="290" y="229"/>
      <point x="290" y="231" type="curve"/>
      <point x="290" y="247"/>
      <point x="292" y="259"/>
      <point x="273" y="260" type="curve"/>
      <point x="268" y="261"/>
      <point x="229" y="260"/>
      <point x="225" y="260" type="curve"/>
      <point x="204" y="261"/>
      <point x="187" y="281"/>
      <point x="187" y="301" type="curve"/>
      <point x="187" y="616" type="line"/>
      <point x="186" y="618"/>
      <point x="184" y="625"/>
      <point x="184" y="627" type="curve"/>
      <point x="184" y="636"/>
      <point x="184" y="647"/>
      <point x="195" y="647" type="curve"/>
      <point x="196" y="647"/>
      <point x="197" y="647"/>
      <point x="197" y="647" type="curve"/>
      <point x="201" y="647"/>
      <point x="234" y="644"/>
      <point x="238" y="644" type="curve"/>
      <point x="250" y="644"/>
      <point x="278" y="646"/>
      <point x="279" y="647" type="curve"/>
      <point x="286" y="654" type="line"/>
      <point x="286" y="688" type="line"/>
      <point x="286" y="691"/>
      <point x="275" y="699"/>
      <point x="273" y="699" type="curve"/>
      <point x="190" y="699" type="line"/>
      <point x="184" y="702" type="line"/>
      <point x="183" y="702"/>
      <point x="183" y="714"/>
      <point x="183" y="718" type="curve"/>
      <point x="183" y="735"/>
      <point x="187" y="751"/>
      <point x="187" y="767" type="curve"/>
      <point x="187" y="774"/>
      <point x="186" y="781"/>
      <point x="184" y="788" type="curve"/>
      <point x="182" y="793"/>
      <point x="175" y="791"/>
      <point x="171" y="791" type="curve"/>
      <point x="162" y="791"/>
      <point x="158" y="791"/>
      <point x="149" y="784" type="curve"/>
      <point x="142" y="776"/>
      <point x="109" y="737"/>
      <point x="101" y="729" type="curve"/>
      <point x="99" y="728"/>
      <point x="83" y="714"/>
      <point x="81" y="712" type="curve"/>
      <point x="80" y="712"/>
      <point x="78" y="709"/>
      <point x="77" y="709" type="curve"/>
      <point x="64" y="699"/>
      <point x="39" y="690"/>
      <point x="29" y="675" type="curve"/>
      <point x="26" y="670"/>
      <point x="26" y="665"/>
      <point x="26" y="659" type="curve"/>
      <point x="26" y="650"/>
      <point x="29" y="645"/>
      <point x="40" y="644" type="curve"/>
      <point x="46" y="643"/>
      <point x="78" y="643"/>
      <point x="84" y="644" type="curve"/>
      <point x="93" y="640"/>
      <point x="94" y="629"/>
      <point x="94" y="621" type="curve"/>
      <point x="94" y="533"/>
      <point x="91" y="445"/>
    </contour>
    <contour>
      <point x="221" y="639" type="curve"/>
      <point x="219" y="639"/>
      <point x="219" y="635"/>
      <point x="221" y="635" type="curve"/>
      <point x="223" y="635"/>
      <point x="223" y="639"/>
    </contour>
  </outline>
</glyph>
<glyph name="_44" format="1">
  <advance width="404"/>
  <outline>
    <contour>
      <point x="46" y="240" type="curve"/>
      <point x="51" y="224"/>
      <point x="66" y="223"/>
      <point x="80" y="216" type="curve"/>
      <point x="81" y="215"/>
      <point x="89" y="209"/>
      <point x="90" y="209" type="curve"/>
      <point x="100" y="204"/>
      <point x="136" y="190"/>
      <point x="142" y="188" type="curve"/>
      <point x="154" y="184"/>
      <point x="174" y="185"/>
      <point x="187" y="185" type="curve"/>
      <point x="250" y="185"/>
      <point x="300" y="201"/>
      <point x="340" y="250" type="curve"/>
      <point x="360" y="274"/>
      <point x="365" y="303"/>
      <point x="365" y="333" type="curve"/>
      <point x="365" y="362"/>
      <point x="362" y="395"/>
      <point x="340" y="418" type="curve"/>
      <point x="331" y="428"/>
      <point x="304" y="454"/>
      <point x="303" y="455" type="curve"/>
      <point x="169" y="531" type="line"/>
      <point x="169" y="531"/>
      <point x="166" y="534"/>
      <point x="166" y="534" type="curve"/>
      <point x="164" y="535"/>
      <point x="153" y="543"/>
      <point x="152" y="545" type="curve"/>
      <point x="134" y="562"/>
      <point x="121" y="575"/>
      <point x="121" y="600" type="curve"/>
      <point x="121" y="626"/>
      <point x="140" y="656"/>
      <point x="166" y="664" type="curve"/>
      <point x="175" y="667"/>
      <point x="192" y="668"/>
      <point x="202" y="668" type="curve"/>
      <point x="226" y="668"/>
      <point x="237" y="660"/>
      <point x="255" y="644" type="curve"/>
      <point x="268" y="632"/>
      <point x="278" y="623"/>
      <point x="286" y="606" type="curve"/>
      <point x="293" y="590"/>
      <point x="297" y="551"/>
      <point x="323" y="551" type="curve"/>
      <point x="328" y="551"/>
      <point x="336" y="550"/>
      <point x="340" y="555" type="curve"/>
      <point x="341" y="559"/>
      <point x="343" y="578"/>
      <point x="344" y="582" type="curve"/>
      <point x="344" y="582"/>
      <point x="344" y="584"/>
      <point x="344" y="584" type="curve"/>
      <point x="344" y="584"/>
      <point x="344" y="585"/>
      <point x="344" y="586" type="curve"/>
      <point x="343" y="588"/>
      <point x="341" y="610"/>
      <point x="340" y="613" type="curve"/>
      <point x="340" y="621"/>
      <point x="340" y="660"/>
      <point x="340" y="668" type="curve"/>
      <point x="330" y="681"/>
      <point x="317" y="683"/>
      <point x="303" y="688" type="curve"/>
      <point x="300" y="689"/>
      <point x="281" y="698"/>
      <point x="279" y="699" type="curve"/>
      <point x="270" y="702"/>
      <point x="262" y="700"/>
      <point x="255" y="705" type="curve"/>
      <point x="247" y="707"/>
      <point x="211" y="711"/>
      <point x="203" y="712" type="curve"/>
      <point x="203" y="712"/>
      <point x="199" y="713"/>
      <point x="198" y="713" type="curve"/>
      <point x="146" y="713"/>
      <point x="86" y="691"/>
      <point x="60" y="644" type="curve"/>
      <point x="48" y="624"/>
      <point x="39" y="604"/>
      <point x="39" y="581" type="curve"/>
      <point x="39" y="534"/>
      <point x="71" y="483"/>
      <point x="111" y="459" type="curve"/>
      <point x="127" y="449"/>
      <point x="201" y="406"/>
      <point x="217" y="397" type="curve"/>
      <point x="220" y="391"/>
      <point x="235" y="388"/>
      <point x="241" y="384" type="curve"/>
      <point x="248" y="378"/>
      <point x="272" y="356"/>
      <point x="275" y="353" type="curve"/>
      <point x="287" y="341"/>
      <point x="289" y="324"/>
      <point x="289" y="308" type="curve"/>
      <point x="289" y="254"/>
      <point x="255" y="226"/>
      <point x="202" y="226" type="curve"/>
      <point x="150" y="226"/>
      <point x="111" y="269"/>
      <point x="94" y="315" type="curve"/>
      <point x="88" y="330"/>
      <point x="93" y="370"/>
      <point x="68" y="370" type="curve"/>
      <point x="61" y="370"/>
      <point x="46" y="371"/>
      <point x="42" y="363" type="curve"/>
      <point x="42" y="358"/>
      <point x="42" y="333"/>
      <point x="42" y="327" type="curve"/>
      <point x="42" y="318"/>
      <point x="42" y="293"/>
      <point x="42" y="291" type="curve"/>
      <point x="43" y="283"/>
      <point x="45" y="247"/>
    </contour>
  </outline>
</glyph>
<glyph name="_45" format="1">
  <advance width="598"/>
  <outline>
    <contour>
      <point x="143" y="142" type="curve"/>
      <point x="141" y="142"/>
      <point x="141" y="139"/>
      <point x="143" y="139" type="curve"/>
      <point x="144" y="139"/>
      <point x="144" y="142"/>
    </contour>
    <contour>
      <point x="33" y="433" type="curve"/>
      <point x="33" y="433"/>
      <point x="33" y="432"/>
      <point x="33" y="432" type="curve"/>
      <point x="39" y="414"/>
      <point x="38" y="394"/>
      <point x="43" y="377" type="curve"/>
      <point x="56" y="333"/>
      <point x="74" y="290"/>
      <point x="105" y="257" type="curve"/>
      <point x="125" y="236"/>
      <point x="144" y="211"/>
      <point x="173" y="202" type="curve"/>
      <point x="180" y="200"/>
      <point x="218" y="193"/>
      <point x="228" y="192" type="curve"/>
      <point x="230" y="192"/>
      <point x="245" y="191"/>
      <point x="250" y="191" type="curve"/>
      <point x="255" y="191"/>
      <point x="269" y="192"/>
      <point x="269" y="192" type="curve"/>
      <point x="273" y="192"/>
      <point x="306" y="204"/>
      <point x="317" y="209" type="curve"/>
      <point x="340" y="218"/>
      <point x="361" y="240"/>
      <point x="379" y="253" type="curve"/>
      <point x="388" y="260"/>
      <point x="390" y="259"/>
      <point x="396" y="267" type="curve"/>
      <point x="399" y="264" type="line"/>
      <point x="400" y="263"/>
      <point x="400" y="257"/>
      <point x="400" y="254" type="curve"/>
      <point x="400" y="238"/>
      <point x="396" y="223"/>
      <point x="396" y="207" type="curve"/>
      <point x="396" y="199"/>
      <point x="399" y="191"/>
      <point x="410" y="192" type="curve"/>
      <point x="412" y="192"/>
      <point x="425" y="198"/>
      <point x="427" y="199" type="curve"/>
      <point x="441" y="202"/>
      <point x="505" y="216"/>
      <point x="519" y="219" type="curve"/>
      <point x="520" y="219"/>
      <point x="522" y="219"/>
      <point x="523" y="219" type="curve"/>
      <point x="529" y="221"/>
      <point x="551" y="225"/>
      <point x="554" y="226" type="curve"/>
      <point x="557" y="227"/>
      <point x="562" y="230"/>
      <point x="564" y="233" type="curve"/>
      <point x="564" y="235"/>
      <point x="564" y="246"/>
      <point x="564" y="248" type="curve"/>
      <point x="564" y="257"/>
      <point x="566" y="268"/>
      <point x="557" y="274" type="curve"/>
      <point x="546" y="270"/>
      <point x="538" y="270"/>
      <point x="526" y="270" type="curve"/>
      <point x="524" y="270"/>
      <point x="516" y="270"/>
      <point x="516" y="271" type="curve"/>
      <point x="514" y="271"/>
      <point x="504" y="278"/>
      <point x="502" y="281" type="curve"/>
      <point x="500" y="283"/>
      <point x="496" y="293"/>
      <point x="495" y="295" type="curve"/>
      <point x="492" y="356" type="line"/>
      <point x="492" y="969" type="line"/>
      <point x="492" y="977"/>
      <point x="492" y="989"/>
      <point x="482" y="990" type="curve"/>
      <point x="481" y="990"/>
      <point x="472" y="990"/>
      <point x="468" y="990" type="curve"/>
      <point x="466" y="990"/>
      <point x="456" y="990"/>
      <point x="454" y="990" type="curve"/>
      <point x="442" y="984"/>
      <point x="385" y="960"/>
      <point x="372" y="955" type="curve"/>
      <point x="369" y="954"/>
      <point x="344" y="949"/>
      <point x="341" y="949" type="curve"/>
      <point x="339" y="948"/>
      <point x="332" y="946"/>
      <point x="331" y="945" type="curve"/>
      <point x="328" y="944"/>
      <point x="321" y="939"/>
      <point x="321" y="938" type="curve"/>
      <point x="321" y="914" type="line"/>
      <point x="330" y="910"/>
      <point x="370" y="891"/>
      <point x="379" y="887" type="curve"/>
      <point x="390" y="882"/>
      <point x="396" y="876"/>
      <point x="396" y="863" type="curve"/>
      <point x="396" y="716" type="line"/>
      <point x="396" y="711"/>
      <point x="390" y="712"/>
      <point x="388" y="712" type="curve"/>
      <point x="375" y="712"/>
      <point x="368" y="716"/>
      <point x="351" y="719" type="curve"/>
      <point x="335" y="723"/>
      <point x="314" y="726"/>
      <point x="297" y="726" type="curve"/>
      <point x="231" y="726"/>
      <point x="176" y="694"/>
      <point x="125" y="654" type="curve"/>
      <point x="122" y="652"/>
      <point x="98" y="628"/>
      <point x="91" y="620" type="curve"/>
      <point x="91" y="619"/>
      <point x="88" y="614"/>
      <point x="88" y="613" type="curve"/>
      <point x="87" y="612"/>
      <point x="82" y="607"/>
      <point x="81" y="606" type="curve"/>
      <point x="67" y="580"/>
      <point x="53" y="550"/>
      <point x="47" y="521" type="curve"/>
      <point x="41" y="491"/>
      <point x="42" y="463"/>
      <point x="33" y="435" type="curve"/>
      <point x="33" y="435"/>
      <point x="33" y="434"/>
    </contour>
    <contour>
      <point x="128" y="483" type="curve"/>
      <point x="128" y="489"/>
      <point x="129" y="506"/>
      <point x="129" y="507" type="curve"/>
      <point x="129" y="510"/>
      <point x="134" y="536"/>
      <point x="136" y="545" type="curve"/>
      <point x="137" y="553"/>
      <point x="141" y="554"/>
      <point x="139" y="562" type="curve"/>
      <point x="142" y="569"/>
      <point x="156" y="600"/>
      <point x="160" y="606" type="curve"/>
      <point x="179" y="639"/>
      <point x="211" y="656"/>
      <point x="245" y="668" type="curve"/>
      <point x="255" y="671"/>
      <point x="263" y="675"/>
      <point x="275" y="675" type="curve"/>
      <point x="275" y="675"/>
      <point x="276" y="675"/>
      <point x="276" y="675" type="curve"/>
      <point x="286" y="672"/>
      <point x="315" y="665"/>
      <point x="317" y="664" type="curve"/>
      <point x="360" y="651"/>
      <point x="396" y="608"/>
      <point x="396" y="562" type="curve"/>
      <point x="396" y="538"/>
      <point x="396" y="428"/>
      <point x="396" y="404" type="curve"/>
      <point x="396" y="399"/>
      <point x="399" y="355"/>
      <point x="399" y="349" type="curve"/>
      <point x="399" y="349"/>
      <point x="400" y="343"/>
      <point x="400" y="342" type="curve"/>
      <point x="400" y="329"/>
      <point x="391" y="321"/>
      <point x="382" y="312" type="curve"/>
      <point x="374" y="307"/>
      <point x="336" y="288"/>
      <point x="328" y="284" type="curve"/>
      <point x="316" y="279"/>
      <point x="311" y="280"/>
      <point x="297" y="280" type="curve"/>
      <point x="249" y="280"/>
      <point x="209" y="296"/>
      <point x="177" y="332" type="curve"/>
      <point x="176" y="333"/>
      <point x="171" y="341"/>
      <point x="170" y="342" type="curve"/>
      <point x="146" y="389"/>
      <point x="128" y="429"/>
    </contour>
    <contour>
      <point x="362" y="865" type="curve"/>
      <point x="360" y="865"/>
      <point x="360" y="861"/>
      <point x="362" y="861" type="curve"/>
      <point x="363" y="861"/>
      <point x="363" y="865"/>
    </contour>
  </outline>
</glyph>
<glyph name="_46" format="1">
  <advance width="324"/>
  <outline>
    <contour>
      <point x="43" y="205" type="curve"/>
      <point x="64" y="206"/>
      <point x="165" y="206"/>
      <point x="187" y="205" type="curve"/>
      <point x="194" y="205"/>
      <point x="230" y="203"/>
      <point x="238" y="202" type="curve"/>
      <point x="235" y="202" type="line"/>
      <point x="241" y="205" type="line"/>
      <point x="286" y="205" type="line"/>
      <point x="286" y="240" type="line"/>
      <point x="286" y="240"/>
      <point x="284" y="243"/>
      <point x="283" y="243" type="curve"/>
      <point x="280" y="244"/>
      <point x="261" y="249"/>
      <point x="259" y="250" type="curve"/>
      <point x="212" y="267"/>
      <point x="214" y="306"/>
      <point x="214" y="350" type="curve"/>
      <point x="214" y="360"/>
      <point x="214" y="391"/>
      <point x="214" y="394" type="curve"/>
      <point x="214" y="406"/>
      <point x="215" y="461"/>
      <point x="216" y="473" type="curve"/>
      <point x="216" y="486" type="line"/>
      <point x="214" y="678" type="line"/>
      <point x="215" y="682"/>
      <point x="218" y="701"/>
      <point x="218" y="705" type="curve"/>
      <point x="218" y="718"/>
      <point x="213" y="723"/>
      <point x="202" y="723" type="curve"/>
      <point x="201" y="723"/>
      <point x="198" y="723"/>
      <point x="197" y="723" type="curve"/>
      <point x="162" y="711"/>
      <point x="139" y="700"/>
      <point x="108" y="688" type="curve"/>
      <point x="107" y="688"/>
      <point x="102" y="685"/>
      <point x="101" y="685" type="curve"/>
      <point x="100" y="685"/>
      <point x="92" y="685"/>
      <point x="91" y="685" type="curve"/>
      <point x="85" y="683"/>
      <point x="61" y="673"/>
      <point x="57" y="671" type="curve"/>
      <point x="55" y="670"/>
      <point x="47" y="663"/>
      <point x="46" y="661" type="curve"/>
      <point x="46" y="661"/>
      <point x="46" y="659"/>
      <point x="46" y="658" type="curve"/>
      <point x="46" y="649"/>
      <point x="54" y="642"/>
      <point x="60" y="637" type="curve"/>
      <point x="63" y="635"/>
      <point x="82" y="623"/>
      <point x="87" y="620" type="curve"/>
      <point x="92" y="617"/>
      <point x="116" y="605"/>
      <point x="122" y="603" type="curve"/>
      <point x="125" y="596" type="line"/>
      <point x="125" y="353" type="line"/>
      <point x="125" y="332"/>
      <point x="123" y="308"/>
      <point x="118" y="288" type="curve"/>
      <point x="118" y="285"/>
      <point x="115" y="278"/>
      <point x="115" y="277" type="curve"/>
      <point x="90" y="234"/>
      <point x="36" y="268"/>
      <point x="36" y="222" type="curve"/>
      <point x="36" y="216"/>
      <point x="34" y="208"/>
    </contour>
    <contour>
      <point x="163" y="870" type="curve"/>
      <point x="166" y="866" type="line"/>
      <point x="168" y="865"/>
      <point x="189" y="874"/>
      <point x="197" y="880" type="curve"/>
      <point x="199" y="882"/>
      <point x="211" y="899"/>
      <point x="214" y="904" type="curve"/>
      <point x="219" y="914"/>
      <point x="221" y="922"/>
      <point x="221" y="932" type="curve"/>
      <point x="221" y="934"/>
      <point x="221" y="938"/>
      <point x="221" y="938" type="curve"/>
      <point x="211" y="971"/>
      <point x="193" y="993"/>
      <point x="156" y="993" type="curve"/>
      <point x="127" y="993"/>
      <point x="113" y="966"/>
      <point x="104" y="942" type="curve"/>
      <point x="104" y="942"/>
      <point x="104" y="941"/>
      <point x="104" y="940" type="curve"/>
      <point x="104" y="930"/>
      <point x="108" y="904"/>
      <point x="115" y="894" type="curve"/>
      <point x="118" y="889"/>
      <point x="132" y="875"/>
      <point x="135" y="873" type="curve"/>
      <point x="139" y="871"/>
      <point x="158" y="869"/>
    </contour>
  </outline>
</glyph>
<glyph name="_48" format="1">
  <advance width="570"/>
  <outline>
    <contour>
      <point x="22" y="27" type="curve"/>
      <point x="22" y="21"/>
      <point x="25" y="14"/>
      <point x="32" y="14" type="curve"/>
      <point x="275" y="14" type="line"/>
      <point x="277" y="14"/>
      <point x="282" y="18"/>
      <point x="282" y="21" type="curve"/>
      <point x="282" y="21"/>
      <point x="283" y="27"/>
      <point x="283" y="30" type="curve"/>
      <point x="283" y="62"/>
      <point x="261" y="53"/>
      <point x="234" y="58" type="curve"/>
      <point x="206" y="63"/>
      <point x="195" y="105"/>
      <point x="193" y="127" type="curve"/>
      <point x="193" y="128"/>
      <point x="193" y="146"/>
      <point x="193" y="153" type="curve"/>
      <point x="193" y="168"/>
      <point x="187" y="198"/>
      <point x="207" y="205" type="curve"/>
      <point x="218" y="203"/>
      <point x="271" y="193"/>
      <point x="282" y="192" type="curve"/>
      <point x="283" y="192"/>
      <point x="299" y="191"/>
      <point x="305" y="191" type="curve"/>
      <point x="337" y="191"/>
      <point x="370" y="198"/>
      <point x="399" y="212" type="curve"/>
      <point x="410" y="218"/>
      <point x="443" y="237"/>
      <point x="447" y="240" type="curve"/>
      <point x="455" y="246"/>
      <point x="488" y="282"/>
      <point x="495" y="291" type="curve"/>
      <point x="498" y="296"/>
      <point x="520" y="337"/>
      <point x="525" y="349" type="curve"/>
      <point x="540" y="382"/>
      <point x="546" y="417"/>
      <point x="546" y="452" type="curve"/>
      <point x="546" y="495"/>
      <point x="542" y="534"/>
      <point x="529" y="575" type="curve"/>
      <point x="527" y="581"/>
      <point x="518" y="602"/>
      <point x="515" y="606" type="curve"/>
      <point x="512" y="610"/>
      <point x="484" y="649"/>
      <point x="474" y="661" type="curve"/>
      <point x="472" y="663"/>
      <point x="465" y="670"/>
      <point x="464" y="671" type="curve"/>
      <point x="456" y="677"/>
      <point x="417" y="701"/>
      <point x="409" y="705" type="curve"/>
      <point x="386" y="711"/>
      <point x="362" y="716"/>
      <point x="338" y="716" type="curve"/>
      <point x="336" y="716"/>
      <point x="331" y="716"/>
      <point x="330" y="716" type="curve"/>
      <point x="321" y="714"/>
      <point x="293" y="707"/>
      <point x="289" y="705" type="curve"/>
      <point x="279" y="701"/>
      <point x="236" y="677"/>
      <point x="227" y="671" type="curve"/>
      <point x="222" y="667"/>
      <point x="200" y="646"/>
      <point x="197" y="640" type="curve"/>
      <point x="196" y="640"/>
      <point x="195" y="640"/>
      <point x="195" y="640" type="curve"/>
      <point x="193" y="640"/>
      <point x="190" y="641"/>
      <point x="190" y="644" type="curve"/>
      <point x="190" y="712" type="line"/>
      <point x="190" y="717"/>
      <point x="180" y="716"/>
      <point x="179" y="716" type="curve"/>
      <point x="177" y="716"/>
      <point x="173" y="716"/>
      <point x="173" y="716" type="curve"/>
      <point x="32" y="664" type="line"/>
      <point x="24" y="661"/>
      <point x="25" y="655"/>
      <point x="25" y="648" type="curve"/>
      <point x="25" y="640"/>
      <point x="23" y="638"/>
      <point x="29" y="634" type="curve"/>
      <point x="36" y="629"/>
      <point x="57" y="614"/>
      <point x="60" y="613" type="curve"/>
      <point x="62" y="612"/>
      <point x="81" y="604"/>
      <point x="84" y="603" type="curve"/>
      <point x="85" y="602"/>
      <point x="92" y="597"/>
      <point x="94" y="596" type="curve"/>
      <point x="96" y="594"/>
      <point x="102" y="589"/>
      <point x="102" y="589" type="curve"/>
      <point x="102" y="377" type="line"/>
      <point x="102" y="345"/>
      <point x="104" y="199"/>
      <point x="104" y="168" type="curve"/>
      <point x="104" y="158"/>
      <point x="102" y="110"/>
      <point x="101" y="99" type="curve"/>
      <point x="99" y="78"/>
      <point x="83" y="63"/>
      <point x="63" y="58" type="curve"/>
      <point x="51" y="55"/>
      <point x="37" y="60"/>
      <point x="25" y="51" type="curve"/>
      <point x="24" y="44"/>
      <point x="22" y="35"/>
    </contour>
    <contour>
      <point x="190" y="572" type="curve"/>
      <point x="190" y="580"/>
      <point x="188" y="583"/>
      <point x="193" y="589" type="curve"/>
      <point x="205" y="604"/>
      <point x="231" y="617"/>
      <point x="248" y="623" type="curve"/>
      <point x="253" y="625"/>
      <point x="269" y="630"/>
      <point x="272" y="630" type="curve"/>
      <point x="273" y="630"/>
      <point x="294" y="631"/>
      <point x="301" y="631" type="curve"/>
      <point x="306" y="631"/>
      <point x="326" y="630"/>
      <point x="330" y="630" type="curve"/>
      <point x="331" y="629"/>
      <point x="336" y="627"/>
      <point x="337" y="627" type="curve"/>
      <point x="397" y="607"/>
      <point x="420" y="577"/>
      <point x="447" y="521" type="curve"/>
      <point x="446" y="520"/>
      <point x="446" y="515"/>
      <point x="447" y="514" type="curve"/>
      <point x="456" y="476"/>
      <point x="464" y="452"/>
      <point x="464" y="412" type="curve"/>
      <point x="464" y="392"/>
      <point x="460" y="375"/>
      <point x="454" y="356" type="curve"/>
      <point x="453" y="354"/>
      <point x="448" y="334"/>
      <point x="447" y="332" type="curve"/>
      <point x="428" y="281"/>
      <point x="385" y="236"/>
      <point x="327" y="236" type="curve"/>
      <point x="323" y="236"/>
      <point x="310" y="236"/>
      <point x="310" y="236" type="curve"/>
      <point x="306" y="237"/>
      <point x="277" y="244"/>
      <point x="269" y="247" type="curve"/>
      <point x="262" y="248"/>
      <point x="243" y="256"/>
      <point x="241" y="257" type="curve"/>
      <point x="240" y="258"/>
      <point x="228" y="270"/>
      <point x="224" y="274" type="curve"/>
      <point x="223" y="275"/>
      <point x="218" y="283"/>
      <point x="217" y="284" type="curve"/>
      <point x="215" y="288"/>
      <point x="203" y="315"/>
      <point x="200" y="322" type="curve"/>
      <point x="192" y="342"/>
      <point x="194" y="376"/>
      <point x="193" y="397" type="curve"/>
      <point x="193" y="413"/>
      <point x="190" y="542"/>
      <point x="190" y="558" type="curve"/>
      <point x="190" y="559"/>
      <point x="190" y="569"/>
    </contour>
    <contour>
      <point x="392" y="272" type="curve"/>
      <point x="390" y="272"/>
      <point x="390" y="269"/>
      <point x="392" y="269" type="curve"/>
      <point x="394" y="269"/>
      <point x="394" y="272"/>
    </contour>
  </outline>
</glyph>
<glyph name="_50" format="1">
  <advance width="503"/>
  <outline>
    <contour>
      <point x="41" y="319" type="curve"/>
      <point x="41" y="255"/>
      <point x="96" y="195"/>
      <point x="161" y="195" type="curve"/>
      <point x="213" y="195"/>
      <point x="251" y="224"/>
      <point x="291" y="253" type="curve"/>
      <point x="292" y="253"/>
      <point x="294" y="254"/>
      <point x="294" y="254" type="curve"/>
      <point x="308" y="254"/>
      <point x="309" y="228"/>
      <point x="318" y="219" type="curve"/>
      <point x="333" y="206"/>
      <point x="351" y="195"/>
      <point x="371" y="195" type="curve"/>
      <point x="388" y="195"/>
      <point x="406" y="199"/>
      <point x="421" y="205" type="curve"/>
      <point x="424" y="207"/>
      <point x="441" y="219"/>
      <point x="445" y="223" type="curve"/>
      <point x="449" y="226"/>
      <point x="459" y="238"/>
      <point x="459" y="240" type="curve"/>
      <point x="459" y="281" type="line"/>
      <point x="459" y="286"/>
      <point x="447" y="285"/>
      <point x="446" y="285" type="curve"/>
      <point x="436" y="285"/>
      <point x="430" y="277"/>
      <point x="420" y="277" type="curve"/>
      <point x="405" y="277"/>
      <point x="394" y="292"/>
      <point x="394" y="305" type="curve"/>
      <point x="393" y="312"/>
      <point x="390" y="370"/>
      <point x="390" y="377" type="curve"/>
      <point x="390" y="412"/>
      <point x="390" y="578"/>
      <point x="390" y="613" type="curve"/>
      <point x="388" y="627"/>
      <point x="381" y="646"/>
      <point x="373" y="658" type="curve"/>
      <point x="359" y="678"/>
      <point x="318" y="706"/>
      <point x="294" y="709" type="curve"/>
      <point x="284" y="710"/>
      <point x="233" y="715"/>
      <point x="223" y="716" type="curve"/>
      <point x="209" y="708"/>
      <point x="196" y="709"/>
      <point x="181" y="705" type="curve"/>
      <point x="177" y="704"/>
      <point x="158" y="697"/>
      <point x="154" y="695" type="curve"/>
      <point x="145" y="691"/>
      <point x="104" y="669"/>
      <point x="96" y="664" type="curve"/>
      <point x="81" y="646"/>
      <point x="58" y="618"/>
      <point x="58" y="592" type="curve"/>
      <point x="58" y="591"/>
      <point x="58" y="586"/>
      <point x="58" y="586" type="curve"/>
      <point x="59" y="581"/>
      <point x="66" y="552"/>
      <point x="68" y="545" type="curve"/>
      <point x="72" y="532"/>
      <point x="84" y="517"/>
      <point x="98" y="517" type="curve"/>
      <point x="98" y="517"/>
      <point x="99" y="517"/>
      <point x="99" y="517" type="curve"/>
      <point x="100" y="517"/>
      <point x="105" y="520"/>
      <point x="106" y="521" type="curve"/>
      <point x="121" y="527"/>
      <point x="158" y="537"/>
      <point x="158" y="557" type="curve"/>
      <point x="158" y="590"/>
      <point x="133" y="592"/>
      <point x="133" y="616" type="curve"/>
      <point x="133" y="645"/>
      <point x="186" y="668"/>
      <point x="208" y="668" type="curve"/>
      <point x="242" y="668"/>
      <point x="263" y="652"/>
      <point x="284" y="627" type="curve"/>
      <point x="285" y="626"/>
      <point x="290" y="616"/>
      <point x="291" y="613" type="curve"/>
      <point x="295" y="603"/>
      <point x="294" y="590"/>
      <point x="294" y="579" type="curve"/>
      <point x="295" y="573"/>
      <point x="298" y="529"/>
      <point x="298" y="524" type="curve"/>
      <point x="298" y="523"/>
      <point x="298" y="518"/>
      <point x="298" y="516" type="curve"/>
      <point x="298" y="507"/>
      <point x="289" y="500"/>
      <point x="281" y="497" type="curve"/>
      <point x="276" y="495"/>
      <point x="241" y="484"/>
      <point x="236" y="483" type="curve"/>
      <point x="236" y="483"/>
      <point x="230" y="480"/>
      <point x="229" y="479" type="curve"/>
      <point x="219" y="475"/>
      <point x="168" y="456"/>
      <point x="157" y="452" type="curve"/>
      <point x="157" y="452"/>
      <point x="155" y="452"/>
      <point x="154" y="452" type="curve"/>
      <point x="149" y="450"/>
      <point x="130" y="440"/>
      <point x="127" y="438" type="curve"/>
      <point x="103" y="424"/>
      <point x="80" y="411"/>
      <point x="65" y="387" type="curve"/>
      <point x="51" y="364"/>
      <point x="41" y="345"/>
    </contour>
    <contour>
      <point x="137" y="335" type="curve"/>
      <point x="137" y="354"/>
      <point x="141" y="368"/>
      <point x="151" y="384" type="curve"/>
      <point x="157" y="393"/>
      <point x="169" y="398"/>
      <point x="178" y="404" type="curve"/>
      <point x="181" y="406"/>
      <point x="202" y="420"/>
      <point x="205" y="421" type="curve"/>
      <point x="217" y="427"/>
      <point x="269" y="451"/>
      <point x="281" y="455" type="curve"/>
      <point x="281" y="455"/>
      <point x="284" y="456"/>
      <point x="284" y="456" type="curve"/>
      <point x="299" y="456"/>
      <point x="298" y="442"/>
      <point x="298" y="432" type="curve"/>
      <point x="298" y="421"/>
      <point x="301" y="339"/>
      <point x="301" y="329" type="curve"/>
      <point x="301" y="329"/>
      <point x="301" y="327"/>
      <point x="301" y="327" type="curve"/>
      <point x="301" y="326"/>
      <point x="301" y="325"/>
      <point x="301" y="325" type="curve"/>
      <point x="283" y="295"/>
      <point x="245" y="267"/>
      <point x="209" y="267" type="curve"/>
      <point x="197" y="267"/>
      <point x="191" y="272"/>
      <point x="181" y="277" type="curve"/>
      <point x="180" y="278"/>
      <point x="172" y="280"/>
      <point x="171" y="281" type="curve"/>
      <point x="157" y="286"/>
      <point x="148" y="304"/>
      <point x="140" y="315" type="curve"/>
      <point x="136" y="322"/>
      <point x="137" y="328"/>
    </contour>
    <contour>
      <point x="151" y="324" type="curve"/>
      <point x="149" y="324"/>
      <point x="149" y="320"/>
      <point x="151" y="320" type="curve"/>
      <point x="152" y="320"/>
      <point x="152" y="324"/>
    </contour>
  </outline>
</glyph>
